<?xml version="1.0" encoding="UTF-8" standalone="no"?>
<svg
   sodipodi:docname="panel-background.svg"
   inkscape:version="1.3.2 (091e20ef0f, 2023-11-25)"
   version="1.1"
   id="svg2"
   viewBox="0 0 192 80"
   height="80"
   width="192"
   xmlns:inkscape="http://www.inkscape.org/namespaces/inkscape"
   xmlns:sodipodi="http://sodipodi.sourceforge.net/DTD/sodipodi-0.dtd"
   xmlns:xlink="http://www.w3.org/1999/xlink"
   xmlns="http://www.w3.org/2000/svg"
   xmlns:svg="http://www.w3.org/2000/svg"
   xmlns:rdf="http://www.w3.org/1999/02/22-rdf-syntax-ns#"
   xmlns:cc="http://creativecommons.org/ns#"
   xmlns:dc="http://purl.org/dc/elements/1.1/">
  <defs
     id="defs4">
    <style
       id="current-color-scheme"
       type="text/css">.ColorScheme-Text { color:#31363b;        stop-color:#31363b; }
.ColorScheme-Background { color:#eff0f1;        stop-color:#eff0f1; }
.ColorScheme-Highlight { color:#3daee9;        stop-color:#3daee9; }
.ColorScheme-ViewText { color:#31363b;        stop-color:#31363b; }
.ColorScheme-ViewBackground { color:#fcfcfc;        stop-color:#fcfcfc; }
.ColorScheme-ViewHover { color:#93cee9;        stop-color:#93cee9; }
.ColorScheme-ViewFocus { color:#3daee9;        stop-color:#3daee9; }
.ColorScheme-ButtonText { color:#31363b;        stop-color:#31363b; }
.ColorScheme-ButtonBackground { color:#eff0f1;        stop-color:#eff0f1; }
.ColorScheme-ButtonHover { color:#93cee9;        stop-color:#93cee9; }
.ColorScheme-ButtonFocus { color:#3daee9;        stop-color:#3daee9; }
</style>
    <linearGradient
       inkscape:collect="always"
       xlink:href="#linearGradient4270"
       id="linearGradient4920"
       gradientUnits="userSpaceOnUse"
       x1="-912.93359"
       y1="-35"
       x2="-905.21936"
       y2="-35"
       gradientTransform="matrix(2.3333371,0,0,1,1213.8197,0)" />
    <linearGradient
       id="linearGradient4270"
       inkscape:collect="always">
      <stop
         id="stop4272"
         offset="0"
         style="stop-color:#000000;stop-opacity:0.66663194" />
      <stop
         id="stop4274"
         offset="1"
         style="stop-color:#000000;stop-opacity:0;" />
    </linearGradient>
    <radialGradient
       inkscape:collect="always"
       xlink:href="#linearGradient4270"
       id="radialGradient1805"
       gradientUnits="userSpaceOnUse"
       gradientTransform="matrix(0,-1.8,1.8,0,-93.599964,1034.9623)"
       cx="77"
       cy="11.99998"
       fx="77"
       fy="11.99998"
       r="10" />
    <linearGradient
       inkscape:collect="always"
       xlink:href="#linearGradient4270"
       id="linearGradient4934"
       gradientUnits="userSpaceOnUse"
       x1="951.79071"
       y1="-35"
       x2="960.36218"
       y2="-35"
       gradientTransform="matrix(2.3333296,0,0,1,-1272.4793,0)" />
    <linearGradient
       inkscape:collect="always"
       xlink:href="#linearGradient4270"
       id="linearGradient4948"
       gradientUnits="userSpaceOnUse"
       x1="-15.571429"
       y1="932.36218"
       x2="-7.8571448"
       y2="932.36218"
       gradientTransform="matrix(2.3333338,0,0,1,17.333342,0)" />
    <radialGradient
       inkscape:collect="always"
       xlink:href="#linearGradient4270"
       id="radialGradient975"
       gradientUnits="userSpaceOnUse"
       gradientTransform="matrix(0,-1.8,1.8,0,55.400036,150.59998)"
       cx="77"
       cy="11.99998"
       fx="77"
       fy="11.99998"
       r="10" />
    <radialGradient
       inkscape:collect="always"
       xlink:href="#linearGradient4270"
       id="radialGradient983"
       gradientUnits="userSpaceOnUse"
       gradientTransform="matrix(0,-1.8,1.8,0,55.400036,150.59998)"
       cx="77"
       cy="11.99998"
       fx="77"
       fy="11.99998"
       r="10" />
    <radialGradient
       inkscape:collect="always"
       xlink:href="#linearGradient4270"
       id="radialGradient991"
       gradientUnits="userSpaceOnUse"
       gradientTransform="matrix(0,-1.8,1.8,0,55.400036,150.59998)"
       cx="77"
       cy="11.99998"
       fx="77"
       fy="11.99998"
       r="10" />
    <radialGradient
       inkscape:collect="always"
       xlink:href="#linearGradient4270"
       id="radialGradient999"
       gradientUnits="userSpaceOnUse"
       gradientTransform="matrix(0,-1.8,1.8,0,55.400036,150.59998)"
       cx="77"
       cy="11.99998"
       fx="77"
       fy="11.99998"
       r="10" />
    <radialGradient
       inkscape:collect="always"
       xlink:href="#linearGradient4270"
       id="radialGradient972"
       gradientUnits="userSpaceOnUse"
       gradientTransform="matrix(-1.8,0,0,-1.8,66.59998,949.96218)"
       cx="77"
       cy="11.99998"
       fx="77"
       fy="11.99998"
       r="10" />
    <radialGradient
       inkscape:collect="always"
       xlink:href="#linearGradient4270"
       id="radialGradient986"
       gradientUnits="userSpaceOnUse"
       gradientTransform="matrix(0,1.8,-1.8,0,-18.40002,789.76222)"
       cx="77"
       cy="11.99998"
       fx="77"
       fy="11.99998"
       r="10" />
    <radialGradient
       inkscape:collect="always"
       xlink:href="#linearGradient4270"
       id="radialGradient1000"
       gradientUnits="userSpaceOnUse"
       gradientTransform="matrix(1.8,0,0,1.8,-178.59997,874.76223)"
       cx="77"
       cy="11.99998"
       fx="77"
       fy="11.99998"
       r="10" />
    <linearGradient
       inkscape:collect="always"
       xlink:href="#linearGradient4270"
       id="linearGradient1078"
       gradientUnits="userSpaceOnUse"
       gradientTransform="matrix(2.3333338,0,0,1,16.333387,-1864.7244)"
       x1="-15.571429"
       y1="932.36218"
       x2="-7.8571448"
       y2="932.36218" />
  </defs>
  <sodipodi:namedview
     inkscape:document-rotation="0"
     fit-margin-bottom="0"
     fit-margin-right="0"
     fit-margin-left="0"
     fit-margin-top="0"
     showguides="false"
     inkscape:window-maximized="1"
     inkscape:window-y="0"
     inkscape:window-x="0"
     inkscape:window-height="995"
     inkscape:window-width="1920"
     units="mm"
     borderlayer="false"
     inkscape:showpageshadow="true"
     showgrid="false"
     inkscape:current-layer="layer1"
     inkscape:document-units="px"
     inkscape:cy="65.666667"
     inkscape:cx="87.555556"
     inkscape:zoom="2.0101523"
     inkscape:pageshadow="2"
     inkscape:pageopacity="0"
     borderopacity="1"
     bordercolor="#000000"
     pagecolor="#ffffff"
     id="base"
     inkscape:guide-bbox="true"
     inkscape:pagecheckerboard="0"
     inkscape:deskcolor="#d1d1d1"
     inkscape:lockguides="false">
    <sodipodi:guide
       position="85,62.999983"
       orientation="1,0"
       id="guide992"
       inkscape:locked="false" />
    <sodipodi:guide
       position="107,63.999983"
       orientation="1,0"
       id="guide994"
       inkscape:locked="false" />
    <sodipodi:guide
       position="69,37.999983"
       orientation="0,-1"
       id="guide998"
       inkscape:locked="false" />
    <sodipodi:guide
       position="126,59.999983"
       orientation="0,-1"
       id="guide1000"
       inkscape:locked="false" />
    <inkscape:grid
       type="xygrid"
       id="grid1971"
       spacingx="1"
       originx="0"
       originy="0"
       spacingy="1"
       units="mm"
       visible="false" />
  </sodipodi:namedview>
  <metadata
     id="metadata7">
    <rdf:RDF>
      <cc:Work
         rdf:about="">
        <dc:format>image/svg+xml</dc:format>
        <dc:type
           rdf:resource="http://purl.org/dc/dcmitype/StillImage" />
      </cc:Work>
    </rdf:RDF>
  </metadata>
  <g
     transform="translate(72,-892.36218)"
     id="layer1"
     inkscape:groupmode="layer"
     inkscape:label="Layer 1">
    <rect
       y="892.36218"
       x="116"
       height="4"
       width="4"
       id="hint-tile-center"
       style="opacity:0.01;fill:#00ffff;fill-opacity:1;stroke:none;stroke-width:0.8" />
    <g
       transform="matrix(0.375,0,0,0.375,18.875008,582.7263)"
       style="opacity:1;fill:#001621;fill-opacity:1"
       id="center">
      <rect
         style="opacity:0.7;fill:#001621;fill-opacity:1;stroke:none"
         id="rect4401"
         width="32"
         height="32"
         x="19.000004"
         y="916.36218" />
      <rect
         class="ColorScheme-Background"
         y="916.36218"
         x="19.000004"
         height="32"
         width="32"
         id="rect4138"
         style="stroke:none;fill-opacity:1;fill:#001621;opacity:1" />
    </g>
    <g
       transform="matrix(0.37500035,0,0,1.3333275,74.874977,-303.44857)"
       id="mask-top"
       style="opacity:1;fill:#002d37;fill-opacity:1">
      <rect
         y="-51"
         x="-922.36218"
         height="32.000015"
         width="11.999931"
         id="rect4265"
         style="opacity:1;fill:#002d37;fill-opacity:1;stroke:none;stroke-width:1.54919"
         transform="matrix(0,-1,-1,0,0,0)" />
    </g>
    <g
       transform="matrix(1.5999977,0,0,1.5999942,45.200028,-546.21187)"
       id="mask-topleft"
       style="opacity:1;fill:#002d37;fill-opacity:1">
      <path
         inkscape:connector-curvature="0"
         id="path4277"
         d="m 23,910.36218 c -9.374998,-8e-5 -9.999999,0.62492 -10,10 h 10 z"
         style="opacity:1;fill:#002d37;fill-opacity:1;stroke-width:2"
         sodipodi:nodetypes="cccc" />
    </g>
    <g
       transform="matrix(2.0000036,0,0,2.0000159,-4.0002045,-910.37667)"
       id="mask-topright"
       style="opacity:1;fill:#002d37;fill-opacity:1">
      <path
         inkscape:connector-curvature="0"
         id="path4287"
         d="m 49.000013,910.36218 v 7.99999 H 57 c 0,-7.49997 -0.499999,-7.99997 -7.999987,-7.99999 z"
         style="opacity:1;fill:#002d37;fill-opacity:1;stroke-width:1.6"
         sodipodi:nodetypes="cccc" />
    </g>
    <g
       transform="matrix(0.37500035,0,0,1.600003,74.874977,-572.62027)"
       id="mask-bottom"
       style="opacity:1;fill:#002d37;fill-opacity:1">
      <rect
         transform="rotate(90)"
         style="opacity:1;fill:#002d37;fill-opacity:1;stroke:none;stroke-width:1.41421"
         id="rect4291"
         width="9.9999723"
         height="32.000015"
         x="944.36224"
         y="-51" />
    </g>
    <g
       transform="matrix(1.3333288,0,0,1.3333268,48.666728,-318.11447)"
       id="mask-bottomleft"
       style="opacity:1;fill:#002d37;fill-opacity:1">
      <path
         inkscape:connector-curvature="0"
         id="path4303"
         d="m 13,942.36218 c -2e-6,11.25 0.750001,12 12,12 v -12 z"
         style="opacity:1;fill:#002d37;fill-opacity:1;stroke-width:2.40001"
         sodipodi:nodetypes="cccc" />
    </g>
    <g
       transform="matrix(1.3333336,0,0,1.3333316,33.999988,-318.11907)"
       id="mask-bottomright"
       style="opacity:1;fill:#002d37;fill-opacity:1">
      <path
         inkscape:connector-curvature="0"
         id="path4313"
         d="m 45,942.36218 v 12 c 11.249998,2e-5 11.999998,-0.74998 12,-12 z"
         style="opacity:1;fill:#002d37;fill-opacity:1;stroke-width:2.40001"
         sodipodi:nodetypes="cccc" />
    </g>
    <g
       transform="matrix(1.3333341,0,0,0.60000604,48.666648,372.93932)"
       id="mask-left"
       style="opacity:1;fill:#002d37;fill-opacity:1">
      <rect
         transform="scale(-1,1)"
         style="opacity:1;fill:#002d37;fill-opacity:1;stroke:none;stroke-width:1.22475"
         id="rect4317"
         width="11.999996"
         height="20.000069"
         x="-25"
         y="922.36218" />
    </g>
    <g
       transform="matrix(1.6000014,0,0,0.37500479,18.799936,582.72198)"
       id="mask-right"
       style="opacity:1;fill:#002d37;fill-opacity:1">
      <rect
         y="916.36218"
         x="47"
         height="32.000023"
         width="9.9999828"
         id="rect4323"
         style="opacity:1;fill:#002d37;fill-opacity:1;stroke:none;stroke-width:1.41421" />
    </g>
    <rect
       y="926.36218"
       x="82.000031"
       height="12.000025"
       width="12.000025"
       id="mask-center"
       style="opacity:1;fill:#002d37;fill-opacity:1;stroke:none;stroke-width:0.375001" />
    <g
       id="shadow-top"
       transform="translate(-70.999963,8.976e-5)">
      <rect
         transform="matrix(0,-1,-1,0,0,0)"
         style="opacity:1;fill:none;fill-opacity:1;stroke:none"
         id="rect4820"
         width="6"
         height="32"
         x="-916.36218"
         y="-50.999985" />
      <rect
         transform="matrix(0,-1,-1,0,0,0)"
         style="opacity:0.35;fill:url(#linearGradient4920);fill-opacity:1;stroke:none;stroke-width:1.52753"
         id="rect4822"
         width="14.000023"
         height="32"
         x="-910.36218"
         y="-50.999985" />
      <rect
         y="-50.999985"
         x="-911.36218"
         height="32"
         width="0.99997741"
         id="rect4824"
         style="opacity:1;fill:none;fill-opacity:1;stroke:none"
         transform="matrix(0,-1,-1,0,0,0)" />
      <rect
         y="-50.999985"
         x="-910.36218"
         height="32"
         width="1.0000226"
         id="rect907"
         style="opacity:0.01;fill:#eff0f1;fill-opacity:1;stroke:none;stroke-width:0.408253"
         transform="matrix(0,-1,-1,0,0,0)" />
    </g>
    <g
       id="shadow-topleft"
       transform="translate(20.000034,19.99999)">
      <path
         style="opacity:0.35;fill:url(#radialGradient1805);fill-opacity:1;fill-rule:evenodd;stroke:none;stroke-width:2.85714px;stroke-linecap:butt;stroke-linejoin:miter;stroke-opacity:1"
         d="m -92,876.36228 v 20 c 4.666667,10e-6 9.333333,10e-6 14,0 v -1 c 0,-2.76999 2.230013,-5 5,-5 h 1 v -14 z"
         id="path4830" />
      <rect
         ry="0.9999752"
         y="890.3623"
         x="71.999992"
         height="6.0000224"
         width="5.9999919"
         id="rect4834"
         style="fill:none;fill-opacity:1"
         transform="scale(-1,1)" />
      <rect
         ry="0"
         y="890.3623"
         x="71.999992"
         height="5.9999752"
         width="2.0000038"
         id="rect4836"
         style="fill:none;fill-opacity:1"
         transform="scale(-1,1)" />
      <rect
         y="894.3623"
         x="72.999992"
         height="2.0000248"
         width="4.9999924"
         id="rect4838"
         style="fill:none;fill-opacity:1"
         transform="scale(-1,1)" />
      <path
         style="opacity:0.01;fill:#eff0f1;fill-opacity:1;fill-rule:evenodd;stroke:none;stroke-width:1.71428px;stroke-linecap:butt;stroke-linejoin:miter;stroke-opacity:1"
         d="m -73,889.36228 c -3.323987,0 -6,2.67601 -6,6 v 1 h 1 v -1 c 0,-2.76999 2.230013,-5 5,-5 h 1 v -1 z"
         id="path898" />
    </g>
    <g
       id="shadow-bottom"
       transform="translate(-70.999963,8.976e-5)">
      <rect
         y="-50.999985"
         x="948.36218"
         height="32"
         width="6"
         id="rect4856"
         style="opacity:1;fill:none;fill-opacity:1;stroke:none"
         transform="rotate(90)" />
      <rect
         y="-50.999985"
         x="954.36218"
         height="32"
         width="13.999977"
         id="rect4858"
         style="opacity:0.35;fill:url(#linearGradient4934);fill-opacity:1;stroke:none;stroke-width:1.52752"
         transform="rotate(90)" />
      <rect
         transform="rotate(90)"
         style="opacity:1;fill:none;fill-opacity:1;stroke:none"
         id="rect4860"
         width="1.0000226"
         height="31.999971"
         x="953.36218"
         y="-50.999985" />
      <rect
         transform="rotate(90)"
         style="opacity:0.01;fill:#eff0f1;fill-opacity:1;stroke:none;stroke-width:0.408244"
         id="rect915"
         width="0.99997741"
         height="32"
         x="954.36218"
         y="-50.999985" />
    </g>
    <g
       id="shadow-left"
       transform="translate(-70.999963,8.976e-5)">
      <rect
         y="916.36218"
         x="-19.000004"
         height="32"
         width="5.9999995"
         id="rect4892"
         style="opacity:1;fill:none;fill-opacity:1;stroke:none"
         transform="scale(-1,1)" />
      <rect
         y="916.36218"
         x="-13.000002"
         height="32"
         width="14.000002"
         id="rect4894"
         style="opacity:0.35;fill:url(#linearGradient4948);fill-opacity:1;stroke:none;stroke-width:1.52753"
         transform="scale(-1,1)" />
      <rect
         transform="scale(-1,1)"
         style="opacity:1;fill:none;fill-opacity:1;stroke:none"
         id="rect4896"
         width="1.0000019"
         height="32.000023"
         x="-14.000002"
         y="916.36218" />
      <rect
         transform="scale(-1,1)"
         style="opacity:0.01;fill:#eff0f1;fill-opacity:1;stroke:none;stroke-width:0.408249"
         id="rect903"
         width="1.0000019"
         height="32"
         x="-13.000002"
         y="916.36218" />
    </g>
    <g
       id="shadow-center"
       transform="translate(-70.999963,8.976e-5)">
      <rect
         style="opacity:1;fill:none;fill-opacity:1;stroke:none"
         id="rect4908"
         width="32"
         height="32"
         x="19.000004"
         y="916.36218" />
      <rect
         y="916.36218"
         x="19.000004"
         height="32"
         width="32"
         id="rect4910"
         style="opacity:1;fill:none;fill-opacity:1;stroke:none" />
    </g>
    <g
       id="shadow-topright"
       transform="translate(20.000034,19.99999)">
      <path
         style="opacity:0.35;fill:url(#radialGradient1000);fill-opacity:1;fill-rule:evenodd;stroke:none;stroke-width:2.85714px;stroke-linecap:butt;stroke-linejoin:miter;stroke-opacity:1"
         d="m -19.99999,876.36219 h -20 c -6e-6,4.66667 -9e-6,9.33333 0,14 h 1 c 2.769987,0 5,2.23001 5,5 v 1 h 14 z"
         id="path988" />
      <rect
         ry="0.9999752"
         y="33.999992"
         x="-896.36218"
         height="6.0000224"
         width="5.9999919"
         id="rect990"
         style="fill:none;fill-opacity:1"
         transform="matrix(0,-1,-1,0,0,0)" />
      <rect
         ry="0"
         y="33.999992"
         x="-896.36218"
         height="5.9999752"
         width="2.0000038"
         id="rect992"
         style="fill:none;fill-opacity:1"
         transform="matrix(0,-1,-1,0,0,0)" />
      <rect
         y="37.999992"
         x="-895.36218"
         height="2.0000248"
         width="4.9999924"
         id="rect994"
         style="fill:none;fill-opacity:1"
         transform="matrix(0,-1,-1,0,0,0)" />
      <path
         style="opacity:0.01;fill:#eff0f1;fill-opacity:1;fill-rule:evenodd;stroke:none;stroke-width:1.71428px;stroke-linecap:butt;stroke-linejoin:miter;stroke-opacity:1"
         d="m -32.99999,895.36219 c 0,-3.32399 -2.676013,-6 -6,-6 h -1 v 1 h 1 c 2.769987,0 5,2.23001 5,5 v 1 h 1 z"
         id="path996" />
    </g>
    <g
       id="shadow-bottomleft"
       transform="translate(20.000034,19.99999)">
      <path
         style="opacity:0.35;fill:url(#radialGradient972);fill-opacity:1;fill-rule:evenodd;stroke:none;stroke-width:2.85714px;stroke-linecap:butt;stroke-linejoin:miter;stroke-opacity:1"
         d="m -92,948.36222 h 20 c 6e-6,-4.66667 9e-6,-9.33333 0,-14 h -1 c -2.769987,0 -5,-2.23001 -5,-5 v -1 h -14 z"
         id="path960" />
      <rect
         ry="0.9999752"
         y="-78"
         x="928.36218"
         height="6.0000224"
         width="5.9999919"
         id="rect962"
         style="fill:none;fill-opacity:1"
         transform="matrix(0,1,1,0,0,0)" />
      <rect
         ry="0"
         y="-78"
         x="928.36218"
         height="5.9999752"
         width="2.0000038"
         id="rect964"
         style="fill:none;fill-opacity:1"
         transform="matrix(0,1,1,0,0,0)" />
      <rect
         y="-74"
         x="929.36218"
         height="2.0000248"
         width="4.9999924"
         id="rect966"
         style="fill:none;fill-opacity:1"
         transform="matrix(0,1,1,0,0,0)" />
      <path
         style="opacity:0.01;fill:#eff0f1;fill-opacity:1;fill-rule:evenodd;stroke:none;stroke-width:1.71428px;stroke-linecap:butt;stroke-linejoin:miter;stroke-opacity:1"
         d="m -79,929.36222 c 0,3.32399 2.676013,6 6,6 h 1 v -1 h -1 c -2.769987,0 -5,-2.23001 -5,-5 v -1 h -1 z"
         id="path968" />
    </g>
    <g
       id="shadow-bottomright"
       transform="translate(20.000034,19.99999)">
      <path
         style="opacity:0.35;fill:url(#radialGradient986);fill-opacity:1;fill-rule:evenodd;stroke:none;stroke-width:2.85714px;stroke-linecap:butt;stroke-linejoin:miter;stroke-opacity:1"
         d="m -19.999984,948.3622 v -20 c -4.666667,-10e-6 -9.333333,-10e-6 -14,0 v 1 c 0,2.76999 -2.230013,5 -5,5 h -1 v 14 z"
         id="path974" />
      <rect
         ry="0.9999752"
         y="-934.36224"
         x="-39.999992"
         height="6.0000224"
         width="5.9999919"
         id="rect976"
         style="fill:none;fill-opacity:1"
         transform="scale(1,-1)" />
      <rect
         ry="0"
         y="-934.36224"
         x="-39.999992"
         height="5.9999752"
         width="2.0000038"
         id="rect978"
         style="fill:none;fill-opacity:1"
         transform="scale(1,-1)" />
      <rect
         y="-930.36224"
         x="-38.999989"
         height="2.0000248"
         width="4.9999924"
         id="rect980"
         style="fill:none;fill-opacity:1"
         transform="scale(1,-1)" />
      <path
         style="opacity:0.01;fill:#eff0f1;fill-opacity:1;fill-rule:evenodd;stroke:none;stroke-width:1.71428px;stroke-linecap:butt;stroke-linejoin:miter;stroke-opacity:1"
         d="m -38.999984,935.3622 c 3.323987,0 6,-2.67601 6,-6 v -1 h -1 v 1 c 0,2.76999 -2.230013,5 -5,5 h -1 v 1 z"
         id="path982" />
    </g>
    <g
       id="topleft"
       style="fill:#001621;fill-opacity:1">
      <path
         sodipodi:nodetypes="ccccc"
         inkscape:connector-curvature="0"
         id="rect4159"
         d="m 10.000006,926.36217 h 16 v -15.99994 0 c -15.000005,-2e-5 -16.000005,0.99998 -16,15.99994 z"
         style="fill:#001621;fill-opacity:1;stroke:none;stroke-width:2.66666"
         class="ColorScheme-Background" />
      <path
         id="path904"
         style="color:#3daee9;isolation:auto;mix-blend-mode:normal;solid-color:#000000;fill:#12456d;fill-opacity:0.90196079;stroke-width:3.99999;color-rendering:auto;image-rendering:auto;shape-rendering:auto;stop-color:#3daee9;opacity:0.2"
         d="M 25.999973,910.36197 C 11,910.3622 10,911.3622 9.9999859,926.36197 H 10.8 C 11,911.86218 11.6,911.36218 26,911.16218 Z"
         sodipodi:nodetypes="ccccc"
         class="ColorScheme-Highlight" />
    </g>
    <g
       id="top"
       style="fill:#001621;fill-opacity:1">
      <rect
         class="ColorScheme-Background"
         transform="matrix(0,-1,-1,0,0,0)"
         style="fill:#001621;fill-opacity:1;stroke:none;stroke-width:0.999998"
         id="rect4152"
         width="15.999939"
         height="12"
         x="-926.36224"
         y="-37.999989" />
      <path
         d="M 38,910.36218 H 26 v 0.8 h 12 z"
         id="path945"
         inkscape:connector-curvature="0"
         style="color:#3daee9;fill:#12456d;fill-opacity:0.90196079;stroke-width:0.22857;stop-color:#3daee9;opacity:0.2"
         sodipodi:nodetypes="ccccc"
         class="ColorScheme-Highlight" />
    </g>
    <g
       id="topright"
       style="fill:#001621;fill-opacity:1">
      <path
         sodipodi:nodetypes="cccc"
         inkscape:connector-curvature="0"
         id="rect4177"
         d="m 38.000008,910.36223 v 15.99994 h 16 C 54,911.36221 53,910.36221 38.000008,910.36223 Z"
         style="fill:#001621;fill-opacity:1;stroke:none;stroke-width:2.66666"
         class="ColorScheme-Background" />
      <path
         id="path904-3"
         style="color:#3daee9;isolation:auto;mix-blend-mode:normal;solid-color:#000000;fill:#12456d;fill-opacity:0.90196079;stroke-width:3.99999;color-rendering:auto;image-rendering:auto;shape-rendering:auto;stop-color:#3daee9;opacity:0.2"
         d="M 54,926.36217 C 53.99977,911.3622 52.99977,910.3622 38,910.36218 v 0.80002 c 14.49979,0.2 14.99979,0.8 15.19979,15.2 z"
         sodipodi:nodetypes="ccccc"
         class="ColorScheme-Highlight" />
    </g>
    <g
       id="bottom"
       style="fill:#001621;fill-opacity:1">
      <rect
         class="ColorScheme-Background"
         y="-38"
         x="938.36218"
         height="12"
         width="15.999939"
         id="rect4148"
         style="fill:#001621;fill-opacity:1;stroke:none;stroke-width:0.999998"
         transform="rotate(90)" />
      <path
         d="M 38,953.56218 H 26 v 0.8 h 12 z"
         id="path945-5"
         inkscape:connector-curvature="0"
         style="color:#3daee9;fill:#12456d;fill-opacity:0.90196079;stroke-width:0.22857;stop-color:#3daee9;opacity:0.2"
         sodipodi:nodetypes="ccccc"
         class="ColorScheme-Highlight" />
    </g>
    <g
       id="right"
       style="fill:#001621;fill-opacity:1">
      <rect
         class="ColorScheme-Background"
         style="fill:#001621;fill-opacity:1;stroke:none"
         id="rect4140"
         width="16"
         height="12"
         x="37.999992"
         y="926.36212" />
      <path
         d="m 54,938.36218 v -12 h -0.8 v 12 z"
         id="path945-5-3"
         inkscape:connector-curvature="0"
         style="color:#3daee9;fill:#12456d;fill-opacity:0.90196079;stroke-width:0.22857;stop-color:#3daee9;opacity:0.2"
         sodipodi:nodetypes="ccccc"
         class="ColorScheme-Highlight" />
    </g>
    <g
       id="left"
       style="fill:#001621;fill-opacity:1">
      <rect
         class="ColorScheme-Background"
         y="926.36218"
         x="-26"
         height="12"
         width="16"
         id="rect4144"
         style="fill:#001621;fill-opacity:1;stroke:none"
         transform="scale(-1,1)" />
      <path
         d="m 10.8,938.36218 v -12 H 10 v 12 z"
         id="path945-5-3-5"
         inkscape:connector-curvature="0"
         style="color:#3daee9;fill:#12456d;fill-opacity:0.90196079;stroke-width:0.22857;stop-color:#3daee9;opacity:0.2"
         sodipodi:nodetypes="ccccc"
         class="ColorScheme-Highlight" />
    </g>
    <g
       id="shadow-right">
      <rect
         y="-948.36224"
         x="-19.999958"
         height="32"
         width="5.9999995"
         id="rect4892-6"
         style="fill:none;fill-opacity:1;stroke:none"
         transform="scale(1,-1)" />
      <rect
         y="-948.36224"
         x="-13.999957"
         height="32"
         width="14.000002"
         id="rect4894-2"
         style="opacity:0.35;fill:url(#linearGradient1078);fill-opacity:1;stroke:none;stroke-width:1.52753"
         transform="scale(1,-1)" />
      <rect
         transform="scale(1,-1)"
         style="fill:none;fill-opacity:1;stroke:none"
         id="rect4896-9"
         width="1.0000019"
         height="32.000023"
         x="-14.999957"
         y="-948.36224" />
      <rect
         transform="scale(1,-1)"
         style="opacity:0.01;fill:#eff0f1;fill-opacity:1;stroke:none;stroke-width:0.408249"
         id="rect903-1"
         width="1.0000019"
         height="32"
         x="-13.999957"
         y="-948.36224" />
    </g>
    <g
       id="bottomright"
       style="fill:#001621;fill-opacity:1">
      <path
         sodipodi:nodetypes="cccc"
         inkscape:connector-curvature="0"
         style="fill:#001621;fill-opacity:1;stroke:none;stroke-width:2.66666"
         d="m 38.000008,954.36221 v -15.99994 h 16 C 54,953.36221 53,954.36221 38.000008,954.36221 Z"
         id="rect4177-6"
         class="ColorScheme-Background" />
      <path
         id="path904-3-3"
         style="color:#3daee9;opacity:0.2;isolation:auto;mix-blend-mode:normal;solid-color:#000000;fill:#12456d;fill-opacity:0.90196079;stroke-width:3.99999;color-rendering:auto;image-rendering:auto;shape-rendering:auto;stop-color:#3daee9"
         d="m 38.00001,954.36218 c 14.99997,-2.3e-4 15.99997,-1.00023 15.99999,-16 h -0.80002 c -0.2,14.49979 -0.8,14.99979 -15.2,15.19979 z"
         sodipodi:nodetypes="ccccc"
         class="ColorScheme-Highlight" />
    </g>
    <g
       id="bottomleft"
       style="fill:#001621;fill-opacity:1">
      <path
         sodipodi:nodetypes="cccc"
         id="path5048"
         d="m 26.000006,954.36221 v -15.99994 h -16 c -5e-6,14.99994 0.999995,15.99994 16,15.99994 z"
         style="fill:#001621;fill-opacity:1;stroke:none;stroke-width:2.66666"
         inkscape:connector-curvature="0"
         class="ColorScheme-Background" />
      <path
         id="path904-3-3-6"
         style="color:#3daee9;opacity:0.2;isolation:auto;mix-blend-mode:normal;solid-color:#000000;fill:#12456d;fill-opacity:0.90196079;stroke-width:3.99999;color-rendering:auto;image-rendering:auto;shape-rendering:auto;stop-color:#3daee9"
         d="m 10,938.3622 c 2.3e-4,14.99996 1.00023,15.99996 16,15.99999 v -0.80002 c -14.49979,-0.20001 -14.99979,-0.8 -15.19979,-15.20001 z"
         sodipodi:nodetypes="ccccc"
         class="ColorScheme-Highlight" />
    </g>
    <rect
       id="shadow-hint-top-margin"
       height="10"
       style="fill:#ff00ff"
       width="2"
       x="-39.25"
       y="802.36218" />
    <rect
       id="shadow-hint-bottom-margin"
       height="10"
       style="fill:#ff00ff"
       width="2"
       x="-39.25"
       y="856.36218" />
    <rect
       id="shadow-hint-top-inset"
       height="10"
       style="fill:#00ff00"
       width="2"
       x="-35.25"
       y="802.36218" />
    <rect
       id="shadow-hint-bottom-inset"
       height="10"
       style="fill:#00ff00"
       width="2"
       x="-35.25"
       y="856.36218" />
    <rect
       id="shadow-hint-right-margin"
       height="2"
       style="fill:#ff00ff"
       width="10"
       x="-17"
       y="833.61218" />
    <rect
       id="shadow-hint-left-margin"
       height="2"
       style="fill:#ff00ff"
       width="10"
       x="-71"
       y="829.61218" />
    <rect
       id="shadow-hint-right-inset"
       height="2"
       style="fill:#00ff00"
       width="10"
       x="-17"
       y="829.61218" />
    <rect
       id="shadow-hint-left-inset"
       height="2"
       style="fill:#00ff00"
       width="10"
       x="-71"
       y="833.61218" />
    <rect
       id="hint-top-margin"
       height="4"
       style="fill:#ff00ff;stroke-width:0.999996"
       width="4"
       x="29.25"
       y="806.36218" />
    <rect
       id="hint-bottom-margin"
       height="4"
       style="fill:#ff00ff;stroke-width:0.999996"
       width="4"
       x="29.25"
       y="846.36218" />
    <rect
       id="hint-top-inset"
       height="9.9999999e-09"
       style="fill:#00ff00"
       width="4"
       x="29.25"
       y="806.36218" />
    <rect
       id="hint-bottom-inset"
       height="9.9999999e-09"
       style="fill:#00ff00"
       width="4"
       x="29.25"
       y="850.36218" />
    <rect
       id="hint-right-margin"
       height="4"
       style="fill:#ff00ff;stroke-width:0.999996"
       width="4"
       x="48.5"
       y="826.11218" />
    <rect
       id="hint-left-margin"
       height="4"
       style="fill:#ff00ff;stroke-width:0.999996"
       width="4"
       x="8.5"
       y="826.11218" />
    <rect
       id="hint-left-inset"
       height="4"
       style="fill:#00ff00"
       width="9.9999999e-09"
       x="8.5"
       y="826.11218" />
    <rect
       id="hint-right-inset"
       height="4"
       style="fill:#00ff00"
       width="9.9999999e-09"
       x="52.5"
       y="826.11218" />
    <rect
       style="color:#eff0f1;fill:currentColor;fill-opacity:1;stroke:none;stop-color:#eff0f1"
       id="thick-center"
       width="32"
       height="32"
       x="152"
       y="914.86218"
       class="ColorScheme-Background" />
    <rect
       transform="rotate(90)"
       style="fill:#800080;fill-opacity:1;stroke:none;stroke-width:1.1547"
       id="thick-hint-right-margin"
       width="4"
       height="8"
       x="934.86218"
       y="-189" />
    <rect
       transform="rotate(90)"
       y="-153"
       x="934.86218"
       height="8"
       width="4"
       id="thick-hint-left-margin"
       style="fill:#800080;fill-opacity:1;stroke:none;stroke-width:1.1547" />
    <rect
       y="908.86218"
       x="171"
       height="8"
       width="4"
       id="thick-hint-top-margin"
       style="fill:#800080;fill-opacity:1;stroke:none;stroke-width:1.1547" />
    <rect
       style="fill:#800080;fill-opacity:1;stroke:none;stroke-width:1.1547"
       id="thick-hint-bottom-margin"
       width="4"
       height="8"
       x="172"
       y="944.86218" />
  </g>
</svg>
