<?xml version="1.0" encoding="UTF-8" standalone="no"?>
<svg
   width="32"
   height="32"
   version="1.1"
   id="svg12"
   sodipodi:docname="konv_message.svg"
   inkscape:version="1.1.2 (0a00cf5339, 2022-02-04)"
   xmlns:inkscape="http://www.inkscape.org/namespaces/inkscape"
   xmlns:sodipodi="http://sodipodi.sourceforge.net/DTD/sodipodi-0.dtd"
   xmlns="http://www.w3.org/2000/svg"
   xmlns:svg="http://www.w3.org/2000/svg"
   xmlns:rdf="http://www.w3.org/1999/02/22-rdf-syntax-ns#"
   xmlns:cc="http://creativecommons.org/ns#"
   xmlns:dc="http://purl.org/dc/elements/1.1/">
  <metadata
     id="metadata18">
    <rdf:RDF>
      <cc:Work
         rdf:about="">
        <dc:format>image/svg+xml</dc:format>
        <dc:type
           rdf:resource="http://purl.org/dc/dcmitype/StillImage" />
      </cc:Work>
    </rdf:RDF>
  </metadata>
  <defs
     id="defs16" />
  <sodipodi:namedview
     pagecolor="#ffffff"
     bordercolor="#666666"
     borderopacity="1"
     objecttolerance="10"
     gridtolerance="10"
     guidetolerance="10"
     inkscape:pageopacity="0"
     inkscape:pageshadow="2"
     inkscape:window-width="1920"
     inkscape:window-height="1007"
     id="namedview14"
     showgrid="false"
     inkscape:zoom="9.8125003"
     inkscape:cx="10.955414"
     inkscape:cy="20.280254"
     inkscape:window-x="0"
     inkscape:window-y="0"
     inkscape:window-maximized="1"
     inkscape:current-layer="svg12"
     inkscape:document-rotation="0"
     inkscape:pagecheckerboard="0"
     inkscape:lockguides="false">
    <inkscape:grid
       type="xygrid"
       id="grid834"
       originx="0"
       originy="0" />
  </sodipodi:namedview>
  <g
     id="22-22-konv_message"
     transform="translate(32,10)">
    <rect
       style="opacity:0.00100002"
       width="22"
       height="22"
       x="0"
       y="0"
       id="rect2" />
    <circle
       fill="none"
       stroke-width="0.583122"
       stroke-linecap="round"
       stroke-linejoin="round"
       stroke-miterlimit="10"
       cx="7.0026898"
       cy="10.002689"
       r="0.91112864"
       id="circle8-5"
       style="stroke:#00cdff;stroke-opacity:1" />
    <circle
       fill="none"
       stroke-width="0.583122"
       stroke-linecap="round"
       stroke-linejoin="round"
       stroke-miterlimit="10"
       cx="11.023991"
       cy="10.002689"
       r="0.91112864"
       id="circle10-6"
       style="stroke:#00cdff;stroke-opacity:1" />
    <circle
       fill="none"
       stroke-width="0.583122"
       stroke-linecap="round"
       stroke-linejoin="round"
       stroke-miterlimit="10"
       cx="15.045293"
       cy="10.002689"
       r="0.91112864"
       id="circle12-2"
       style="stroke:#00cdff;stroke-opacity:1" />
    <path
       fill="none"
       stroke-width="0.998289"
       stroke-linecap="round"
       stroke-linejoin="round"
       stroke-miterlimit="10"
       d="m 18.500856,5.4424315 v 8.1937235 c 0,0.520965 -0.462709,0.874422 -1.032919,0.857425 H 10.299255 L 6.4681726,17.500909 V 14.49358 L 4.5320617,14.493132 C 3.961597,14.493 3.4991445,14.056306 3.4991445,13.535341 V 5.4424315 c 0,-0.520962 0.4624525,-0.943287 1.0329172,-0.943287 H 17.467937 c 0.570465,0 1.032919,0.422325 1.032919,0.943287 z"
       id="path2-5"
       style="stroke:#00cdff;stroke-opacity:1"
       sodipodi:nodetypes="ssscccssssss" />
  </g>
  <g
     id="konv_message">
    <rect
       style="opacity:0.00100002"
       width="32"
       height="32"
       x="0"
       y="0"
       id="rect7" />
    <circle
       fill="none"
       stroke-width="0.957987"
       stroke-linecap="round"
       stroke-linejoin="round"
       stroke-miterlimit="10"
       cx="9.3734283"
       cy="12.975848"
       id="circle8"
       style="stroke:#00cdff;stroke-opacity:1"
       r="1.4968543" />
    <circle
       fill="none"
       stroke-width="0.957987"
       stroke-linecap="round"
       stroke-linejoin="round"
       stroke-miterlimit="10"
       cx="15.979853"
       cy="12.975848"
       r="1.4968543"
       id="circle10"
       style="stroke:#00cdff;stroke-opacity:1" />
    <circle
       fill="none"
       stroke-width="0.957987"
       stroke-linecap="round"
       stroke-linejoin="round"
       stroke-miterlimit="10"
       cx="22.586277"
       cy="12.975848"
       r="1.4968543"
       id="circle12"
       style="stroke:#00cdff;stroke-opacity:1" />
    <path
       d="M 5,27.999999 V 23 H 3.927868 C 2.826229,23 2,21.868612 2,20.817517 V 5.839416 C 2,4.788321 2.826229,4 3.927868,4 H 28.072133 C 29.173768,4 30,4.788321 30,5.839416 V 20.817517 C 30,21.868612 29.173475,23.025406 28.072133,23 H 13.199999 Z M 3.927868,5 C 3.652459,5 3,5 3,5.839416 V 20.918 C 3,21.180774 3.382824,22 3.927868,22 H 6 12.740987 v 0 H 27.980329 C 28.595321,22 29,21.180774 29,20.918 V 5.839416 C 29,5 28.255402,5 27.98,5 Z"
       id="path2-367"
       style="fill:#00cdff;fill-opacity:1;stroke-width:0.896726"
       sodipodi:nodetypes="ccssssssssccsssscccsssss" />
  </g>
</svg>
