<?xml version="1.0" encoding="UTF-8" standalone="no"?>
<svg
   width="32"
   height="32"
   version="1.1"
   id="svg12"
   sodipodi:docname="TeamViewer.svg"
   inkscape:version="1.1.2 (0a00cf5339, 2022-02-04)"
   xmlns:inkscape="http://www.inkscape.org/namespaces/inkscape"
   xmlns:sodipodi="http://sodipodi.sourceforge.net/DTD/sodipodi-0.dtd"
   xmlns="http://www.w3.org/2000/svg"
   xmlns:svg="http://www.w3.org/2000/svg"
   xmlns:rdf="http://www.w3.org/1999/02/22-rdf-syntax-ns#"
   xmlns:cc="http://creativecommons.org/ns#"
   xmlns:dc="http://purl.org/dc/elements/1.1/">
  <g
     id="22-22-TeamViewer"
     transform="translate(32,10.000001)">
    <rect
       style="opacity:0.00100002"
       width="22"
       height="22"
       x="0"
       y="-4.6325681e-08"
       id="rect2" />
    <path
       d="m 12.340602,6.628971 c -0.09042,0.04966 -0.146603,0.144598 -0.146603,0.247759 V 7.538495 H 9.736901 V 6.876703 c 0,-0.103134 -0.05627,-0.198102 -0.14661,-0.24776 -0.09041,-0.04964 -0.200672,-0.04607 -0.28773,0.0092 L 6.463082,8.443908 c -0.08156,0.05189 -0.130964,0.141856 -0.130964,0.238493 0,0.09663 0.04937,0.186624 0.130964,0.238488 l 2.839479,1.805765 c 0.08707,0.05531 0.197283,0.05884 0.28773,0.0092 0.09042,-0.04967 0.14661,-0.144599 0.14661,-0.247761 V 9.826352 h 2.457098 v 0.661781 c 0,0.103134 0.05625,0.198099 0.146603,0.247762 0.04245,0.0233 0.08925,0.03487 0.136039,0.03487 0.05279,0 0.105496,-0.01477 0.15168,-0.04414 l 2.839488,-1.805764 c 0.08157,-0.0519 0.130967,-0.141857 0.130967,-0.238486 0,-0.09664 -0.04937,-0.186625 -0.130967,-0.238488 L 12.628321,6.63814 C 12.541261,6.58291 12.431025,6.57935 12.340602,6.62904 Z m 0.418664,1.192134 V 7.391384 l 2.030159,1.291083 -2.030159,1.291084 V 9.543832 c 0,-0.156073 -0.126525,-0.282638 -0.282625,-0.282638 H 9.45428 c -0.156092,0 -0.282621,0.126565 -0.282621,0.282638 V 9.973551 L 7.141495,8.682467 9.171658,7.391384 v 0.429721 c 0,0.156071 0.12653,0.282635 0.282621,0.282635 h 3.022384 c 0.156078,0 0.282603,-0.126536 0.282603,-0.282635 z"
       id="path8-3"
       style="fill:#c8e0e7;fill-opacity:1;stroke-width:0.0282639" />
    <path
       sodipodi:nodetypes="cccccccccccccccccccc"
       inkscape:connector-curvature="0"
       class="ColorScheme-Text"
       d="M 6,17.999999 H 16 L 16.000029,19 H 6.0000142 Z m 3,-2 h 4 v 2 H 9 Z M 1,3 V 15.999999 H 21 V 3 Z m 1,0.999999 h 18 v 10 H 2 Z"
       style="fill:#c8e0e7;fill-opacity:1;stroke:none;stroke-width:0.970155"
       id="rect7235-6" />
  </g>
  <metadata
     id="metadata18">
    <rdf:RDF>
      <cc:Work
         rdf:about="">
        <dc:format>image/svg+xml</dc:format>
        <dc:type
           rdf:resource="http://purl.org/dc/dcmitype/StillImage" />
      </cc:Work>
    </rdf:RDF>
  </metadata>
  <defs
     id="defs16" />
  <sodipodi:namedview
     pagecolor="#ffffff"
     bordercolor="#666666"
     borderopacity="1"
     objecttolerance="10"
     gridtolerance="10"
     guidetolerance="10"
     inkscape:pageopacity="0"
     inkscape:pageshadow="2"
     inkscape:window-width="1920"
     inkscape:window-height="1003"
     id="namedview14"
     showgrid="false"
     inkscape:zoom="6.9384853"
     inkscape:cx="34.229373"
     inkscape:cy="14.700615"
     inkscape:window-x="0"
     inkscape:window-y="0"
     inkscape:window-maximized="1"
     inkscape:current-layer="svg12"
     inkscape:document-rotation="0"
     inkscape:pagecheckerboard="0">
    <inkscape:grid
       type="xygrid"
       id="grid864"
       originx="0"
       originy="0" />
  </sodipodi:namedview>
  <g
     id="TeamViewer">
    <rect
       style="opacity:0.00100002"
       width="32"
       height="32"
       x="0"
       y="0"
       id="rect7" />
    <path
       d="m 18.01273,9.452369 c -0.135618,0.07448 -0.219901,0.216896 -0.219901,0.371639 v 0.992647 H 14.107171 V 9.823967 c 0,-0.154702 -0.08428,-0.297154 -0.219902,-0.37164 -0.135623,-0.07446 -0.30101,-0.06911 -0.431589,0.01385 L 9.19646,12.174825 C 9.074108,12.252665 9,12.387609 9,12.532565 c 0,0.144946 0.07411,0.279936 0.19646,0.357732 l 4.25922,2.708647 c 0.130539,0.08297 0.295923,0.08827 0.431589,0.01385 0.135619,-0.0745 0.219902,-0.216898 0.219902,-0.371642 v -0.992643 h 3.685658 v 0.992645 c 0,0.154702 0.08428,0.297148 0.219901,0.371642 0.06367,0.03496 0.133928,0.05231 0.204049,0.05231 0.07919,0 0.158267,-0.02215 0.227541,-0.06621 l 4.259218,-2.70865 C 22.82589,12.812406 22.9,12.67746 22.9,12.532516 c 0,-0.144955 -0.07411,-0.279937 -0.196462,-0.357732 L 18.44432,9.466134 c -0.13058,-0.08284 -0.295965,-0.08818 -0.43159,-0.01375 z m 0.628006,1.7882 v -0.644582 l 3.045223,1.936625 -3.045223,1.936627 v -0.64458 c 0,-0.23411 -0.189805,-0.423956 -0.423957,-0.423956 h -4.533521 c -0.234148,0 -0.42395,0.189846 -0.42395,0.423956 v 0.64458 l -3.045229,-1.936627 3.045228,-1.936625 v 0.644582 c 0,0.234106 0.189803,0.423953 0.42395,0.423953 h 4.533571 c 0.234103,0 0.423908,-0.189804 0.423908,-0.423953 z"
       id="path8"
       style="fill:#c8e0e7;fill-opacity:1;stroke-width:0.0423957" />
    <path
       sodipodi:nodetypes="cccccccccccccccccccc"
       inkscape:connector-curvature="0"
       class="ColorScheme-Text"
       d="m 9,27 h 14 v 1 H 9.0530146 Z m 4.014056,-3.007425 h 5.995039 L 19,27 H 13 Z M 2,4.0089101 2.0231508,23.992575 H 30 V 4 Z M 3.022324,4.9996288 H 29.000827 V 19.99406 H 3.022324 Z"
       style="fill:#c8e0e7;fill-opacity:1;stroke:none;stroke-width:1.41089"
       id="rect7235" />
  </g>
</svg>
