<?xml version="1.0" encoding="UTF-8" standalone="no"?>
<svg
   sodipodi:docname="update.svg"
   inkscape:version="1.1.2 (0a00cf5339, 2022-02-04)"
   id="svg846"
   version="1.1"
   viewBox="0 0 5.8208332 5.8208335"
   height="22"
   width="22"
   xmlns:inkscape="http://www.inkscape.org/namespaces/inkscape"
   xmlns:sodipodi="http://sodipodi.sourceforge.net/DTD/sodipodi-0.dtd"
   xmlns="http://www.w3.org/2000/svg"
   xmlns:svg="http://www.w3.org/2000/svg"
   xmlns:rdf="http://www.w3.org/1999/02/22-rdf-syntax-ns#"
   xmlns:cc="http://creativecommons.org/ns#"
   xmlns:dc="http://purl.org/dc/elements/1.1/">
  <defs
     id="defs840" />
  <sodipodi:namedview
     inkscape:document-rotation="0"
     inkscape:snap-midpoints="true"
     inkscape:object-paths="true"
     inkscape:snap-intersection-paths="true"
     inkscape:snap-smooth-nodes="true"
     inkscape:window-maximized="1"
     inkscape:window-y="0"
     inkscape:window-x="0"
     inkscape:window-height="1015"
     inkscape:window-width="1920"
     units="px"
     showgrid="false"
     inkscape:current-layer="layer1"
     inkscape:document-units="px"
     inkscape:cy="42.490128"
     inkscape:cx="78.287672"
     inkscape:zoom="3.2125109"
     inkscape:pageshadow="2"
     inkscape:pageopacity="0.0"
     borderopacity="1"
     bordercolor="#000000"
     pagecolor="#ffffff"
     id="base"
     inkscape:lockguides="false"
     inkscape:pagecheckerboard="0"
     inkscape:showpageshadow="false">
    <inkscape:grid
       id="grid1394"
       type="xygrid"
       originx="3.1999998e-06"
       originy="2.2516407e-05" />
  </sodipodi:namedview>
  <metadata
     id="metadata843">
    <rdf:RDF>
      <cc:Work
         rdf:about="">
        <dc:format>image/svg+xml</dc:format>
        <dc:type
           rdf:resource="http://purl.org/dc/dcmitype/StillImage" />
      </cc:Work>
    </rdf:RDF>
  </metadata>
  <style
     type="text/css"
     id="current-color-scheme">
      .ColorScheme-Text {
        color:#7B7C7E;
      }
      .ColorScheme-Background{
        color:#EFF0F1;
      }
      .ColorScheme-Highlight{
        color:#3DAEE6;
      }
      .ColorScheme-ViewText {
        color:#7B7C7E;
      }
      .ColorScheme-ViewBackground{
        color:#FCFCFC;
      }
      .ColorScheme-ViewHover {
        color:#3DAEE6;
      }
      .ColorScheme-ViewFocus{
        color:#1E92FF;
      }
      .ColorScheme-ButtonText {
        color:#7B7C7E;
      }
      .ColorScheme-ButtonBackground{
        color:#EFF0F1;
      }
      .ColorScheme-ButtonHover {
        color:#3DAEE6;
      }
      .ColorScheme-ButtonFocus{
        color:#1E92FF;
      }
     .ColorScheme-NegativeText {
            color:#da4453;
        }
      .ColorScheme-NeutralText {
        color:#f67400;
      }
</style>
  <g
     transform="translate(0,-291.17914)"
     id="layer1"
     inkscape:groupmode="layer"
     inkscape:label="Layer 1">
    <g
       id="22-22-update-none">
      <rect
         style="opacity:0.003;fill:#000000;fill-opacity:1;stroke:none;stroke-width:0.10795;stroke-miterlimit:4;stroke-dasharray:none;stroke-opacity:1"
         id="rect1396"
         width="5.8208332"
         height="5.8208332"
         x="0"
         y="291.17914"
         ry="1.2988289e-06" />
      <path
         d="m 4.3357173,292.61835 0.9113638,0.46358 -0.2753727,0.13505 c 0.1135015,0.26819 0.1771964,0.56272 0.1771964,0.87257 0,1.24182 -1.0066667,2.24896 -2.2489567,2.24896 -0.3979734,0 -0.7715224,-0.1044 -1.0957438,-0.28591 l 0.2274818,-0.22748 c 0.2614843,0.13122 0.5555344,0.20689 0.868262,0.20689 1.0727562,0 1.941976,-0.8697 1.941976,-1.94198 0,-0.28782 -0.066568,-0.55888 -0.179112,-0.80456 z m -1.4665676,0.47724 z m 0,0 z m 0.031277,-0.94849 c -1.0727561,0 -1.94197598,0.8697 -1.94197598,1.94245 0,0.28783 0.0665684,0.55889 0.17911198,0.80457 l 0.3275737,0.66664 -0.91136378,-0.46358 0.27537268,-0.13505 c -0.11350144,-0.26819 -0.17719633,-0.56272 -0.17719633,-0.87258 -4.7891e-4,-1.24181 1.00666673,-2.24895 2.24847773,-2.24895 0.3979734,0 0.7715224,0.1044 1.0957438,0.28591 L 3.768689,292.35399 C 3.5072047,292.22277 3.2126757,292.1471 2.9004267,292.1471 Z"
         id="path4"
         sodipodi:nodetypes="cccssccsscccccccccccccccccccccccccccsscccccscc"
         style="fill:#c8e0e7;fill-opacity:1;stroke-width:0.00478909" />
      <path
         d="m 1.839074,294.11627 0.450101,-3e-5 v 1.09754 c 0,0.0367 0.029496,0.0663 0.066146,0.0663 h 0.7572928 c 0.03665,0 0.066357,-0.0562 0.066357,-0.0928 0,-0.0367 -0.029854,-0.0962 -0.066357,-0.0929 H 2.5275842 v -1.04453 c 0,-0.0366 -0.029706,-0.0663 -0.066357,-0.0663 H 2.105025 l 0.8187662,-0.81877 0.8187401,0.81877 H 3.3863538 c -0.03665,0 -0.066355,0.0297 -0.066355,0.0663 v 1.16392 c 0,0.0367 0.08267,0.0663 0.11932,0.0663 0.03665,0 0.119327,-0.0297 0.119327,-0.0663 v -1.09755 l 0.4498639,2e-5 c 0.02683,0 0.051014,-0.0162 0.061286,-0.0409 0.010271,-0.0248 0.00459,-0.0533 -0.014391,-0.0723 L 2.970687,292.91836 c -0.025877,-0.0259 -0.067913,-0.0259 -0.093817,0 l -1.0847172,1.08471 c -0.018985,0.019 -0.024663,0.0474 -0.014391,0.0722 0.010271,0.0248 0.034458,0.041 0.061312,0.041 z"
         id="path2"
         style="fill:#c8e0e7;fill-opacity:1;stroke-width:0.026405"
         sodipodi:nodetypes="ccssssscsscccssssscscccccsc" />
    </g>
    <g
       id="22-22-update-high">
      <rect
         style="opacity:0.003;fill:#000000;fill-opacity:1;stroke:none;stroke-width:0.10795;stroke-miterlimit:4;stroke-dasharray:none;stroke-opacity:1"
         id="rect1396-3"
         width="5.8208332"
         height="5.8208332"
         x="5.8208332"
         y="291.17914"
         ry="1.2988288e-06" />
      <path
         d="m 10.16978,292.61835 0.911363,0.46358 -0.275372,0.13505 c 0.113501,0.26819 0.177196,0.56272 0.177196,0.87257 0,1.24182 -1.0066663,2.24896 -2.2489563,2.24896 -0.3979734,0 -0.7715223,-0.1044 -1.0957437,-0.28591 l 0.2274818,-0.22748 c 0.2614842,0.13122 0.5555344,0.20689 0.8682619,0.20689 1.0727562,0 1.9419763,-0.8697 1.9419763,-1.94198 0,-0.28782 -0.06657,-0.55888 -0.179112,-0.80456 z m -1.4665677,0.47724 z m 0,0 z m 0.031277,-0.94849 c -1.072756,0 -1.9419759,0.8697 -1.9419759,1.94245 0,0.28783 0.066568,0.55889 0.179112,0.80457 l 0.3275737,0.66664 -0.9113638,-0.46358 0.2753727,-0.13505 c -0.1135015,-0.26819 -0.1771964,-0.56272 -0.1771964,-0.87258 -4.789e-4,-1.24181 1.0066668,-2.24895 2.2484777,-2.24895 0.3979734,0 0.7715225,0.1044 1.0957437,0.28591 l -0.2274813,0.22748 C 9.3412674,292.22277 9.0467383,292.1471 8.7344893,292.1471 Z"
         id="path4-3"
         sodipodi:nodetypes="cccssccsscccccccccccccccccccccccccccsscccccscc"
         style="fill:#c8e0e7;fill-opacity:1;stroke-width:0.00478909" />
      <path
         d="m 7.6599075,294.11631 h 0.4501009 v 1.0975 c 0,0.0367 0.029496,0.0663 0.066146,0.0663 h 0.7572902 c 0.03665,0 0.066356,-0.0562 0.066356,-0.0928 0,-0.0367 -0.029705,-0.0929 -0.066356,-0.0929 H 8.3484162 v -1.0445 c 0,-0.0366 -0.029706,-0.0663 -0.066356,-0.0663 H 7.9258584 l 0.818764,-0.8188 0.8187422,0.8188 H 9.207184 c -0.03665,0 -0.066356,0.0297 -0.066356,0.0663 v 1.16385 c 0,0.0367 0.082674,0.0664 0.1193241,0.0664 0.03665,0 0.1193271,-0.0297 0.1193271,-0.0664 v -1.09752 h 0.4498583 c 0.026827,0 0.051014,-0.0162 0.061286,-0.0409 0.010271,-0.0248 0.00459,-0.0533 -0.014391,-0.0723 l -1.0847152,-1.08471 c -0.025877,-0.0259 -0.067913,-0.0259 -0.093817,0 l -1.0847148,1.08471 c -0.018985,0.019 -0.024662,0.0475 -0.014391,0.0723 0.010271,0.0248 0.034458,0.0409 0.061312,0.0409 z"
         id="path2-6"
         style="fill:#ff557f;fill-opacity:1;stroke-width:0.0264049"
         sodipodi:nodetypes="ccssssscsscccssssscscccccscc" />
    </g>
    <g
       id="22-22-update-medium">
      <g
         id="g1011">
        <rect
           style="opacity:0.003;fill:#000000;fill-opacity:1;stroke:none;stroke-width:0.10795;stroke-miterlimit:4;stroke-dasharray:none;stroke-opacity:1"
           id="rect1396-3-1"
           width="5.8208332"
           height="5.8208332"
           x="11.641666"
           y="291.17914"
           ry="1.2988288e-06" />
        <path
           d="m 16.00384,292.61835 0.911363,0.46358 -0.275372,0.13505 c 0.113501,0.26819 0.177196,0.56272 0.177196,0.87257 0,1.24182 -1.006667,2.24896 -2.248957,2.24896 -0.397973,0 -0.771522,-0.1044 -1.095743,-0.28591 l 0.227481,-0.22748 c 0.261485,0.13122 0.555535,0.20689 0.868262,0.20689 1.072757,0 1.941976,-0.8697 1.941976,-1.94198 0,-0.28782 -0.06657,-0.55888 -0.179111,-0.80456 z m -1.466568,0.47724 z m 0,0 z m 0.03128,-0.94849 c -1.072756,0 -1.941976,0.8697 -1.941976,1.94245 0,0.28783 0.06657,0.55889 0.179112,0.80457 l 0.327574,0.66664 -0.911364,-0.46358 0.275373,-0.13505 c -0.113502,-0.26819 -0.177197,-0.56272 -0.177197,-0.87258 -4.79e-4,-1.24181 1.006667,-2.24895 2.248478,-2.24895 0.397973,0 0.771523,0.1044 1.095744,0.28591 l -0.227482,0.22748 c -0.261484,-0.13122 -0.556013,-0.20689 -0.868262,-0.20689 z"
           id="path4-7"
           sodipodi:nodetypes="cccssccsscccccccccccccccccccccccccccsscccccscc"
           style="fill:#c8e0e7;fill-opacity:1;stroke-width:0.00478909" />
        <path
           d="m 13.480734,294.11631 h 0.450108 v 1.0975 c 0,0.0367 0.0295,0.0663 0.06615,0.0663 h 0.757287 c 0.03665,0 0.06636,-0.0562 0.06636,-0.0928 0,-0.0367 -0.0297,-0.0929 -0.06636,-0.0929 h -0.585028 v -1.0445 c 0,-0.0366 -0.02971,-0.0663 -0.06636,-0.0663 h -0.356195 l 0.818757,-0.8188 0.818749,0.8188 h -0.356187 c -0.03665,0 -0.06636,0.0297 -0.06636,0.0663 v 1.16385 c 0,0.0367 0.08268,0.0664 0.119334,0.0664 0.03665,0 0.119328,-0.0297 0.119328,-0.0664 v -1.09752 h 0.449855 c 0.02683,0 0.05101,-0.0162 0.06129,-0.0409 0.01027,-0.0248 0.0046,-0.0533 -0.01439,-0.0723 l -1.084716,-1.08471 c -0.02588,-0.0259 -0.06791,-0.0259 -0.09382,0 l -1.084714,1.08471 c -0.01899,0.019 -0.02466,0.0475 -0.01439,0.0723 0.01027,0.0248 0.03446,0.0409 0.06131,0.0409 z"
           id="path2-5"
           style="fill:#ff9955;fill-opacity:1;stroke-width:0.0264049"
           sodipodi:nodetypes="ccssssscsscccssssscscccccscc" />
      </g>
    </g>
    <g
       id="22-22-update-low">
      <g
         id="g1039">
        <rect
           style="opacity:0.003;fill:#000000;fill-opacity:1;stroke:none;stroke-width:0.10795;stroke-miterlimit:4;stroke-dasharray:none;stroke-opacity:1"
           id="rect1396-3-2"
           width="5.8208332"
           height="5.8208332"
           x="17.4625"
           y="291.17914"
           ry="1.2988288e-06" />
        <path
           d="m 21.824673,292.61835 0.911363,0.46358 -0.275372,0.13505 c 0.113501,0.26819 0.177196,0.56272 0.177196,0.87257 0,1.24182 -1.006667,2.24896 -2.248957,2.24896 -0.397973,0 -0.771522,-0.1044 -1.095743,-0.28591 l 0.227481,-0.22748 c 0.261485,0.13122 0.555535,0.20689 0.868262,0.20689 1.072757,0 1.941976,-0.8697 1.941976,-1.94198 0,-0.28782 -0.06657,-0.55888 -0.179111,-0.80456 z m -1.466568,0.47724 z m 0,0 z m 0.03128,-0.94849 c -1.072756,0 -1.941976,0.8697 -1.941976,1.94245 0,0.28783 0.06657,0.55889 0.179112,0.80457 l 0.327574,0.66664 -0.911364,-0.46358 0.275373,-0.13505 c -0.113502,-0.26819 -0.177197,-0.56272 -0.177197,-0.87258 -4.79e-4,-1.24181 1.006667,-2.24895 2.248478,-2.24895 0.397973,0 0.771523,0.1044 1.095744,0.28591 l -0.227482,0.22748 c -0.261484,-0.13122 -0.556013,-0.20689 -0.868262,-0.20689 z"
           id="path4-35"
           sodipodi:nodetypes="cccssccsscccccccccccccccccccccccccccsscccccscc"
           style="fill:#c8e0e7;fill-opacity:1;stroke-width:0.00478909" />
        <path
           d="m 19.301566,294.11631 h 0.450109 v 1.0975 c 0,0.0367 0.0295,0.0663 0.06615,0.0663 h 0.757286 c 0.03665,0 0.06636,-0.0562 0.06636,-0.0928 0,-0.0367 -0.0297,-0.0929 -0.06636,-0.0929 h -0.585028 v -1.0445 c 0,-0.0366 -0.02971,-0.0663 -0.06636,-0.0663 h -0.356194 l 0.818756,-0.8188 0.81875,0.8188 h -0.356188 c -0.03665,0 -0.06636,0.0297 -0.06636,0.0663 v 1.16385 c 0,0.0367 0.08269,0.0664 0.119336,0.0664 0.03665,0 0.119327,-0.0297 0.119327,-0.0664 v -1.09752 H 21.471 c 0.02683,0 0.05101,-0.0162 0.06129,-0.0409 0.01027,-0.0248 0.0046,-0.0533 -0.01439,-0.0723 l -1.084716,-1.08471 c -0.02588,-0.0259 -0.06791,-0.0259 -0.09382,0 l -1.084714,1.08471 c -0.01898,0.019 -0.02466,0.0475 -0.01439,0.0723 0.01027,0.0248 0.03446,0.0409 0.06131,0.0409 z"
           id="path2-62"
           style="fill:#0097e5;fill-opacity:1;stroke-width:0.0264049"
           sodipodi:nodetypes="ccssssscsscccssssscscccccscc" />
      </g>
    </g>
    <g
       id="update-none">
      <g
         id="g882">
        <rect
           style="opacity:0.003;fill:#000000;fill-opacity:1;stroke:none;stroke-width:0.157018;stroke-miterlimit:4;stroke-dasharray:none;stroke-opacity:1"
           id="rect1396-6"
           width="8.4666672"
           height="8.46667"
           x="0"
           y="297"
           ry="1.8892064e-06" />
        <path
           d="m 6.2659992,299.14316 1.2866189,0.65436 -0.3887572,0.19074 c 0.1602356,0.37847 0.250157,0.79441 0.250157,1.23185 0,1.75301 -1.4211639,3.17497 -3.1749695,3.17497 -0.5618393,0 -1.0891979,-0.14751 -1.5469175,-0.40372 l 0.3211468,-0.32107 c 0.369152,0.1852 0.7842771,0.29208 1.2257707,0.29208 1.5144666,0 2.7415886,-1.22781 2.7415886,-2.74165 0,-0.40625 -0.093983,-0.78904 -0.2528606,-1.13579 z m -2.0704305,0.67362 z m 0,0 z m 0.04416,-1.33902 c -1.5144654,0 -2.7415884,1.22791 -2.7415884,2.74235 0,0.40626 0.093981,0.78898 0.2528617,1.13573 l 0.4624533,0.94116 -1.28661988,-0.65445 0.38875828,-0.1907 c -0.1602367,-0.37858 -0.2501582,-0.79442 -0.2501582,-1.23174 -6.763e-4,-1.75325 1.4211642,-3.17503 3.1742932,-3.17503 0.5618395,0 1.0891994,0.14734 1.5469189,0.40357 l -0.321148,0.32121 c -0.3691506,-0.18524 -0.7849526,-0.2921 -1.2257709,-0.2921 z"
           id="path4-9"
           sodipodi:nodetypes="cccssccsscccccccccccccccccccccccccccsscccccscc"
           style="fill:#c8e0e7;fill-opacity:1;stroke-width:0.00676095" />
        <path
           d="m 2.7130598,301.28469 h 0.6788985 v 1.54932 c 0,0.0513 0.041929,0.0943 0.093662,0.0943 h 1.0253589 c 0.051744,0 0.093564,-0.0687 0.093564,-0.12073 0,-0.0511 -0.041817,-0.12092 -0.093564,-0.12092 h -0.825911 v -1.49633 c 0,-0.051 -0.041946,-0.0943 -0.093678,-0.0943 H 3.0450896 l 1.1993188,-1.1994 1.1993937,1.19942 H 4.8974314 c -0.051745,0 -0.093679,0.0425 -0.093679,0.0943 v 1.64312 c 0,0.051 0.094869,0.0944 0.1466018,0.0944 0.051744,0 0.1465791,-0.0421 0.1465791,-0.0944 V 301.284 h 0.6788249 c 0.037881,0 0.072009,-0.0232 0.086533,-0.0569 0.014494,-0.0348 0.00652,-0.0745 -0.020321,-0.10184 l -1.5313505,-1.53145 c -0.036534,-0.0365 -0.095868,-0.0365 -0.1324519,0 l -1.5313459,1.53133 c -0.026795,0.026 -0.034814,0.0673 -0.020315,0.1016 0.014498,0.0344 0.048649,0.0573 0.086554,0.0573 z"
           id="path2-1"
           style="fill:#c8e0e7;fill-opacity:1;fill-rule:nonzero;stroke-width:0.0372769"
           sodipodi:nodetypes="ccssssscsscccssssscscccccccc" />
      </g>
    </g>
    <g
       id="update-high">
      <g
         id="g917">
        <rect
           style="opacity:0.003;fill:#000000;fill-opacity:1;stroke:none;stroke-width:0.157018;stroke-miterlimit:4;stroke-dasharray:none;stroke-opacity:1"
           id="rect1396-6-9"
           width="8.4666672"
           height="8.46667"
           x="8.4666672"
           y="296.99997"
           ry="1.8892064e-06" />
        <ellipse
           ry="1.0583333"
           rx="0.92604166"
           cy="303.08539"
           cx="14.684375"
           id="path844"
           style="opacity:0;fill:#000000;fill-opacity:1;stroke:none;stroke-width:0.10795;stroke-miterlimit:4;stroke-dasharray:none;stroke-opacity:1" />
        <path
           d="m 14.739019,299.14316 1.286619,0.65436 -0.388757,0.19074 c 0.160235,0.37847 0.250157,0.79441 0.250157,1.23185 0,1.75301 -1.421164,3.17497 -3.17497,3.17497 -0.561839,0 -1.089198,-0.14751 -1.546917,-0.40372 l 0.321147,-0.32107 c 0.369152,0.1852 0.784277,0.29208 1.22577,0.29208 1.514467,0 2.741589,-1.22781 2.741589,-2.74165 0,-0.40625 -0.09398,-0.78904 -0.252861,-1.13579 z m -2.07043,0.67362 z m 0,0 z m 0.04416,-1.33902 c -1.514466,0 -2.7415887,1.22791 -2.7415887,2.74235 0,0.40626 0.09398,0.78898 0.2528617,1.13573 l 0.462453,0.94116 -1.2866224,-0.65445 0.3887587,-0.1907 c -0.1602371,-0.37858 -0.2501586,-0.79442 -0.2501586,-1.23174 -6.763e-4,-1.75325 1.4211663,-3.17503 3.1742963,-3.17503 0.561839,0 1.089199,0.14734 1.546918,0.40357 l -0.321147,0.32121 c -0.369151,-0.18524 -0.784953,-0.2921 -1.225771,-0.2921 z"
           id="path4-9-3"
           sodipodi:nodetypes="cccssccsscccccccccccccccccccccccccccsscccccscc"
           style="fill:#c8e0e7;fill-opacity:1;stroke-width:0.00676095" />
        <path
           d="m 11.179727,301.28468 h 0.678898 v 1.54932 c 0,0.0513 0.04193,0.0943 0.09366,0.0943 h 1.02536 c 0.05174,0 0.09368,-0.0687 0.09368,-0.12072 0,-0.0511 -0.04204,-0.12423 -0.09368,-0.12092 h -0.825911 v -1.49633 c 0,-0.051 -0.04195,-0.0943 -0.09368,-0.0943 h -0.546301 l 1.199319,-1.1994 1.199394,1.19942 h -0.546371 c -0.05175,0 -0.09368,0.0425 -0.09368,0.0943 v 1.64312 c 0,0.051 0.09487,0.0944 0.146603,0.0944 0.05174,0 0.146579,-0.0421 0.146579,-0.0944 V 301.284 h 0.678827 c 0.03788,0 0.07201,-0.0232 0.08653,-0.0569 0.01449,-0.0348 0.0065,-0.0745 -0.02032,-0.10184 l -1.531351,-1.53145 c -0.03653,-0.0365 -0.09587,-0.0365 -0.132452,0 l -1.531346,1.53133 c -0.02679,0.026 -0.03481,0.0673 -0.02032,0.1016 0.0145,0.0344 0.04865,0.0573 0.08655,0.0573 z"
           id="path2-1-6"
           style="fill:#ff557f;fill-opacity:1;stroke-width:0.0372769"
           sodipodi:nodetypes="ccssssscsscccssssscscccccccc" />
      </g>
    </g>
    <g
       id="update-medium">
      <rect
         style="opacity:0.003;fill:#000000;fill-opacity:1;stroke:none;stroke-width:0.157018;stroke-miterlimit:4;stroke-dasharray:none;stroke-opacity:1"
         id="rect1396-6-9-5"
         width="8.4666672"
         height="8.46667"
         x="16.933332"
         y="296.99997"
         ry="1.8892064e-06" />
      <path
         d="m 23.192938,299.14316 1.286619,0.65436 -0.388757,0.19074 c 0.160235,0.37847 0.250157,0.79441 0.250157,1.23185 0,1.75301 -1.421164,3.17497 -3.17497,3.17497 -0.561839,0 -1.089198,-0.14751 -1.546917,-0.40372 l 0.321147,-0.32107 c 0.369152,0.1852 0.784277,0.29208 1.22577,0.29208 1.514467,0 2.741589,-1.22781 2.741589,-2.74165 0,-0.40625 -0.09398,-0.78904 -0.252861,-1.13579 z m -2.07043,0.67362 z m 0,0 z m 0.04416,-1.33902 c -1.514466,0 -2.741589,1.22791 -2.741589,2.74235 0,0.40626 0.09398,0.78898 0.252862,1.13573 l 0.462453,0.94116 -1.286622,-0.65445 0.388758,-0.1907 c -0.160237,-0.37858 -0.250158,-0.79442 -0.250158,-1.23174 -6.77e-4,-1.75325 1.421166,-3.17503 3.174296,-3.17503 0.561839,0 1.089199,0.14734 1.546918,0.40357 l -0.321147,0.32121 c -0.369151,-0.18524 -0.784953,-0.2921 -1.225771,-0.2921 z"
         id="path4-9-3-3"
         sodipodi:nodetypes="cccssccsscccccccccccccccccccccccccccsscccccscc"
         style="fill:#c8e0e7;fill-opacity:1;stroke-width:0.00676095" />
      <path
         d="m 19.646392,301.28468 h 0.6789 v 1.54932 c 0,0.0513 0.04193,0.0943 0.09366,0.0943 h 1.025359 c 0.05174,0 0.09368,-0.0687 0.09368,-0.12072 0,-0.0511 -0.04204,-0.12423 -0.09368,-0.12092 H 20.6184 v -1.49633 c 0,-0.051 -0.04195,-0.0943 -0.09368,-0.0943 h -0.546299 l 1.199317,-1.1994 1.199395,1.19936 -0.546372,6e-5 c -0.05175,1e-5 -0.09368,0.0425 -0.09368,0.0943 v 1.64312 c 0,0.051 0.09488,0.0944 0.146605,0.0944 0.05174,0 0.146579,-0.0421 0.146579,-0.0944 V 301.284 h 0.678825 c 0.03788,0 0.07201,-0.0232 0.08653,-0.0569 0.01449,-0.0348 0.0065,-0.0745 -0.02032,-0.10184 l -1.531351,-1.53145 c -0.03653,-0.0365 -0.09587,-0.0365 -0.132452,0 l -1.531346,1.53133 c -0.02679,0.026 -0.03481,0.0673 -0.02032,0.1016 0.0145,0.0344 0.04865,0.0573 0.08655,0.0573 z"
         id="path2-1-6-6"
         style="fill:#ff9955;fill-opacity:1;stroke-width:0.0372769"
         sodipodi:nodetypes="ccssssscsscccssssscscccccccc" />
    </g>
    <g
       id="update-low">
      <g
         id="g910">
        <rect
           style="opacity:0.003;fill:#000000;fill-opacity:1;stroke:none;stroke-width:0.157018;stroke-miterlimit:4;stroke-dasharray:none;stroke-opacity:1"
           id="rect1396-6-9-1"
           width="8.4666672"
           height="8.46667"
           x="25.4"
           y="296.99997"
           ry="1.8892064e-06" />
        <path
           d="m 31.659651,299.14316 1.286619,0.65436 -0.388757,0.19074 c 0.160235,0.37847 0.250157,0.79441 0.250157,1.23185 0,1.75301 -1.421164,3.17497 -3.17497,3.17497 -0.561839,0 -1.089198,-0.14751 -1.546917,-0.40372 l 0.321147,-0.32107 c 0.369152,0.1852 0.784277,0.29208 1.22577,0.29208 1.514467,0 2.741589,-1.22781 2.741589,-2.74165 0,-0.40625 -0.09398,-0.78904 -0.252861,-1.13579 z m -2.07043,0.67362 z m 0,0 z m 0.04416,-1.33902 c -1.514466,0 -2.741589,1.22791 -2.741589,2.74235 0,0.40626 0.09398,0.78898 0.252862,1.13573 l 0.462453,0.94116 -1.286622,-0.65445 0.388758,-0.1907 c -0.160237,-0.37858 -0.250158,-0.79442 -0.250158,-1.23174 -6.77e-4,-1.75325 1.421166,-3.17503 3.174296,-3.17503 0.561839,0 1.089199,0.14734 1.546918,0.40357 l -0.321147,0.32121 c -0.369151,-0.18524 -0.784953,-0.2921 -1.225771,-0.2921 z"
           id="path4-9-3-3-3"
           sodipodi:nodetypes="cccssccsscccccccccccccccccccccccccccsscccccscc"
           style="fill:#c8e0e7;fill-opacity:1;stroke-width:0.00676095" />
        <path
           d="m 28.11306,301.28468 h 0.678898 v 1.54932 c 0,0.0513 0.04193,0.0943 0.09366,0.0943 h 1.02536 c 0.05174,0 0.09368,-0.0687 0.09368,-0.12072 0,-0.0511 -0.04204,-0.12423 -0.09368,-0.12092 H 29.08507 v -1.49633 c 0,-0.051 -0.04195,-0.0943 -0.09368,-0.0943 h -0.5463 l 1.199318,-1.1994 1.199394,1.19942 h -0.546371 c -0.05175,0 -0.09368,0.0425 -0.09368,0.0943 v 1.64312 c 0,0.051 0.09487,0.0944 0.146603,0.0944 0.05174,0 0.146579,-0.0421 0.146579,-0.0944 V 301.284 h 0.678827 c 0.03788,0 0.07201,-0.0232 0.08653,-0.0569 0.01449,-0.0348 0.0065,-0.0745 -0.02032,-0.10184 l -1.531351,-1.53145 c -0.03653,-0.0365 -0.09587,-0.0365 -0.132452,0 l -1.531346,1.53133 c -0.02679,0.026 -0.03481,0.0673 -0.02032,0.1016 0.0145,0.0344 0.04865,0.0573 0.08655,0.0573 z"
           id="path2-1-6-6-6"
           style="fill:#0098e5;fill-opacity:1;stroke-width:0.0372769"
           sodipodi:nodetypes="ccssssscsscccssssscscccccccc" />
      </g>
    </g>
  </g>
</svg>
