<?xml version="1.0" encoding="UTF-8" standalone="no"?>
<svg
   xmlns:dc="http://purl.org/dc/elements/1.1/"
   xmlns:cc="http://creativecommons.org/ns#"
   xmlns:rdf="http://www.w3.org/1999/02/22-rdf-syntax-ns#"
   xmlns:svg="http://www.w3.org/2000/svg"
   xmlns="http://www.w3.org/2000/svg"
   xmlns:sodipodi="http://sodipodi.sourceforge.net/DTD/sodipodi-0.dtd"
   xmlns:inkscape="http://www.inkscape.org/namespaces/inkscape"
   version="1.1"
   id="svg2"
   viewBox="0 0 22 22"
   sodipodi:docname="video-card.svg"
   inkscape:version="1.0.2 (e86c870879, 2021-01-15)">
  <sodipodi:namedview
     pagecolor="#ffffff"
     bordercolor="#000000"
     borderopacity="1"
     objecttolerance="10"
     gridtolerance="10"
     guidetolerance="10"
     inkscape:pageopacity="0"
     inkscape:pageshadow="2"
     inkscape:window-width="1920"
     inkscape:window-height="1007"
     id="namedview10"
     showgrid="false"
     inkscape:zoom="10.092343"
     inkscape:cx="15.965953"
     inkscape:cy="9.9780657"
     inkscape:window-x="0"
     inkscape:window-y="0"
     inkscape:window-maximized="1"
     inkscape:current-layer="svg2"
     inkscape:document-rotation="0">
    <inkscape:grid
       type="xygrid"
       id="grid877" />
  </sodipodi:namedview>
  <metadata
     id="metadata12">
    <rdf:RDF>
      <cc:Work
         rdf:about="">
        <dc:format>image/svg+xml</dc:format>
        <dc:type
           rdf:resource="http://purl.org/dc/dcmitype/StillImage" />
        <dc:title />
      </cc:Work>
    </rdf:RDF>
  </metadata>
  <defs
     id="defs3051">
    <style
       type="text/css"
       id="current-color-scheme" />
  </defs>
  <g
     id="22-22-video-card-inactive">
    <path
       id="path7"
       style="fill:none"
       d="M 0,0 V 22 H 22 V 0 Z" />
    <path
       d="m 0.20883425,3.1067748 c -0.14511246,0.1408773 -0.14511246,0.3711402 0,0.5120174 0.0938438,0.098079 0.13218385,0.1065496 0.53319354,0.1065496 H 1.1686718 V 4.6426041 5.5598664 H 0.74202779 c -0.40100969,0 -0.4393497,0.00847 -0.53319354,0.1065495 C 0.1022847,5.7687302 0.1022847,5.7729655 0.1022847,6.6262535 V 7.4880119 L 0.22599808,7.6117253 C 0.34547624,7.7312035 0.36687531,7.7354387 0.75919163,7.7354387 H 1.1686718 V 8.2688551 8.8020487 H 0.93840886 c -0.36690493,0 -0.56752122,0.2302629 -0.44804307,0.5204878 0.0639743,0.1578182 0.2389563,0.2474268 0.48638307,0.2474268 H 1.1686718 V 9.7404872 9.9112339 H 0.7549564 c -0.43511447,0.00424 -0.51201738,0.02987 -0.60140309,0.2006161 -0.03834,0.06821 -0.0512686,0.76368 -0.0512686,2.551171 v 2.461562 l 0.12371338,0.123713 c 0.11947816,0.119478 0.14087723,0.123714 0.53319355,0.123714 H 1.1686718 v 0.170746 0.170747 H 0.93840886 c -0.26459061,0 -0.43087923,0.102314 -0.47367738,0.29446 -0.0595162,0.272616 0.16651153,0.473232 0.53765172,0.473232 h 0.1620534 l 0.012706,1.156218 0.012706,1.156219 0.1194781,0.102314 c 0.174982,0.149348 0.3753754,0.136642 0.5162526,-0.02987 L 1.936587,18.733892 V 17.77829 16.822687 h 1.0877862 1.0877861 v 0.605862 c 0.00424,0.63573 0.017164,0.699705 0.2006163,0.793549 0.06821,0.03834 1.2413691,0.05127 4.5519839,0.05127 H 13.3229 l 0.119478,-0.102314 c 0.119478,-0.102315 0.119478,-0.102315 0.132184,-0.72534 l 0.01271,-0.622802 h 4.05713 4.053118 l 0.123713,-0.123713 0.123714,-0.123714 V 10.636573 4.6981079 L 21.821228,4.5743945 21.697515,4.4506811 H 11.817162 1.9365864 V 3.8746894 c 0,-0.6016259 -0.042575,-0.7893136 -0.1919229,-0.8490527 -0.03834,-0.012706 -0.3753754,-0.025634 -0.7507508,-0.025634 -0.6656003,0 -0.68276414,0.00424 -0.78507845,0.1067721 z M 21.219602,10.636573 v 5.460776 H 11.578206 1.9365864 V 10.636573 5.1757976 h 9.6413966 9.641619 z M 1.1686718,6.6476525 V 7.0103222 H 0.99792503 0.82717826 V 6.6476525 6.2849828 H 0.99792503 1.1686718 Z m 0,5.9939695 V 14.64667 H 0.99792503 0.82717826 V 12.641622 10.636573 H 0.99792503 1.1686718 Z m 4.1211046,4.313027 c -0.089609,0.10655 -0.1110077,0.174982 -0.1110077,0.36267 v 0.230263 H 5.008022 4.8372752 v -0.36267 -0.362669 h 0.2815315 0.2819774 z m 1.10495,-0.02563 c -0.089609,0.08537 -0.1065495,0.145112 -0.1065495,0.36267 v 0.255897 H 6.1174301 5.9469062 v -0.230263 c 0,-0.187688 -0.021399,-0.255897 -0.1110076,-0.36267 L 5.7248909,16.822465 h 0.388304 0.3838458 z m 1.0880091,0 c -0.07668,0.08114 -0.1065496,0.170747 -0.1194782,0.36267 l -0.017164,0.255897 H 7.1798049 7.0135162 v -0.255897 c 0,-0.217558 -0.016941,-0.277297 -0.1065495,-0.36267 L 6.8046524,16.822243 h 0.388304 0.3878581 z m 1.1602309,-0.07668 c -0.093844,0.03834 -0.1792172,0.260132 -0.1792172,0.482148 v 0.213322 H 8.2930024 8.1224786 v -0.213322 c 0,-0.221793 -0.085373,-0.443585 -0.1792173,-0.482148 -0.029869,-0.01271 0.1279487,-0.0214 0.3497411,-0.0214 0.2220154,0 0.3798335,0.0085 0.349964,0.0214 z m 1.0367405,0.07668 c -0.089609,0.08537 -0.1065496,0.145112 -0.1065496,0.36267 v 0.255897 H 9.4068687 9.2405801 L 9.2234162,17.291685 C 9.2107105,17.099762 9.180841,17.010153 9.1039381,16.929015 L 9.005859,16.822243 h 0.388304 0.388304 z m 1.0708451,0.02563 c -0.08961,0.10655 -0.111008,0.174982 -0.111008,0.36267 v 0.230263 h -0.170746 -0.170747 v -0.255897 c 0,-0.217558 -0.01694,-0.277297 -0.10655,-0.36267 l -0.102314,-0.106772 h 0.384069 0.388304 z m 1.10495,-0.02563 c -0.08961,0.08537 -0.106549,0.145112 -0.106549,0.36267 v 0.255897 h -0.170747 -0.170747 v -0.230263 c 0,-0.187688 -0.0214,-0.255897 -0.111008,-0.36267 l -0.111007,-0.132184 h 0.388304 0.384068 z m 1.002413,0.25612 v 0.36267 h -0.191923 -0.191923 v -0.255897 c 0,-0.217558 -0.01694,-0.277297 -0.10655,-0.36267 l -0.102314,-0.106773 h 0.294237 0.298696 v 0.36267 z"
       id="path4-3"
       style="fill:#ff557f;fill-opacity:1;stroke-width:0.00222907" />
    <path
       d="M 2.4570742,5.5897359 C 2.3888647,5.6153702 2.277857,5.8286922 2.277857,5.939477 c 0,0.1237134 0.1707468,0.2986954 0.3243297,0.3285649 0.1876877,0.034105 0.4010097,-0.1493477 0.4010097,-0.3497411 0,-0.2645906 -0.2815315,-0.4353374 -0.5461222,-0.3285649 z"
       id="path6-6"
       style="stroke-width:0.00222907;fill:#ff557f;fill-opacity:1" />
    <path
       d="M 5.6482109,5.6280759 C 4.5176266,5.9310065 3.4895795,7.0486622 2.9989612,8.5033533 2.7343706,9.2969022 2.6875601,9.6297024 2.6875601,10.63635 c 0,0.785079 0.012706,0.977002 0.089609,1.330978 0.2688258,1.198794 0.7211041,2.077716 1.4377501,2.790127 0.4181736,0.418174 0.8020194,0.669836 1.2627682,0.836124 0.2730611,0.09808 0.3029306,0.09808 2.4359277,0.111008 2.1372319,0.01271 2.1543959,0.01271 2.2696389,-0.07668 0.08961,-0.07245 0.115243,-0.127949 0.115243,-0.260133 0,-0.157818 -0.02563,-0.196158 -0.3071658,-0.456513 C 9.2746848,14.241425 8.6431893,13.294293 8.4086911,12.535072 8.1911339,11.831132 8.1485587,11.523966 8.1485587,10.636573 8.1443234,9.7491805 8.1868987,9.4504851 8.4086911,8.7380744 8.6518827,7.9616893 9.2405801,7.0742965 9.9743899,6.3830619 10.268627,6.1015304 10.298497,6.0631904 10.298497,5.9096074 c 0,-0.1152429 -0.02987,-0.1919229 -0.09808,-0.2558972 -0.09808,-0.093844 -0.09808,-0.093844 -2.2099004,-0.089609 -1.7195046,0 -2.1503838,0.012706 -2.3423067,0.063974 z m 3.3447195,0.7081755 c -0.021399,0.02987 -0.1237134,0.1662887 -0.2389563,0.3029307 -0.853288,1.0325052 -1.2926377,2.24824 -1.3439063,3.7285649 -0.025634,0.80202 0.025634,1.305344 0.2006163,2.000814 0.2175572,0.844817 0.5588278,1.523123 1.1091852,2.214135 l 0.3029306,0.384069 -1.4845606,0.0127 C 6.620977,14.983706 5.9725405,14.971 5.8361215,14.945366 5.0938412,14.791783 4.4155351,14.181686 3.9590216,13.260189 3.5707176,12.470875 3.3872652,11.62628 3.3872652,10.636573 c 0,-1.4845603 0.448043,-2.7816562 1.2371338,-3.5879108 0.3539763,-0.3584344 0.6098736,-0.5247231 1.0238119,-0.6656003 0.2645906,-0.093844 0.3370353,-0.093844 1.8258312,-0.098079 1.2286634,0 1.5445226,0.012706 1.5188883,0.051268 z"
       id="path8-7"
       style="stroke-width:0.00222907;fill:#ff557f;fill-opacity:1" />
    <path
       d="M 12.303322,5.7346255 C 10.754787,6.481141 9.624203,7.9701598 9.2871676,9.6979119 c -0.093844,0.4821481 -0.093844,1.3949521 0,1.8771001 0.2175573,1.11342 0.7338094,2.077716 1.5614634,2.905147 0.490618,0.490618 0.917262,0.797784 1.463385,1.062374 l 0.349741,0.170747 h 2.009506 2.009284 l 0.358434,-0.183452 c 0.571757,-0.285767 0.968531,-0.571757 1.433515,-1.032505 1.975179,-1.962474 2.192737,-4.9315949 0.516253,-7.1544235 C 18.502366,6.6986982 17.738687,6.0716608 17.000641,5.7132264 L 16.685005,5.5596435 H 14.671486 12.66198 Z m 4.44967,0.661365 c 0.699705,0.3497411 1.43775,0.9897071 1.834524,1.5826397 0.281532,0.426644 0.528959,0.9640728 0.661365,1.4546911 0.09808,0.3753754 0.111008,0.4863831 0.111008,1.2030287 0,0.716646 -0.01293,0.827654 -0.111008,1.203029 -0.354199,1.301332 -1.211722,2.363706 -2.406281,2.982273 l -0.319871,0.166289 H 14.66257 12.806869 L 12.461363,14.808724 C 11.292216,14.203085 10.434916,13.140711 10.102116,11.895106 9.6456021,10.18853 10.12775,8.4224381 11.377589,7.2363499 11.74873,6.8866088 11.991921,6.7116268 12.45267,6.4684353 l 0.341271,-0.1792172 1.868629,-0.00424 h 1.868629 z"
       id="path10"
       style="stroke-width:0.00222907;fill:#ff557f;fill-opacity:1" />
    <path
       d="m 14.116448,6.6902278 c -0.503324,0.089609 -1.13482,0.2857667 -1.258533,0.3925392 -0.162054,0.1364191 -0.226028,0.3156363 -0.204852,0.5672983 0.01716,0.1876877 0.05105,0.2389563 0.281532,0.4906183 0.145335,0.1535829 0.281754,0.3158592 0.307389,0.3626697 0.04681,0.085373 0.04681,0.085373 -0.115243,0.017164 -0.494854,-0.213322 -0.691012,-0.2857667 -1.015342,-0.3626696 -0.196158,-0.047033 -0.40948,-0.072445 -0.469219,-0.055504 -0.238956,0.059739 -0.533193,0.5630631 -0.789314,1.3608472 -0.179217,0.5630631 -0.204851,0.8490531 -0.08961,1.0367401 0.140877,0.221793 0.328565,0.315637 0.580227,0.290002 0.119478,-0.01271 0.426644,-0.0341 0.682541,-0.05127 l 0.469219,-0.02563 -0.298695,0.221793 c -0.37114,0.281531 -0.883158,0.77215 -1.053682,1.019576 -0.106549,0.149348 -0.123713,0.213322 -0.106549,0.345506 0.0341,0.251662 0.29446,0.614332 0.840359,1.160454 0.580227,0.580227 0.720881,0.652672 1.040976,0.528958 0.247427,-0.09384 0.384069,-0.260132 0.452278,-0.546122 0.02987,-0.123713 0.09384,-0.311401 0.136642,-0.418173 0.09808,-0.226028 0.136642,-0.187688 0.174982,0.170747 0.03834,0.311401 0.174982,0.836124 0.290002,1.109185 0.115243,0.268826 0.243192,0.34127 0.588698,0.34127 0.512017,0 1.723517,-0.298695 1.906969,-0.473454 0.132184,-0.123713 0.200616,-0.349741 0.174982,-0.575992 -0.01716,-0.157818 -0.06397,-0.230486 -0.277296,-0.464984 -0.247427,-0.260132 -0.383846,-0.448043 -0.328565,-0.448043 0.0127,0 0.115243,0.04681 0.226027,0.102314 0.477913,0.238957 1.250063,0.43935 1.437751,0.366905 0.238956,-0.08961 0.563063,-0.721104 0.806254,-1.557228 0.132184,-0.456513 0.136419,-0.635731 0.02563,-0.823418 -0.170747,-0.277297 -0.460749,-0.36267 -0.865994,-0.260133 -0.09808,0.0214 -0.328565,0.03834 -0.512018,0.02987 l -0.337035,-0.01271 0.264591,-0.187688 C 17.418592,10.106946 17.934845,9.616328 18.135238,9.347725 18.263187,9.1685078 18.284586,9.1130039 18.263187,8.9765849 18.229082,8.7119943 17.964491,8.3495475 17.401428,7.7904967 16.83413,7.2274336 16.735828,7.176165 16.415956,7.2615384 c -0.234721,0.063974 -0.426644,0.2772963 -0.486383,0.5331935 -0.05974,0.2650365 -0.213322,0.6277062 -0.255897,0.6020719 -0.01716,-0.00847 -0.04258,-0.1408773 -0.05974,-0.2944602 -0.06397,-0.6484365 -0.324107,-1.3608472 -0.516253,-1.4335149 -0.149347,-0.055281 -0.614331,-0.04681 -0.981236,0.021399 z m 0.623025,0.7766079 c 0.09384,0.2516621 0.174982,0.7380451 0.196158,1.2157348 l 0.02563,0.503324 H 14.615759 14.270254 L 14.202044,8.9384678 C 14.095272,8.5800333 13.903349,8.1961875 13.668851,7.8847864 13.553608,7.7312035 13.472692,7.6032548 13.489633,7.5903262 c 0.02564,-0.012706 0.554593,-0.1451124 0.84036,-0.2090867 0.04681,-0.012706 0.149347,-0.021399 0.226027,-0.025634 0.11502,-0.00401 0.14489,0.017387 0.183453,0.1112302 z m 2.337848,1.0195767 c 0.213322,0.2260277 0.388304,0.4435849 0.388304,0.486383 0,0.1065496 -0.558827,0.618567 -1.023811,0.9386614 -0.213322,0.1451122 -0.396775,0.2558972 -0.40101,0.2516622 -0.0085,-0.0085 -0.06821,-0.119478 -0.132184,-0.2431917 -0.06821,-0.1237134 -0.145112,-0.2431916 -0.179217,-0.2688259 -0.04257,-0.03834 -0.0085,-0.098079 0.162053,-0.290002 0.255897,-0.2815315 0.507782,-0.6954698 0.639966,-1.0409757 0.05127,-0.1321838 0.10655,-0.2431915 0.123714,-0.2431915 0.02118,-2.229e-4 0.208863,0.1832296 0.422185,0.4094802 z m -4.581853,0.5588278 c 0.460749,0.1834525 1.087786,0.5204879 1.087786,0.5929326 0,0.025634 -0.02987,0.072445 -0.06821,0.1065496 -0.03411,0.02987 -0.111008,0.1451124 -0.166289,0.2558976 l -0.102314,0.200616 -0.269049,-0.08939 c -0.221792,-0.07245 -0.379611,-0.08961 -0.895863,-0.08961 -0.349741,-0.0042 -0.631496,-0.01716 -0.631496,-0.034105 0,-0.051269 0.307166,-0.9087918 0.366905,-1.0238118 0.07267,-0.1453354 0.111008,-0.1408772 0.678529,0.080915 z m 2.555406,0.9939428 c 0.584462,0.37114 0.353976,1.245604 -0.349741,1.309801 -0.153583,0.01694 -0.243192,-0.0042 -0.392539,-0.08114 -0.251662,-0.136642 -0.36267,-0.328565 -0.36267,-0.631496 0,-0.307165 0.115243,-0.503324 0.36267,-0.631272 0.264367,-0.1321841 0.490395,-0.1237136 0.74228,0.03411 z m 2.192736,1.211722 c 0.3328,0.0042 0.605861,0.0085 0.605861,0.01271 0,0.05127 -0.247426,0.767914 -0.324106,0.942896 -0.09384,0.209087 -0.106773,0.221793 -0.217558,0.196158 -0.413938,-0.09808 -1.591333,-0.661365 -1.591333,-0.763679 0,-0.02987 0.02987,-0.07668 0.06821,-0.110785 0.03411,-0.02987 0.111007,-0.145112 0.166288,-0.255897 l 0.102315,-0.200616 0.290002,0.08961 c 0.230486,0.06821 0.418173,0.08515 0.900321,0.08961 z m -3.882148,0.03411 c 0.0555,0.102314 0.127948,0.234721 0.166288,0.29446 0.06821,0.106772 0.06398,0.111008 -0.187687,0.413938 -0.260133,0.307166 -0.512018,0.742281 -0.610097,1.040976 -0.02563,0.08961 -0.06397,0.162053 -0.08537,0.162053 -0.04258,0 -0.750974,-0.746515 -0.81049,-0.849052 -0.03411,-0.06821 0.01271,-0.132184 0.311401,-0.418174 0.298695,-0.277296 1.015341,-0.819183 1.100715,-0.823418 0.01271,0 0.06397,0.08114 0.115243,0.179217 z m 1.736222,1.049446 c 0.10655,0.358434 0.298696,0.746515 0.533194,1.053681 l 0.209087,0.277297 -0.285767,0.08114 c -0.298695,0.08537 -0.73381,0.174982 -0.870229,0.174982 -0.09384,0 -0.140877,-0.115243 -0.230263,-0.533194 -0.0555,-0.260132 -0.149348,-1.241369 -0.119478,-1.301108 0.0042,-0.01271 0.162053,-0.01716 0.354199,-0.0085 l 0.341271,0.01271 z"
       id="path12-5"
       style="stroke-width:0.00222907;fill:#ff557f;fill-opacity:1" />
    <path
       d="m 20.221425,5.6920502 c -0.127949,0.1493477 -0.136419,0.2090868 -0.04681,0.3753754 0.08537,0.1707468 0.281532,0.2431915 0.448043,0.174982 C 20.780476,6.1784336 20.83598,6.0845894 20.83598,5.8884313 20.835757,5.5683368 20.434748,5.4359301 20.221426,5.6920502 Z"
       id="path14"
       style="stroke-width:0.00222907;fill:#ff557f;fill-opacity:1" />
    <path
       d="m 2.491179,15.043445 c -0.3370354,0.170746 -0.2217924,0.669835 0.1578182,0.669835 0.3753754,0 0.4906183,-0.499089 0.1535829,-0.674071 -0.11502,-0.06397 -0.1789943,-0.06397 -0.3114011,0.0042 z"
       id="path16"
       style="stroke-width:0.00222907;fill:#ff557f;fill-opacity:1" />
    <path
       d="m 20.345138,15.030739 c -0.119478,0.04703 -0.187688,0.132184 -0.217557,0.285767 -0.03411,0.179217 0.149348,0.396774 0.345506,0.396774 0.200616,0 0.362669,-0.140877 0.362669,-0.319871 0,-0.200617 -0.0341,-0.273061 -0.174982,-0.341271 -0.132183,-0.07267 -0.191923,-0.0769 -0.315636,-0.0214 z"
       id="path18"
       style="stroke-width:0.00222907;fill:#ff557f;fill-opacity:1" />
  </g>
</svg>
