<?xml version="1.0" encoding="UTF-8" standalone="no"?>
<svg
   sodipodi:docname="restart.svg"
   inkscape:version="1.3.2 (091e20ef0f, 2023-11-25)"
   id="svg1699"
   version="1.1"
   viewBox="0 0 32 32"
   height="32"
   width="32"
   xmlns:inkscape="http://www.inkscape.org/namespaces/inkscape"
   xmlns:sodipodi="http://sodipodi.sourceforge.net/DTD/sodipodi-0.dtd"
   xmlns:xlink="http://www.w3.org/1999/xlink"
   xmlns="http://www.w3.org/2000/svg"
   xmlns:svg="http://www.w3.org/2000/svg"
   xmlns:rdf="http://www.w3.org/1999/02/22-rdf-syntax-ns#"
   xmlns:cc="http://creativecommons.org/ns#"
   xmlns:dc="http://purl.org/dc/elements/1.1/">
  <defs
     id="defs1693">
    <linearGradient
       id="a-5"
       x1="16"
       x2="16"
       y1="1"
       y2="31"
       gradientUnits="userSpaceOnUse">
      <stop
         stop-color="#f4282c"
         offset="0"
         id="stop1009" />
      <stop
         stop-color="#fac136"
         offset="1"
         id="stop1011" />
    </linearGradient>
    <linearGradient
       id="linearGradient1120"
       x1="16"
       x2="16"
       y1="1"
       y2="31"
       gradientUnits="userSpaceOnUse">
      <stop
         stop-color="#ff791d"
         offset="0"
         id="stop1115"
         style="stop-color:#ff5555;stop-opacity:1" />
      <stop
         stop-color="#f8c430"
         offset="1"
         id="stop1117"
         style="stop-color:#ffb380;stop-opacity:1" />
    </linearGradient>
    <linearGradient
       inkscape:collect="always"
       xlink:href="#linearGradient919"
       id="linearGradient983"
       x1="-25.571428"
       y1="-62.071426"
       x2="-24.079845"
       y2="-34.774296"
       gradientUnits="userSpaceOnUse"
       gradientTransform="translate(152.72907,145.91903)" />
    <linearGradient
       inkscape:collect="always"
       id="linearGradient919">
      <stop
         style="stop-color:#006a80;stop-opacity:1"
         offset="0"
         id="stop915" />
      <stop
         style="stop-color:#c8e0e7;stop-opacity:1"
         offset="1"
         id="stop917" />
    </linearGradient>
  </defs>
  <sodipodi:namedview
     inkscape:document-rotation="0"
     inkscape:window-maximized="1"
     inkscape:window-y="0"
     inkscape:window-x="0"
     inkscape:window-height="995"
     inkscape:window-width="1920"
     showgrid="false"
     inkscape:current-layer="layer1"
     inkscape:document-units="px"
     inkscape:cy="15.892857"
     inkscape:cx="41.785714"
     inkscape:zoom="2.8"
     inkscape:pageshadow="2"
     inkscape:pageopacity="0"
     borderopacity="1"
     bordercolor="#ff1919"
     pagecolor="#000000"
     id="base"
     inkscape:pagecheckerboard="true"
     inkscape:showpageshadow="false"
     inkscape:deskcolor="#000000">
    <inkscape:grid
       type="xygrid"
       id="grid844"
       originx="0"
       originy="0"
       spacingy="1"
       spacingx="1"
       units="mm"
       visible="false" />
  </sodipodi:namedview>
  <metadata
     id="metadata1696">
    <rdf:RDF>
      <cc:Work
         rdf:about="">
        <dc:format>image/svg+xml</dc:format>
        <dc:type
           rdf:resource="http://purl.org/dc/dcmitype/StillImage" />
      </cc:Work>
    </rdf:RDF>
  </metadata>
  <g
     transform="translate(-98.729144,-81.918987)"
     id="layer1"
     inkscape:groupmode="layer"
     inkscape:label="Layer 1">
    <g
       id="system-switch-user"
       transform="translate(-184.27085,81.918987)">
      <g
         id="g1729">
        <circle
           style="opacity:0;fill:none;fill-opacity:1;stroke-width:1.06667"
           id="circle955"
           r="16"
           cy="-16"
           cx="299"
           transform="scale(1,-1)" />
      </g>
    </g>
    <path
       id="path32"
       class="ColorScheme-Text"
       d="m 114.72913,83.918987 a 14.000001,14.000001 0 0 0 -7.09798,1.9505 l 6.27314,6.27539 0.82484,-0.82943 -5.13833,-5.13831 a 12.833334,12.833334 0 0 1 5.13833,-1.09152 12.833334,12.833334 0 0 1 12.83336,12.83336 12.833334,12.833334 0 0 1 -1.63835,6.243483 l 0.85451,0.84999 a 14.000001,14.000001 0 0 0 1.95049,-7.093473 14.000001,14.000001 0 0 0 -14.00001,-13.99999 z m -12.04948,6.90201 a 14.000001,14.000001 0 0 0 -1.95051,7.09798 14.000001,14.000001 0 0 0 13.99999,14.000013 14.000001,14.000001 0 0 0 7.09798,-1.9505 l -6.27311,-6.27542 -0.82487,0.82485 5.14063,5.13836 a 12.833334,12.833334 0 0 1 -5.14063,1.09606 12.833334,12.833334 0 0 1 -12.83336,-12.833363 12.833334,12.833334 0 0 1 1.63835,-6.24348 z"
       style="fill:url(#linearGradient983);fill-opacity:1;stroke:none;stroke-width:0.999999" />
  </g>
</svg>
