<?xml version="1.0" encoding="UTF-8" standalone="no"?>
<svg
   xmlns:dc="http://purl.org/dc/elements/1.1/"
   xmlns:cc="http://creativecommons.org/ns#"
   xmlns:rdf="http://www.w3.org/1999/02/22-rdf-syntax-ns#"
   xmlns:svg="http://www.w3.org/2000/svg"
   xmlns="http://www.w3.org/2000/svg"
   xmlns:xlink="http://www.w3.org/1999/xlink"
   xmlns:sodipodi="http://sodipodi.sourceforge.net/DTD/sodipodi-0.dtd"
   xmlns:inkscape="http://www.inkscape.org/namespaces/inkscape"
   width="32"
   height="32"
   version="1.1"
   id="svg12"
   sodipodi:docname="akregator.svg"
   inkscape:version="1.0.2 (e86c870879, 2021-01-15)">
  <metadata
     id="metadata18">
    <rdf:RDF>
      <cc:Work
         rdf:about="">
        <dc:format>image/svg+xml</dc:format>
        <dc:type
           rdf:resource="http://purl.org/dc/dcmitype/StillImage" />
      </cc:Work>
    </rdf:RDF>
  </metadata>
  <defs
     id="defs16">
    <linearGradient
       inkscape:collect="always"
       id="linearGradient845">
      <stop
         style="stop-color:#006a80;stop-opacity:1"
         offset="0"
         id="stop841" />
      <stop
         style="stop-color:#c8e0e7;stop-opacity:1"
         offset="1"
         id="stop843" />
    </linearGradient>
    <linearGradient
       inkscape:collect="always"
       xlink:href="#linearGradient845"
       id="linearGradient847"
       x1="8.0438833"
       y1="19.621473"
       x2="7.8437119"
       y2="27.637819"
       gradientUnits="userSpaceOnUse" />
    <linearGradient
       inkscape:collect="always"
       xlink:href="#linearGradient845"
       id="linearGradient855"
       x1="37.411648"
       y1="23.949533"
       x2="37.392551"
       y2="29.001001"
       gradientUnits="userSpaceOnUse" />
  </defs>
  <sodipodi:namedview
     pagecolor="#ffffff"
     bordercolor="#666666"
     borderopacity="1"
     objecttolerance="10"
     gridtolerance="10"
     guidetolerance="10"
     inkscape:pageopacity="0"
     inkscape:pageshadow="2"
     inkscape:window-width="1920"
     inkscape:window-height="1007"
     id="namedview14"
     showgrid="false"
     inkscape:zoom="6.9384853"
     inkscape:cx="6.545851"
     inkscape:cy="-5.1945822"
     inkscape:window-x="0"
     inkscape:window-y="0"
     inkscape:window-maximized="1"
     inkscape:current-layer="svg12"
     inkscape:document-rotation="0"
     inkscape:lockguides="false" />
  <g
     id="g953"
     transform="translate(32.000001,-281.17999)" />
  <g
     id="g938" />
  <g
     id="akregator">
    <rect
       style="fill:#ffffff;fill-opacity:0.01;stroke:none;stroke-width:1.45455"
       id="rect3009"
       width="32"
       height="32"
       x="0"
       y="0" />
    <path
       d="m 7.843712,27.637819 a 3.7268472,3.7268472 0 1 1 3.726847,-3.726847 3.7268472,3.7268472 0 0 1 -3.726847,3.726847 z m 0,-6.321306 a 2.580125,2.580125 0 1 0 2.580125,2.580125 2.580125,2.580125 0 0 0 -2.580125,-2.580125 z"
       id="path4-6"
       style="fill:url(#linearGradient847);fill-opacity:1;stroke-width:0.286681" />
    <path
       d="M 19.462875,27.637819 H 15.248671 A 0.57336112,0.57336112 0 0 1 14.67531,27.064458 9.9736167,9.9736167 0 0 0 4.7131603,17.102309 0.57336112,0.57336112 0 0 1 4.1397991,16.528947 v -4.214204 a 0.57336112,0.57336112 0 0 1 0.5733612,-0.573361 15.340277,15.340277 0 0 1 15.3230757,15.323076 0.57336112,0.57336112 0 0 1 -0.573361,0.573361 z m -3.655177,-1.146723 h 3.070349 A 14.193555,14.193555 0 0 0 5.2865215,12.899571 V 15.96992 A 11.123206,11.123206 0 0 1 15.807698,26.491096 Z"
       id="path6"
       style="fill:#c8e0e7;fill-opacity:1;stroke-width:0.286681" />
    <path
       d="M 26.836299,27.637819 H 22.624962 A 0.57336112,0.57336112 0 0 1 22.051601,27.064458 17.358508,17.358508 0 0 0 4.7131603,9.7260176 0.57336112,0.57336112 0 0 1 4.1397991,9.1526564 V 4.9384522 A 0.57336112,0.57336112 0 0 1 4.7131603,4.365091 22.722302,22.722302 0 0 1 27.40966,27.064458 0.57336112,0.57336112 0 0 1 26.836299,27.637819 Z m -3.646576,-1.146723 h 3.067482 A 21.575579,21.575579 0 0 0 5.2865215,5.5118133 V 8.5792952 A 18.508097,18.508097 0 0 1 23.189723,26.491096 Z"
       id="path8-3"
       style="fill:#c8e0e7;fill-opacity:1;stroke-width:0.286681" />
  </g>
  <g
     id="22-22-akregator">
    <rect
       style="fill:#ffffff;fill-opacity:0.01;stroke:none"
       id="rect3009-3"
       width="22"
       height="22"
       x="32"
       y="10.000001" />
    <path
       d="m 37.392553,29.001001 a 2.5622074,2.5622074 0 1 1 2.562207,-2.562207 2.5622074,2.5622074 0 0 1 -2.562207,2.562207 z m 0,-4.345898 a 1.7738359,1.7738359 0 1 0 1.773836,1.773836 1.7738359,1.7738359 0 0 0 -1.773836,-1.773836 z"
       id="path4-6-5"
       style="fill:url(#linearGradient855);fill-opacity:1;stroke-width:0.197093" />
    <path
       d="m 45.380727,29.001001 h -2.897265 a 0.39418576,0.39418576 0 0 1 -0.394186,-0.394186 6.8568613,6.8568613 0 0 0 -6.848977,-6.848977 0.39418576,0.39418576 0 0 1 -0.394186,-0.394186 v -2.897265 a 0.39418576,0.39418576 0 0 1 0.394186,-0.394186 10.54644,10.54644 0 0 1 10.534614,10.534614 0.39418576,0.39418576 0 0 1 -0.394186,0.394186 z m -2.512934,-0.788372 h 2.110865 a 9.7580685,9.7580685 0 0 0 -9.344174,-9.344173 v 2.110865 a 7.6472037,7.6472037 0 0 1 7.233309,7.233308 z"
       id="path6-6"
       style="fill:#c8e0e7;fill-opacity:1;stroke-width:0.197093" />
    <path
       d="M 50.449956,29.001001 H 47.554662 A 0.39418576,0.39418576 0 0 1 47.160476,28.606815 11.933974,11.933974 0 0 0 35.240299,16.686638 0.39418576,0.39418576 0 0 1 34.846113,16.292452 v -2.897265 a 0.39418576,0.39418576 0 0 1 0.394186,-0.394186 15.621582,15.621582 0 0 1 15.603843,15.605814 0.39418576,0.39418576 0 0 1 -0.394186,0.394186 z m -2.507021,-0.788372 h 2.108894 A 14.83321,14.83321 0 0 0 35.634484,13.789372 v 2.108894 a 12.724316,12.724316 0 0 1 12.308451,12.314363 z"
       id="path8-3-2"
       style="fill:#c8e0e7;fill-opacity:1;stroke-width:0.197093" />
  </g>
</svg>
