<?xml version="1.0" encoding="UTF-8" standalone="no"?>
<svg
   xmlns:dc="http://purl.org/dc/elements/1.1/"
   xmlns:cc="http://creativecommons.org/ns#"
   xmlns:rdf="http://www.w3.org/1999/02/22-rdf-syntax-ns#"
   xmlns:svg="http://www.w3.org/2000/svg"
   xmlns="http://www.w3.org/2000/svg"
   xmlns:sodipodi="http://sodipodi.sourceforge.net/DTD/sodipodi-0.dtd"
   xmlns:inkscape="http://www.inkscape.org/namespaces/inkscape"
   width="32"
   height="32"
   version="1.1"
   id="svg12"
   sodipodi:docname="apport.svg"
   inkscape:version="1.0.1 (3bc2e813f5, 2020-09-07)">
  <metadata
     id="metadata18">
    <rdf:RDF>
      <cc:Work
         rdf:about="">
        <dc:format>image/svg+xml</dc:format>
        <dc:type
           rdf:resource="http://purl.org/dc/dcmitype/StillImage" />
      </cc:Work>
    </rdf:RDF>
  </metadata>
  <defs
     id="defs16" />
  <sodipodi:namedview
     pagecolor="#ffffff"
     bordercolor="#666666"
     borderopacity="1"
     objecttolerance="10"
     gridtolerance="10"
     guidetolerance="10"
     inkscape:pageopacity="0"
     inkscape:pageshadow="2"
     inkscape:window-width="1920"
     inkscape:window-height="1016"
     id="namedview14"
     showgrid="false"
     inkscape:zoom="9.8125"
     inkscape:cx="39.559167"
     inkscape:cy="16.307001"
     inkscape:window-x="0"
     inkscape:window-y="0"
     inkscape:window-maximized="1"
     inkscape:current-layer="svg12"
     inkscape:document-rotation="0" />
  <g
     id="apport"
     transform="translate(32.000001)" />
  <g
     id="g882">
    <path
       style="opacity:0.00100002"
       d="M -4.9999999e-7,-1e-6 V 32 H 32.000001 V -1e-6 Z"
       id="path7" />
    <path
       d="M 4.9547969,28.167379 H 27.30747 c 1.562382,0 2.569587,-1.64733 1.862723,-3.03982 L 17.993856,5.3232388 c -0.770572,-1.54115 -2.976109,-1.54115 -3.746682,0 L 3.0708379,25.127559 c -0.685628,1.38946 0.321577,3.03982 1.883959,3.03982 z m 12.9298441,-4.60523 c 0,1.02844 -0.749336,1.82025 -1.82025,1.82025 -1.070914,0 -1.82025,-0.79181 -1.82025,-1.82025 v -0.0425 c 0,-1.02844 0.749336,-1.82025 1.82025,-1.82025 1.070914,0 1.82025,0.79181 1.82025,1.82025 z m -2.803185,-13.37884 h 2.099355 c 0.576413,0 0.919227,0.49146 0.855518,1.11338 l -0.92226,8.04854 c -0.06371,0.57945 -0.448995,0.94047 -0.985969,0.94047 -0.53394,0 -0.92226,-0.36405 -0.985969,-0.94047 l -0.92226,-8.04854 c -0.05764,-0.62192 0.285172,-1.11338 0.861585,-1.11338 z"
       id="path8"
       style="fill:#c8e0e7;fill-opacity:1;stroke-width:0.0303375" />
  </g>
  <g
     id="22-22-apport"
     transform="matrix(0.68749998,0,0,0.68749998,32.000001,10.000001)">
    <path
       style="opacity:0.00100002"
       d="M -4.9999999e-7,-1e-6 V 32 H 32.000001 V -1e-6 Z"
       id="path7-3" />
    <path
       d="M 4.9547969,28.167379 H 27.30747 c 1.562382,0 2.569587,-1.64733 1.862723,-3.03982 L 17.993856,5.3232388 c -0.770572,-1.54115 -2.976109,-1.54115 -3.746682,0 L 3.0708379,25.127559 c -0.685628,1.38946 0.321577,3.03982 1.883959,3.03982 z m 12.9298441,-4.60523 c 0,1.02844 -0.749336,1.82025 -1.82025,1.82025 -1.070914,0 -1.82025,-0.79181 -1.82025,-1.82025 v -0.0425 c 0,-1.02844 0.749336,-1.82025 1.82025,-1.82025 1.070914,0 1.82025,0.79181 1.82025,1.82025 z m -2.803185,-13.37884 h 2.099355 c 0.576413,0 0.919227,0.49146 0.855518,1.11338 l -0.92226,8.04854 c -0.06371,0.57945 -0.448995,0.94047 -0.985969,0.94047 -0.53394,0 -0.92226,-0.36405 -0.985969,-0.94047 l -0.92226,-8.04854 c -0.05764,-0.62192 0.285172,-1.11338 0.861585,-1.11338 z"
       id="path8-5"
       style="fill:#c8e0e7;fill-opacity:1;stroke-width:0.0303375" />
  </g>
</svg>
