<?xml version="1.0" encoding="UTF-8" standalone="no"?>
<svg
   xmlns:dc="http://purl.org/dc/elements/1.1/"
   xmlns:cc="http://creativecommons.org/ns#"
   xmlns:rdf="http://www.w3.org/1999/02/22-rdf-syntax-ns#"
   xmlns:svg="http://www.w3.org/2000/svg"
   xmlns="http://www.w3.org/2000/svg"
   xmlns:xlink="http://www.w3.org/1999/xlink"
   xmlns:sodipodi="http://sodipodi.sourceforge.net/DTD/sodipodi-0.dtd"
   xmlns:inkscape="http://www.inkscape.org/namespaces/inkscape"
   id="svg2"
   width="70.000053"
   height="63.999966"
   version="1.0"
   sodipodi:docname="computer.svg"
   inkscape:version="0.92.4 (5da689c313, 2019-01-14)">
  <sodipodi:namedview
     pagecolor="#ffffff"
     bordercolor="#666666"
     borderopacity="1"
     objecttolerance="10"
     gridtolerance="10"
     guidetolerance="10"
     inkscape:pageopacity="0"
     inkscape:pageshadow="2"
     inkscape:window-width="1920"
     inkscape:window-height="1017"
     id="namedview24"
     showgrid="false"
     inkscape:zoom="8.2712219"
     inkscape:cx="5.8964368"
     inkscape:cy="31.499779"
     inkscape:window-x="0"
     inkscape:window-y="0"
     inkscape:window-maximized="1"
     inkscape:current-layer="svg2" />
  <metadata
     id="metadata7">
    <rdf:RDF>
      <cc:Work
         rdf:about="">
        <dc:format>image/svg+xml</dc:format>
        <dc:type
           rdf:resource="http://purl.org/dc/dcmitype/StillImage" />
        <dc:title />
      </cc:Work>
    </rdf:RDF>
  </metadata>
  <defs
     id="defs5">
    <linearGradient
       inkscape:collect="always"
       id="linearGradient845">
      <stop
         style="stop-color:#006a80;stop-opacity:1"
         offset="0"
         id="stop840" />
      <stop
         style="stop-color:#c8e0e7;stop-opacity:1"
         offset="1"
         id="stop842" />
    </linearGradient>
    <style
       id="current-color-scheme"
       type="text/css">
</style>
    <linearGradient
       inkscape:collect="always"
       xlink:href="#linearGradient845"
       id="linearGradient836"
       x1="260.93002"
       y1="1040.9669"
       x2="260.9747"
       y2="1057.7639"
       gradientUnits="userSpaceOnUse" />
    <linearGradient
       inkscape:collect="always"
       xlink:href="#linearGradient845"
       id="linearGradient844"
       x1="26.823215"
       y1="13.349226"
       x2="26.987875"
       y2="28.745228"
       gradientUnits="userSpaceOnUse" />
    <linearGradient
       inkscape:collect="always"
       xlink:href="#linearGradient845"
       id="linearGradient852"
       x1="53.640366"
       y1="4.6100597"
       x2="53.981815"
       y2="25.956665"
       gradientUnits="userSpaceOnUse" />
    <linearGradient
       inkscape:collect="always"
       xlink:href="#linearGradient845"
       id="linearGradient860"
       x1="400.21484"
       y1="521.60156"
       x2="400.63"
       y2="542.75647"
       gradientUnits="userSpaceOnUse" />
    <linearGradient
       inkscape:collect="always"
       xlink:href="#linearGradient845"
       id="linearGradient868"
       x1="27.484394"
       y1="45.188049"
       x2="27.501705"
       y2="61.403908"
       gradientUnits="userSpaceOnUse" />
    <linearGradient
       inkscape:collect="always"
       xlink:href="#linearGradient845"
       id="linearGradient876"
       x1="53.695831"
       y1="36.576923"
       x2="54.115261"
       y2="59.907063"
       gradientUnits="userSpaceOnUse" />
  </defs>
  <g
     id="22-22-computer"
     transform="matrix(0.75000099,0,0,0.75000099,-273.42897,-345.59906)">
    <rect
       style="opacity:0.01000001;fill:#00000f;fill-opacity:0.00392157;stroke:none"
       id="rect3074"
       width="29.333307"
       height="29.333271"
       x="385.90479"
       y="516.79803" />
    <path
       style="fill:url(#linearGradient868);fill-opacity:1.0;stroke:none"
       class="ColorScheme-Text"
       d="m 17,45 0,14 6.999999,-3.7e-5 0,2 L 22,61 l 0,1 10,0 0,-1 -2.000002,-3.7e-5 0,-2 L 37,59 37,45 Z m 1,1 18,0 0,11 -18,0 z m 6.999999,12.999963 3.999999,0 0,2 -3.999999,0 z"
       transform="matrix(1.3333316,0,0,1.3333316,364.57148,460.79814)"
       id="rect7235" />
  </g>
  <g
     transform="matrix(0.75,0,0,0.75,-168,-765.27168)"
     id="22-22-computer-laptop">
    <rect
       style="opacity:0.01000001;fill:#31363b;fill-opacity:0.00392157;stroke:none"
       id="rect7292"
       width="29.333338"
       height="29.333296"
       x="245.33333"
       y="1033.6956" />
    <path
       style="fill:url(#linearGradient844);fill-opacity:1.0;stroke:none"
       class="ColorScheme-Text"
       d="M 18 13 L 18 27 L 17 27 A 1.9999999 1.9999999 0 0 0 19 29 L 35 29 A 1.9999999 1.9999999 0 0 0 37 27 L 36 27 L 36 13 L 18 13 z M 19 14 L 35 14 L 35 26 L 19 26 L 19 14 z "
       transform="matrix(1.3333333,0,0,1.3333333,224,1020.3622)"
       id="rect7296" />
  </g>
  <g
     transform="matrix(1.09091,0,0,1.09091,-382.98739,-531.78014)"
     id="computer">
    <rect
       y="516.79803"
       x="385.90479"
       height="29.333271"
       width="29.333307"
       id="rect3018"
       style="opacity:0.01000001;fill:#00000f;fill-opacity:0.00392157;stroke:none" />
    <path
       style="fill:url(#linearGradient876);fill-opacity:1.0;stroke:none"
       d="M 40,36.011719 40,56 l 11,0 0,3 -3,0 0,1 12,0 0,-1 -3,0 0,-3 11,0 0,-19.988281 z m 1,1 26,0 2e-6,16.988249 -26,0 z M 52,56 l 4,0 0,3 -4,0 z"
       transform="matrix(0.9166659,0,0,0.9166659,351.07148,487.46472)"
       id="path3020"
       class="ColorScheme-Text" />
  </g>
  <g
     id="computer-laptop"
     transform="matrix(1.0909105,0,0,1.0909105,-229.6367,-1127.6693)">
    <rect
       y="1033.6956"
       x="245.33333"
       height="29.333296"
       width="29.333338"
       id="rect3026"
       style="opacity:0.01000001;fill:#31363b;fill-opacity:0.00392157;stroke:none" />
    <path
       style="fill:url(#linearGradient852);fill-opacity:1.0;stroke:none"
       class="ColorScheme-Text"
       d="m 40,4 -4e-6,18.999991 -1,0 L 39,24 c 4e-6,1.104569 0.895431,2 2,2 l 26,0 c 1.104569,0 2,-0.895431 2,-2 l 0,-1 -1.000004,-9e-6 L 68,4 Z m 1,1 26,0 0,17 -26,0 z m -1,19 28,0 c 0,0.552285 -0.447715,1 -1,1 l -26,0 c -0.552285,0 -1,-0.447715 -1,-1 z"
       transform="matrix(0.91666548,0,0,0.91666548,210.50004,1033.6955)"
       id="path3028" />
  </g>
  <g
     id="16-16-computer"
     transform="matrix(0.54506989,0,0,0.54506989,-210.34508,-233.67977)">
    <rect
       style="opacity:0.01000001;fill:#00000f;fill-opacity:0.00392157;stroke:none"
       id="rect3034"
       width="29.333307"
       height="29.333271"
       x="385.90479"
       y="516.79803" />
    <path
       id="path3036"
       style="fill:url(#linearGradient860);fill-opacity:1.0;stroke:none"
       d="m 393.2433,540.64039 14.67701,0 0,1.84243 -14.67701,0 z m 4.66149,-1.82681 5.33332,0 0,1.82679 -5.33332,0 z m -10.16666,-18.33855 0,18.33853 25.66664,0 0,-18.33853 z m 1.83591,1.82689 22.01553,10e-6 0,12.84238 -22.01553,0 z"
       class="ColorScheme-Text" />
  </g>
  <g
     transform="matrix(0.5454565,0,0,0.5454565,-133.81866,-547.83604)"
     id="16-16-computer-laptop">
    <rect
       style="opacity:0.01000001;fill:#31363b;fill-opacity:0.00392157;stroke:none"
       id="rect3042"
       width="29.333338"
       height="29.333296"
       x="245.33333"
       y="1033.6956" />
    <path
       class="ColorScheme-Text"
       id="path3044"
       d="m 250.98282,1041.0288 0,12.8334 -3.73283,0 c 0,2 2.41668,3.6666 2.41668,3.6666 l 20.66666,0 c 0,0 2.41662,-1.6666 2.41662,-3.6666 l -3.43386,0 0,-12.8334 z m 1.83333,1.8334 14.66661,0 0,9.1666 -14.66661,0 z"
       style="fill:url(#linearGradient836);fill-opacity:1;stroke:none" />
  </g>
</svg>
