<?xml version="1.0" encoding="UTF-8" standalone="no"?>
<svg
   xmlns:dc="http://purl.org/dc/elements/1.1/"
   xmlns:cc="http://creativecommons.org/ns#"
   xmlns:rdf="http://www.w3.org/1999/02/22-rdf-syntax-ns#"
   xmlns:svg="http://www.w3.org/2000/svg"
   xmlns="http://www.w3.org/2000/svg"
   xmlns:sodipodi="http://sodipodi.sourceforge.net/DTD/sodipodi-0.dtd"
   xmlns:inkscape="http://www.inkscape.org/namespaces/inkscape"
   version="1.1"
   sodipodi:docname="disk.svg"
   inkscape:version="1.0.1 (3bc2e813f5, 2020-09-07)"
   enable-background="new"
   height="22"
   width="22"
   id="svg7384">
  <metadata
     id="metadata32">
    <rdf:RDF>
      <cc:Work
         rdf:about="">
        <dc:format>image/svg+xml</dc:format>
        <dc:type
           rdf:resource="http://purl.org/dc/dcmitype/StillImage" />
        <dc:title />
      </cc:Work>
    </rdf:RDF>
  </metadata>
  <sodipodi:namedview
     inkscape:document-rotation="0"
     inkscape:lockguides="true"
     showgrid="false"
     pagecolor="#ffffff"
     objecttolerance="10"
     inkscape:zoom="6.2939505"
     inkscape:window-y="0"
     inkscape:window-x="0"
     inkscape:window-width="1920"
     inkscape:window-maximized="1"
     inkscape:window-height="1007"
     inkscape:snap-bbox-edge-midpoints="true"
     inkscape:snap-bbox="true"
     inkscape:pageshadow="2"
     inkscape:pageopacity="0"
     inkscape:cy="6.4896063"
     inkscape:cx="71.850113"
     inkscape:current-layer="svg7384"
     inkscape:bbox-nodes="true"
     guidetolerance="10"
     gridtolerance="10"
     borderopacity="1"
     bordercolor="#000000"
     id="namedview10">
    <inkscape:grid
       type="xygrid"
       id="grid39" />
  </sodipodi:namedview>
  <defs
     id="defs7386">
    <style
       id="current-color-scheme" />
  </defs>
  <g
     id="disk-quota">
    <path
       style="fill:#cde4eb;fill-opacity:1"
       inkscape:connector-curvature="0"
       fill="#dedede"
       d="m6 2c-1.108 0-2 0.892-2 2v14c0 1.108 0.892 2 2 2h10c1.108 0 2-0.892 2-2v-14c0-1.108-0.892-2-2-2zm0 2h1v2h-1zm2 0h1v2h-1zm2 0h1v2h-1zm2 0h1v2h-1zm2 1h1v1h-1zm-3 2a5 5 0 0 1 5 5 5 5 0 0 1-5 5 5 5 0 0 1-5-5 5 5 0 0 1 5-5zm5 10a1 1 0 0 1 1 1 1 1 0 0 1-1 1 1 1 0 0 1-1-1 1 1 0 0 1 1-1z"
       id="path15" />
    <path
       style="opacity:1;fill:#0071a1;fill-opacity:1;fill-rule:evenodd;stroke:#303c4c;stroke-opacity:1"
       inkscape:connector-curvature="0"
       d="m 11,7 a 5,5 0 0 0 -5,5 5,5 0 0 0 5,5 5,5 0 0 0 5,-5 h -5 z"
       id="path17" />
    <path
       inkscape:connector-curvature="0"
       opacity="0"
       d="m0 0h22v22h-22z"
       id="path19" />
    <g
       fill="#dedede"
       id="g23">
      <circle
         style="fill:#00ccff;fill-opacity:1"
         r="2"
         cy="12"
         cx="11"
         id="circle21" />
    </g>
  </g>
  <g
     transform="translate(32)"
     id="disk-quota-low">
    <path
       style="fill:#cde4eb;fill-opacity:1"
       inkscape:connector-curvature="0"
       fill="#dedede"
       d="m6 2c-1.108 0-2 0.892-2 2v14c0 1.108 0.892 2 2 2h10c1.108 0 2-0.892 2-2v-14c0-1.108-0.892-2-2-2zm0 2h1v2h-1zm2 0h1v2h-1zm2 0h1v2h-1zm2 0h1v2h-1zm2 1h1v1h-1zm-3 2a5 5 0 0 1 5 5 5 5 0 0 1-5 5 5 5 0 0 1-5-5 5 5 0 0 1 5-5zm5 10a1 1 0 0 1 1 1 1 1 0 0 1-1 1 1 1 0 0 1-1-1 1 1 0 0 1 1-1z"
       id="path53" />
    <path
       style="opacity:1;fill:#00ffcc;fill-opacity:1;stroke:#d3dae3;stroke-opacity:1"
       inkscape:connector-curvature="0"
       d="m 11,7 a 5,5 0 0 0 -5,5 5,5 0 0 0 5,5 5,5 0 0 0 5,-5 h -5 z"
       id="path55" />
    <path
       inkscape:connector-curvature="0"
       opacity="0"
       d="m0 0h22v22h-22z"
       id="path57" />
    <g
       fill="#dedede"
       id="g61">
      <circle
         style="fill:#7137c8;fill-opacity:1"
         r="2"
         cy="12"
         cx="11"
         id="circle59" />
    </g>
  </g>
  <g
     transform="translate(59)"
     id="disk-quota-high">
    <path
       style="fill:#cde4eb;fill-opacity:1"
       inkscape:connector-curvature="0"
       fill="#dedede"
       d="m6 2c-1.108 0-2 0.892-2 2v14c0 1.108 0.892 2 2 2h10c1.108 0 2-0.892 2-2v-14c0-1.108-0.892-2-2-2zm0 2h1v2h-1zm2 0h1v2h-1zm2 0h1v2h-1zm2 0h1v2h-1zm2 1h1v1h-1zm-3 2a5 5 0 0 1 5 5 5 5 0 0 1-5 5 5 5 0 0 1-5-5 5 5 0 0 1 5-5zm5 10a1 1 0 0 1 1 1 1 1 0 0 1-1 1 1 1 0 0 1-1-1 1 1 0 0 1 1-1z"
       id="path65" />
    <path
       style="opacity:1;fill:#ff2a7f;stroke:#d3dae3;stroke-opacity:1"
       inkscape:connector-curvature="0"
       d="m 11,7 a 5,5 0 0 0 -5,5 5,5 0 0 0 5,5 5,5 0 0 0 5,-5 h -5 z"
       id="path67" />
    <path
       inkscape:connector-curvature="0"
       opacity="0"
       d="m0 0h22v22h-22z"
       id="path69" />
    <g
       fill="#dedede"
       id="g73">
      <circle
         style="fill:#ffb380;fill-opacity:1"
         r="2"
         cy="12"
         cx="11"
         id="circle71" />
    </g>
  </g>
  <g
     transform="translate(-34)"
     id="disk-quota-critical">
    <path
       style="fill:#cde4eb;fill-opacity:1"
       inkscape:connector-curvature="0"
       fill="#dedede"
       d="m126 2c-1.108 0-2 0.892-2 2v14c0 1.108 0.892 2 2 2h10c1.108 0 2-0.892 2-2v-14c0-1.108-0.892-2-2-2zm0 2h1v2h-1zm2 0h1v2h-1zm2 0h1v2h-1zm2 0h1v2h-1zm2 1h1v1h-1zm-3 2a5 5 0 0 1 5 5 5 5 0 0 1-5 5 5 5 0 0 1-5-5 5 5 0 0 1 5-5zm5 10a1 1 0 0 1 1 1 1 1 0 0 1-1 1 1 1 0 0 1-1-1 1 1 0 0 1 1-1z"
       id="path77" />
    <path
       style="opacity:0.6;fill:#ff2a7f;stroke:#a1b4ba;stroke-opacity:1"
       inkscape:connector-curvature="0"
       d="m 131,7 a 5,5 0 0 0 -5,5 5,5 0 0 0 5,5 5,5 0 0 0 5,-5 h -5 z"
       id="path79" />
    <path
       inkscape:connector-curvature="0"
       opacity="0"
       d="m120 0h22v22h-22z"
       id="path81" />
    <g
       fill="#dedede"
       transform="translate(120)"
       id="g85">
      <circle
         style="fill:#d40055;fill-opacity:1"
         r="2"
         cy="12"
         cx="11"
         id="circle83" />
    </g>
    <path
       style="fill:#d40055"
       inkscape:connector-curvature="0"
       fill="#dc6e2e"
       d="m139 11v5h2v-5zm0 6v2h2v-2z"
       id="path24" />
  </g>
</svg>
