<?xml version="1.0" encoding="UTF-8" standalone="no"?>
<svg
   xmlns:dc="http://purl.org/dc/elements/1.1/"
   xmlns:cc="http://creativecommons.org/ns#"
   xmlns:rdf="http://www.w3.org/1999/02/22-rdf-syntax-ns#"
   xmlns:svg="http://www.w3.org/2000/svg"
   xmlns="http://www.w3.org/2000/svg"
   xmlns:sodipodi="http://sodipodi.sourceforge.net/DTD/sodipodi-0.dtd"
   xmlns:inkscape="http://www.inkscape.org/namespaces/inkscape"
   inkscape:version="1.0 (4035a4fb49, 2020-05-01)"
   height="27.123251"
   width="30.40036"
   sodipodi:docname="dropbox.svg"
   id="svg40"
   xml:space="preserve"
   enable-background="new 0 0 1000 1000"
   viewBox="0 0 30.400361 27.123251"
   y="0px"
   x="0px"
   version="1.1"><defs
   id="defs44" /><sodipodi:namedview
   inkscape:document-rotation="0"
   inkscape:current-layer="svg40"
   inkscape:window-maximized="1"
   inkscape:window-y="0"
   inkscape:window-x="0"
   inkscape:cy="9.899369"
   inkscape:cx="-0.77898162"
   inkscape:zoom="10.680141"
   showgrid="false"
   id="namedview42"
   inkscape:window-height="1018"
   inkscape:window-width="1920"
   inkscape:pageshadow="2"
   inkscape:pageopacity="0"
   guidetolerance="10"
   gridtolerance="10"
   objecttolerance="10"
   borderopacity="1"
   bordercolor="#666666"
   pagecolor="#ffffff" />
<metadata
   id="metadata2"> Svg Vector Icons : http://www.onlinewebfonts.com/icon <rdf:RDF><cc:Work
     rdf:about=""><dc:format>image/svg+xml</dc:format><dc:type
       rdf:resource="http://purl.org/dc/dcmitype/StillImage" /><dc:title /></cc:Work></rdf:RDF></metadata>
<g
   transform="translate(-3.3203063,-966.72215)"
   id="g38"><g
     id="g6"><path
       inkscape:connector-curvature="0"
       style="fill:#c8e0e7;fill-opacity:1;stroke-width:0.0183823"
       id="path4"
       d="m 26.865012,977.59081 -8.257353,-4.10478 -8.257353,4.10478 -0.7499997,-1.50919 8.9963237,-4.47243 0.0037,-0.009 0.0092,0.006 0.0074,-0.006 0.0037,0.011 8.994485,4.47059 z m -3.40625,3.95404 2.351103,-1.30698 -0.520221,-0.27941 -4.286764,-2.33456 -2.365809,1.2886 -2.426471,-1.32169 -4.805147,2.61213 0.511029,0.2886 1.875,1.04228 -0.0239,0.011 h -0.0018 v 0.002 l -2.319853,1.26287 2.321691,1.24632 v 3.13236 l 4.840074,2.41176 4.840073,-2.41176 v -3.12317 l 2.338236,-1.25551 z m -2.455882,-3.18566 3.461397,1.88419 -1.676471,0.93199 -3.501838,-1.87868 z m -8.255515,1.85294 3.461397,-1.88603 1.716912,0.93566 -3.501839,1.88052 z m 0.05882,2.59375 1.715074,-0.93566 3.498162,1.89154 -1.711397,0.92464 z m 1.608456,3.98162 v -2.38051 l 1.900736,1.02022 1.970588,-1.09375 v 4.38051 z m 8.38603,0 -3.869486,1.92647 v -4.38603 l 1.97978,1.09927 1.887867,-1.01287 0.0018,2.37316 v 0 z m 1.621323,-3.98162 -3.501838,1.88052 -1.681985,-0.92464 3.46875,-1.89338 z" /></g><g
     id="g8" /><g
     id="g10" /><g
     id="g12" /><g
     id="g14" /><g
     id="g16" /><g
     id="g18" /><g
     id="g20" /><g
     id="g22" /><g
     id="g24" /><g
     id="g26" /><g
     id="g28" /><g
     id="g30" /><g
     id="g32" /><g
     id="g34" /><g
     id="g36" /></g>
</svg>
