<?xml version="1.0" encoding="UTF-8" standalone="no"?>
<svg
   xmlns:dc="http://purl.org/dc/elements/1.1/"
   xmlns:cc="http://creativecommons.org/ns#"
   xmlns:rdf="http://www.w3.org/1999/02/22-rdf-syntax-ns#"
   xmlns:svg="http://www.w3.org/2000/svg"
   xmlns="http://www.w3.org/2000/svg"
   xmlns:sodipodi="http://sodipodi.sourceforge.net/DTD/sodipodi-0.dtd"
   xmlns:inkscape="http://www.inkscape.org/namespaces/inkscape"
   sodipodi:docname="input.svg"
   inkscape:version="1.0.1 (3bc2e813f5, 2020-09-07)"
   id="svg"
   viewBox="0 0 22 22"
   height="100%"
   width="100%"
   version="1.1">
  <sodipodi:namedview
     inkscape:document-rotation="0"
     inkscape:lockguides="true"
     fit-margin-bottom="0"
     fit-margin-right="0"
     fit-margin-left="0"
     fit-margin-top="0"
     inkscape:snap-bbox-midpoints="true"
     inkscape:snap-bbox-edge-midpoints="true"
     inkscape:snap-bbox="true"
     inkscape:current-layer="svg"
     inkscape:window-maximized="1"
     inkscape:window-y="0"
     inkscape:window-x="0"
     inkscape:cy="8.3369178"
     inkscape:cx="-132.44864"
     inkscape:zoom="2.8284271"
     showgrid="false"
     id="namedview18"
     inkscape:window-height="1016"
     inkscape:window-width="1920"
     inkscape:pageshadow="2"
     inkscape:pageopacity="0"
     guidetolerance="10"
     gridtolerance="10"
     objecttolerance="10"
     borderopacity="1"
     bordercolor="#666666"
     pagecolor="#ffffff">
    <inkscape:grid
       spacingy="1.0666667"
       spacingx="1.0666667"
       originy="21.333333"
       originx="-40.533333"
       snapvisiblegridlinesonly="true"
       enabled="true"
       visible="true"
       empspacing="5"
       id="grid3814"
       type="xygrid" />
  </sodipodi:namedview>
  <defs
     id="defs81">
    <style
       id="current-color-scheme"
       type="text/css" />
  </defs>
  <metadata
     id="metadata34">
    <rdf:RDF>
      <cc:Work
         rdf:about="">
        <dc:format>image/svg+xml</dc:format>
        <dc:type
           rdf:resource="http://purl.org/dc/dcmitype/StillImage" />
        <dc:title />
      </cc:Work>
    </rdf:RDF>
  </metadata>
  <g
     transform="translate(60.44512,-2.075014)"
     id="input-mouse-battery">
    <g
       transform="matrix(0.29108244,0,0,0.29108244,-3.554122,-4.7968832)"
       id="g2999"
       style="fill:#566060;fill-opacity:1">
      <path
         inkscape:connector-curvature="0"
         id="path5"
         d="M 44.90625,33.28125 C 38.40025,33.28225 33.125,38.5575 33.125,45.0625 v 7.71875 c 5.453,1.258 10.12025,1.965 16.40625,2 v -5.3125 c -0.812,-0.213 -1.4375,-0.9325 -1.4375,-1.8125 V 41 c 0,-0.879 0.6245,-1.63075 1.4375,-1.84375 v -5.875 z m 5.5625,0 v 5.875 c 0.812,0.213 1.4375,0.96375 1.4375,1.84375 v 6.65625 c 0,0.879 -0.6245,1.5995 -1.4375,1.8125 v 5.3125 c 6.285,-0.035 10.95325,-0.741 16.40625,-2 V 45.0625 C 66.874,38.5565 61.59875,33.28125 55.09375,33.28125 Z M 33.125,53.75 V 60.53125 75.125 c 0,6.506 5.27625,11.78125 11.78125,11.78125 h 10.1875 C 61.59975,86.90625 66.875,81.63 66.875,75.125 V 53.75 c -5.608,1.287 -10.355,2 -16.875,2 -6.52,0 -11.266,-0.713 -16.875,-2 z"
         style="fill:#c8e0e7;fill-opacity:1" />
      <path
         d="m 49.998205,21.632645 c -0.947711,0 -1.715932,0.205977 -1.715932,0.461043 V 33.285 h 3.435453 V 22.093688 c -0.0036,-0.255066 -0.77181,-0.461043 -1.719521,-0.461043 z"
         id="path11"
         inkscape:connector-curvature="0"
         sodipodi:nodetypes="sscccs"
         style="fill:#d3dae3;fill-opacity:1" />
    </g>
    <path
       class="ColorScheme-Text"
       style="color:#7b7c7e;fill:#33c2ff;fill-opacity:1;fill-rule:evenodd;stroke:none"
       d="M 11.72728,12 8.8182401,16.3636 H 10.272719 V 20 l 2.909041,-4.36368 h -1.454479 z"
       id="path6686-8-0"
       inkscape:connector-curvature="0"
       sodipodi:nodetypes="ccccccc" />
    <rect
       style="fill:#3498db;fill-opacity:0;stroke:none"
       id="rect3801"
       width="22"
       height="22"
       x="0"
       y="0" />
  </g>
  <g
     id="22-22-input-keyboard-battery">
    <path
       style="fill:#c8e0e7;fill-opacity:1;stroke:none"
       d="m 3,11 c -0.554,0 -1,0.446 -1,1 v 7 c 0,0.554 0.446,1 1,1 h 16 c 0.554,0 1,-0.446 1,-1 v -7 c 0,-0.554 -0.446,-1 -1,-1 z m 0,1 h 16 v 7 H 3 Z m 1,1 v 2 h 2 v -2 z m 3,0 v 2 h 2 v -2 z m 3,0 v 2 h 2 v -2 z m 3,0 v 2 h 2 v -2 z m 3,0 v 2 h 2 V 13 Z M 4,16 v 2 h 2 v -2 z m 3,0 v 2 h 5 v -2 z m 6,0 v 2 h 2 v -2 z m 3,0 v 2 h 2 v -2 z"
       id="rect3810"
       inkscape:connector-curvature="0" />
    <path
       class="ColorScheme-Text"
       style="color:#7b7c7e;fill:#33c2ff;fill-opacity:1;fill-rule:evenodd;stroke:none"
       d="M 11.727281,2 8.8182405,6.3636 H 10.272719 V 10 L 13.18176,5.63632 h -1.454479 z"
       id="path6686-8-03"
       inkscape:connector-curvature="0"
       sodipodi:nodetypes="ccccccc" />
    <rect
       style="fill:#566060;fill-opacity:0;stroke:none"
       id="rect3856"
       width="22"
       height="22"
       x="0"
       y="0" />
  </g>
  <g
     transform="translate(27)"
     id="22-22-input-keyboard-brightness">
    <g
       id="g3881">
      <path
         style="fill:#c8e0e7;fill-opacity:1;stroke:none"
         d="m 3,11 c -0.554,0 -1,0.446 -1,1 v 7 c 0,0.554 0.446,1 1,1 h 16 c 0.554,0 1,-0.446 1,-1 v -7 c 0,-0.554 -0.446,-1 -1,-1 z m 0,1 h 16 v 7 H 3 Z m 1,1 v 2 h 2 v -2 z m 3,0 v 2 h 2 v -2 z m 3,0 v 2 h 2 v -2 z m 3,0 v 2 h 2 v -2 z m 3,0 v 2 h 2 V 13 Z M 4,16 v 2 h 2 v -2 z m 3,0 v 2 h 5 v -2 z m 6,0 v 2 h 2 v -2 z m 3,0 v 2 h 2 v -2 z"
         id="path3854"
         inkscape:connector-curvature="0" />
      <path
         class="ColorScheme-Text"
         inkscape:connector-curvature="0"
         id="path3891-0"
         d="M 11,3 C 9.067003,3 7.5,4.5670034 7.5,6.5 7.5,8.4329966 9.067003,10 11,10 12.932997,10 14.5,8.4329966 14.5,6.5 14.5,4.5670034 12.932997,3 11,3 Z m 0,1 V 9 C 9.619288,9 8.5,7.8807119 8.5,6.5 8.5,5.1192881 9.619288,4 11,4 Z"
         style="color:#7b7c7e;fill:#ff2a2a;fill-opacity:1;stroke:none" />
    </g>
    <rect
       style="fill:#566060;fill-opacity:0;stroke:none"
       id="rect3894"
       width="22"
       height="22"
       x="0"
       y="0" />
  </g>
  <g
     transform="translate(32,-54.000034)"
     id="input-keyboard-battery">
    <path
       inkscape:connector-curvature="0"
       style="fill:#c8e0e7;fill-opacity:1;stroke:none"
       d="m 5,16 c -0.5539999,0 -1,0.446 -1,1 v 10 c 0,0.554 0.4460001,1 1,1 h 22 c 0.554,0 1,-0.446 1,-1 V 17 c 0,-0.554 -0.446,-1 -1,-1 z m 0,1 H 27 V 27 H 5 Z m 1,1 v 2 h 2 v -2 z m 3,0 v 2 h 2 v -2 z m 3,0 v 2 h 2 v -2 z m 3,0 v 2 h 2 v -2 z m 3,0 v 2 h 2 v -2 z m 3,0 v 2 h 2 v -2 z m 3,0 v 2 h 2 V 18 Z M 6,21 v 2 h 2 v -2 z m 3,0 v 2 h 2 v -2 z m 3,0 v 2 h 2 v -2 z m 3,0 v 2 h 2 v -2 z m 3,0 v 2 h 2 v -2 z m 3,0 v 2 h 2 v -2 z m 3,0 v 2 h 2 V 21 Z M 6,24 v 2 h 2 v -2 z m 4,0 v 2 h 2 2 2 2 4 v -2 h -4 -2 -2 -2 z m 14,0 v 2 h 2 v -2 z"
       id="rect3908" />
    <path
       class="ColorScheme-Text"
       style="color:#7b7c7e;fill:#00aa44;fill-opacity:1;fill-rule:evenodd;stroke:none"
       d="m 17.09092,3 -4.36356,6.5454 h 2.18172 V 15 l 4.36356,-6.5456 h -2.18172 z"
       id="path6686-8-1-8"
       inkscape:connector-curvature="0"
       sodipodi:nodetypes="ccccccc" />
    <rect
       style="fill:#566060;fill-opacity:0;stroke:none"
       id="rect3977"
       width="32"
       height="32"
       x="0"
       y="1.7e-05" />
  </g>
  <g
     transform="translate(-40,-54)"
     id="input-keyboard-brightness">
    <path
       inkscape:connector-curvature="0"
       style="fill:#c8e0e7;fill-opacity:1;stroke:none"
       d="m 5,16 c -0.554,0 -1,0.446 -1,1 v 10 c 0,0.554 0.446,1 1,1 h 22 c 0.554,0 1,-0.446 1,-1 V 17 c 0,-0.554 -0.446,-1 -1,-1 z m 0,1 H 27 V 27 H 5 Z m 1,1 v 2 h 2 v -2 z m 3,0 v 2 h 2 v -2 z m 3,0 v 2 h 2 v -2 z m 3,0 v 2 h 2 v -2 z m 3,0 v 2 h 2 v -2 z m 3,0 v 2 h 2 v -2 z m 3,0 v 2 h 2 V 18 Z M 6,21 v 2 h 2 v -2 z m 3,0 v 2 h 2 v -2 z m 3,0 v 2 h 2 v -2 z m 3,0 v 2 h 2 v -2 z m 3,0 v 2 h 2 v -2 z m 3,0 v 2 h 2 v -2 z m 3,0 v 2 h 2 V 21 Z M 6,24 v 2 h 2 v -2 z m 4,0 v 2 h 2 2 2 2 4 v -2 h -4 -2 -2 -2 z m 14,0 v 2 h 2 v -2 z"
       id="path3008" />
    <rect
       y="2.9813963e-13"
       x="0"
       height="32"
       width="32"
       id="rect3012"
       style="fill:#566060;fill-opacity:0;stroke:none" />
    <path
       style="color:#000000;font-style:normal;font-variant:normal;font-weight:normal;font-stretch:normal;font-size:medium;line-height:normal;font-family:Sans;-inkscape-font-specification:Sans;text-indent:0;text-align:start;text-decoration:none;text-decoration-line:none;letter-spacing:normal;word-spacing:normal;text-transform:none;writing-mode:lr-tb;direction:ltr;baseline-shift:baseline;text-anchor:start;display:inline;overflow:visible;visibility:visible;fill:#ffccaa;fill-opacity:1;fill-rule:nonzero;stroke:none;stroke-width:0.2;marker:none;enable-background:accumulate"
       d="m 16,2.8125 c -0.21095,0 -0.40625,0.151155 -0.40625,0.375 v 1.78125 c 0,0.223845 0.1953,0.375 0.40625,0.375 0.210949,0 0.375,-0.1640495 0.375,-0.375 V 3.1875 c 0,-0.2109505 -0.164051,-0.375 -0.375,-0.375 z m -4.03125,1.65625 c -0.107485,0 -0.203443,0.047193 -0.28125,0.125 -0.150832,0.151025 -0.150902,0.3803478 0,0.53125 l 1.25,1.28125 C 13.0282,6.496711 13.138992,6.5 13.21875,6.5 13.29851,6.5 13.409306,6.49671 13.5,6.40625 c 0.157264,-0.1574653 0.157347,-0.4051534 0,-0.5625 l -1.28125,-1.25 c -0.06494,-0.064854 -0.142515,-0.125 -0.25,-0.125 z m 8.0625,0 c -0.107485,0 -0.203454,0.047104 -0.28125,0.125 l -1.25,1.25 c -0.157264,0.1574654 -0.157347,0.4051534 0,0.5625 C 18.59073,6.496514 18.701492,6.5 18.78125,6.5 c 0.07962,0 0.172134,-0.016088 0.25,-0.09375 L 20.3125,5.125 c 0.150662,-0.1510483 0.150733,-0.3803246 0,-0.53125 -0.07781,-0.077807 -0.173765,-0.125 -0.28125,-0.125 z M 16,5.90625 c -1.662791,0 -3,1.3372098 -3,3 0,1.66279 1.337209,3 3,3 1.662789,0 3,-1.33721 3,-3 0,-1.6627903 -1.337211,-3 -3,-3 z m 0,0.75 c 0,1.46875 0,3.46875 0,4.46875 -1.230136,0 -2.25,-0.990236 -2.25,-2.21875 0,-1.2285135 1.021486,-2.25 2.25,-2.25 z M 10.28125,8.5 c -0.223935,0 -0.375,0.1953608 -0.375,0.40625 0,0.2109505 0.164051,0.375 0.375,0.375 h 1.78125 c 0.211052,0 0.375,-0.1641101 0.375,-0.375 C 12.4375,8.6952586 12.286375,8.5 12.0625,8.5 Z m 9.625,0 c -0.223845,0 -0.375,0.1953006 -0.375,0.40625 0,0.2109501 0.16405,0.375 0.375,0.375 h 1.78125 c 0.21095,0 0.40625,-0.151155 0.40625,-0.375 C 22.09375,8.6823152 21.911285,8.5 21.6875,8.5 Z m -6.6875,2.78125 c -0.107482,0 -0.203442,0.04719 -0.28125,0.125 l -1.25,1.25 c -0.15752,0.157319 -0.15752,0.405181 0,0.5625 0.09072,0.09072 0.201622,0.09375 0.28125,0.09375 0.07965,0 0.17216,-0.01594 0.25,-0.09375 L 13.5,11.9375 c 0.150993,-0.150993 0.151134,-0.380503 0,-0.53125 -0.07782,-0.07772 -0.173768,-0.125 -0.28125,-0.125 z m 5.5625,0 c -0.107505,0 -0.20349,0.04694 -0.28125,0.125 -0.150993,0.150993 -0.151134,0.380503 0,0.53125 l 1.25,1.28125 c 0.0907,0.09046 0.201491,0.09375 0.28125,0.09375 0.07965,0 0.19061,-0.0027 0.28125,-0.09375 0.157231,-0.157435 0.157315,-0.405184 0,-0.5625 l -1.28125,-1.25 c -0.0649,-0.0649 -0.142497,-0.125 -0.25,-0.125 z M 16,12.4375 c -0.211052,0 -0.40625,0.151215 -0.40625,0.375 v 1.78125 C 15.59375,14.817595 15.776155,15 16,15 c 0.223695,0 0.37482,-0.195248 0.375,-0.40625 V 12.8125 c 0,-0.21089 -0.163948,-0.375 -0.375,-0.375 z"
       id="path3"
       inkscape:connector-curvature="0"
       sodipodi:nodetypes="sssssssscccscccsscccscccssssssccscssssssssssssssssccscscsscccscccssssscss" />
  </g>
  <path
     inkscape:connector-curvature="0"
     style="fill:#ffff00;stroke:#d3dae3;stroke-width:0.2;stroke-miterlimit:4;stroke-opacity:1;stroke-dasharray:none;fill-opacity:1"
     d="m -1,-74.3125 c -0.161563,0 -0.3125,0.119687 -0.3125,0.28125 l 0,1.78125 c 0,0.161563 0.150937,0.28125 0.3125,0.28125 0.161562,0 0.28125,-0.119687 0.28125,-0.28125 l 0,-1.78125 c 0,-0.161563 -0.119688,-0.28125 -0.28125,-0.28125 z m -4.03125,1.65625 c -0.07491,0 -0.161603,0.0366 -0.21875,0.09375 -0.114294,0.114441 -0.114294,0.291956 0,0.40625 L -4,-70.875 c 0.05722,0.05707 0.14382,0.0625 0.21875,0.0625 0.07493,0 0.16153,-0.0054 0.21875,-0.0625 0.114294,-0.11444 0.114294,-0.323206 0,-0.4375 l -1.28125,-1.25 c -0.05722,-0.05715 -0.112591,-0.09375 -0.1875,-0.09375 z m 8.0625,0 c -0.07491,0 -0.161676,0.0366 -0.21875,0.09375 l -1.25,1.25 c -0.114294,0.11444 -0.114294,0.323206 0,0.4375 0.05737,0.05707 0.14382,0.0625 0.21875,0.0625 0.07478,0 0.13028,-0.0054 0.1875,-0.0625 L 3.25,-72.15625 c 0.114148,-0.11444 0.114148,-0.291956 0,-0.40625 -0.05715,-0.05715 -0.14384,-0.09375 -0.21875,-0.09375 z M -1,-71.21875 c -1.609045,0 -2.90625,1.297206 -2.90625,2.90625 0,1.609044 1.297205,2.90625 2.90625,2.90625 1.609043,0 2.90625,-1.297206 2.90625,-2.90625 0,-1.609044 -1.297207,-2.90625 -2.90625,-2.90625 z m 0,0.5625 c 1.283576,0 2.3125,1.060027 2.3125,2.34375 C 1.3125,-67.028923 0.283576,-66 -1,-66 c -1.283577,0 -2.34375,-1.028923 -2.34375,-2.3125 0,-1.283577 1.060173,-2.34375 2.34375,-2.34375 z m -5.71875,2.03125 c -0.161709,0 -0.28125,0.150938 -0.28125,0.3125 0,0.161563 0.119688,0.28125 0.28125,0.28125 l 1.78125,0 c 0.161709,0 0.28125,-0.119687 0.28125,-0.28125 0,-0.161709 -0.119541,-0.3125 -0.28125,-0.3125 l -1.78125,0 z m 9.625,0 c -0.161563,0 -0.28125,0.150938 -0.28125,0.3125 0,0.161563 0.119687,0.28125 0.28125,0.28125 l 1.78125,0 C 4.849063,-68.03125 5,-68.150937 5,-68.3125 5,-68.474209 4.849063,-68.625 4.6875,-68.625 l -1.78125,0 z m -6.6875,2.78125 c -0.07491,0 -0.161603,0.0366 -0.21875,0.09375 l -1.25,1.25 c -0.114294,0.114148 -0.114294,0.323352 0,0.4375 0.05722,0.05722 0.14382,0.0625 0.21875,0.0625 0.07493,0 0.13028,-0.0053 0.1875,-0.0625 l 1.28125,-1.28125 c 0.114294,-0.114294 0.114294,-0.292249 0,-0.40625 -0.05722,-0.05715 -0.14384,-0.09375 -0.21875,-0.09375 z m 5.5625,0 c -0.07495,0 -0.161822,0.0366 -0.21875,0.09375 -0.114294,0.114294 -0.114294,0.292249 0,0.40625 l 1.25,1.28125 C 2.86987,-64.00528 2.95618,-64 3.03125,-64 c 0.07493,0 0.16182,-0.0053 0.21875,-0.0625 0.114147,-0.114295 0.114147,-0.323352 0,-0.4375 L 1.96875,-65.75 C 1.9116,-65.80715 1.856196,-65.84375 1.78125,-65.84375 z M -1,-64.6875 c -0.161709,0 -0.3125,0.119687 -0.3125,0.28125 l 0,1.78125 c 0,0.161563 0.150937,0.3125 0.3125,0.3125 0.161417,0 0.281112,-0.15079 0.28125,-0.3125 l 0,-1.78125 c 0,-0.161563 -0.119541,-0.28125 -0.28125,-0.28125 z"
     id="path3806" />
</svg>
