<?xml version="1.0" encoding="UTF-8" standalone="no"?>
<svg
   xmlns:dc="http://purl.org/dc/elements/1.1/"
   xmlns:cc="http://creativecommons.org/ns#"
   xmlns:rdf="http://www.w3.org/1999/02/22-rdf-syntax-ns#"
   xmlns:svg="http://www.w3.org/2000/svg"
   xmlns="http://www.w3.org/2000/svg"
   xmlns:xlink="http://www.w3.org/1999/xlink"
   xmlns:sodipodi="http://sodipodi.sourceforge.net/DTD/sodipodi-0.dtd"
   xmlns:inkscape="http://www.inkscape.org/namespaces/inkscape"
   width="32"
   height="32"
   version="1.1"
   id="svg12"
   sodipodi:docname="plasmavault_error.svg"
   inkscape:version="1.0.2 (e86c870879, 2021-01-15)">
  <metadata
     id="metadata18">
    <rdf:RDF>
      <cc:Work
         rdf:about="">
        <dc:format>image/svg+xml</dc:format>
        <dc:type
           rdf:resource="http://purl.org/dc/dcmitype/StillImage" />
      </cc:Work>
    </rdf:RDF>
  </metadata>
  <defs
     id="defs16">
    <linearGradient
       inkscape:collect="always"
       id="linearGradient848">
      <stop
         style="stop-color:#660029;stop-opacity:1"
         offset="0"
         id="stop844" />
      <stop
         style="stop-color:#b20048;stop-opacity:1"
         offset="1"
         id="stop846" />
    </linearGradient>
    <linearGradient
       inkscape:collect="always"
       xlink:href="#linearGradient848"
       id="linearGradient895"
       gradientUnits="userSpaceOnUse"
       gradientTransform="matrix(0.03232332,0,0,0.02930411,3.000002,3.713925)"
       x1="5.575531"
       y1="471.67694"
       x2="237.70486"
       y2="271.28119" />
  </defs>
  <sodipodi:namedview
     pagecolor="#ffffff"
     bordercolor="#666666"
     borderopacity="1"
     objecttolerance="10"
     gridtolerance="10"
     guidetolerance="10"
     inkscape:pageopacity="0"
     inkscape:pageshadow="2"
     inkscape:window-width="1920"
     inkscape:window-height="1007"
     id="namedview14"
     showgrid="false"
     inkscape:zoom="9.8125"
     inkscape:cx="37.618217"
     inkscape:cy="13.892061"
     inkscape:window-x="0"
     inkscape:window-y="0"
     inkscape:window-maximized="1"
     inkscape:current-layer="svg12"
     inkscape:document-rotation="0"
     inkscape:lockguides="false">
    <inkscape:grid
       type="xygrid"
       id="grid868"
       originx="0"
       originy="0" />
  </sodipodi:namedview>
  <g
     id="plasmavault_error">
    <rect
       style="opacity:0.00100002"
       width="32"
       height="32"
       x="0"
       y="0"
       id="rect7" />
    <path
       d="M 18.631713,17.661997 H 18.38471 l -0.0013,-1.230993 c -0.0013,-1.341 -1.092002,-2.432006 -2.433002,-2.431003 -1.341,0.0013 -2.431999,1.092004 -2.431,2.433004 l 0.0025,1.230999 h -0.08791 c -0.460992,0.0013 -0.835,0.374991 -0.833996,0.835997 v 3.665004 C 12.600002,22.626007 12.974998,23 13.435998,23 l 5.198009,-0.0034 c 0.460994,0 0.834998,-0.373998 0.833997,-0.834999 v -3.665974 c 0,-0.460998 -0.374997,-0.833997 -0.835999,-0.833997 z m -4.213998,0.0025 -0.0025,-1.230997 c 0,-0.847001 0.687998,-1.536002 1.534999,-1.537003 0.846999,0 1.535998,0.689 1.535998,1.535 l 0.0025,1.231003 z"
       id="path2"
       style="fill:#ff557f;fill-opacity:1;stroke-width:0.100003" />
    <path
       d="M 25.309094,8.8131839 H 15.3808 L 13.604361,7.1111593 C 12.846738,6.36348 11.980949,6 10.957579,6 H 6.690906 C 5.20713,6 4,7.094373 4,8.4395516 V 23.56044 C 4,24.905626 5.20713,26 6.690906,26 H 25.309094 C 26.79287,26 28,24.905626 28,23.56044 V 11.252745 C 28,9.9075522 26.79287,8.8131839 25.309094,8.8131839 Z M 27.272731,23.56044 c 0,0.981622 -0.880881,1.780215 -1.963637,1.780215 H 6.690906 c -1.082756,0 -1.963637,-0.798593 -1.963637,-1.780215 V 13.362641 c 0,-0.981627 0.880881,-1.780221 1.963637,-1.780221 h 18.618188 c 1.082756,0 1.963637,0.798594 1.963637,1.780221 z M 25.309094,10.923077 H 6.690906 c -0.774014,0 -1.472239,0.298199 -1.963637,0.774066 V 8.4395516 c 0,-0.9816161 0.880881,-1.7802174 1.963637,-1.7802174 h 4.266673 c 0.820357,0 1.491779,0.2858535 2.112922,0.8995637 0.0012,0.00125 0.0023,0.00282 0.0037,0.00386 l 1.885823,1.8068151 c 0.06869,0.06578 0.164168,0.1031374 0.264091,0.1031374 H 25.30899 c 1.082761,0 1.963634,0.7985966 1.963634,1.7802216 v 0.444396 C 26.781232,11.221438 26.083,10.923243 25.30899,10.923243 Z"
       id="path2-36"
       style="fill:#ff557f;fill-opacity:1;stroke-width:0.0461663" />
  </g>
  <g
     id="22-22-plasmavault_error"
     transform="translate(32,10)">
    <rect
       style="opacity:0.00100002"
       width="22"
       height="22"
       x="0"
       y="0"
       id="rect2" />
    <path
       d="M 12.821385,12.041333 H 12.65672 l -9.35e-4,-0.820664 C 12.654996,10.32667 11.927844,9.5993355 11.033844,9.6000005 10.139843,9.6008224 9.41251,10.328003 9.413177,11.222003 l 0.0014,0.820668 h -0.05858 c -0.3073304,6.21e-4 -0.5566632,0.249995 -0.5559957,0.55733 v 2.443334 c 0,0.307336 0.2499992,0.556665 0.5573327,0.556665 l 3.465337,-0.002 c 0.307327,0 0.556662,-0.249335 0.555997,-0.556669 v -2.443972 c 0,-0.307332 -0.249997,-0.555997 -0.557333,-0.555997 z m -2.809333,0.0015 -0.0014,-0.820665 c 0,-0.564666 0.458667,-1.023999 1.023331,-1.024668 0.564672,0 1.023999,0.459335 1.023999,1.023334 l 0.0015,0.820648 z"
       id="path2-7"
       style="fill:#ff557f;fill-opacity:1;stroke-width:0.0666646" />
    <path
       d="M 17.206054,6.175444 H 10.5872 L 9.402916,5.040764 C 8.897838,4.542322 8.320629,4.3 7.638379,4.3 H 4.793946 C 3.80475,4.3 3,5.029573 3,5.926361 v 10.080597 c 0,0.896794 0.80475,1.626376 1.793946,1.626376 H 17.206054 C 18.19525,17.633334 19,16.903752 19,16.006958 v -8.20512 c 0,-0.8968 -0.80475,-1.626394 -1.793946,-1.626394 z m 1.309097,9.831518 c 0,0.654412 -0.587241,1.186807 -1.309097,1.186807 H 4.793946 c -0.721856,0 -1.309097,-0.532395 -1.309097,-1.186811 V 9.208421 c 0,-0.654419 0.587241,-1.186801 1.309097,-1.186801 h 12.412108 c 0.721856,0 1.309097,0.532382 1.309097,1.186801 z M 17.206054,7.582042 H 4.793946 c -0.516014,0 -0.981505,0.198814 -1.309097,0.516061 V 5.926361 c 0,-0.654406 0.587241,-1.186802 1.309097,-1.186802 h 2.844433 c 0.546917,0 0.994519,0.190569 1.408622,0.599719 0.0012,0.0013 0.0023,0.0028 0.0032,0.0034 l 1.257213,1.204543 c 0.0457,0.04391 0.109447,0.06874 0.176062,0.06874 h 6.723249 c 0.721844,0 1.309091,0.532399 1.309091,1.186815 V 8.099039 C 18.188221,7.781752 17.72273,7.582955 17.206725,7.582955 Z"
       id="path2-36-3"
       style="fill:#ff557f;fill-opacity:1;stroke-width:0.0307764" />
  </g>
</svg>
