<?xml version="1.0" encoding="UTF-8" standalone="no"?>
<!-- Generator: Adobe Illustrator 16.0.0, SVG Export Plug-In . SVG Version: 6.00 Build 0)  -->

<svg
   xmlns:dc="http://purl.org/dc/elements/1.1/"
   xmlns:cc="http://creativecommons.org/ns#"
   xmlns:rdf="http://www.w3.org/1999/02/22-rdf-syntax-ns#"
   xmlns:svg="http://www.w3.org/2000/svg"
   xmlns="http://www.w3.org/2000/svg"
   xmlns:xlink="http://www.w3.org/1999/xlink"
   xmlns:sodipodi="http://sodipodi.sourceforge.net/DTD/sodipodi-0.dtd"
   xmlns:inkscape="http://www.inkscape.org/namespaces/inkscape"
   version="1.1"
   id="Capa_1"
   x="0px"
   y="0px"
   width="3.7434647"
   height="3.7663386"
   viewBox="0 0 3.7434647 3.7663386"
   xml:space="preserve"
   sodipodi:docname="start.svg"
   inkscape:version="0.92.4 (5da689c313, 2019-01-14)"><metadata
   id="metadata41"><rdf:RDF><cc:Work
       rdf:about=""><dc:format>image/svg+xml</dc:format><dc:type
         rdf:resource="http://purl.org/dc/dcmitype/StillImage" /><dc:title /></cc:Work></rdf:RDF></metadata><defs
   id="defs39"><linearGradient
     inkscape:collect="always"
     id="linearGradient835"><stop
       style="stop-color:#c8e0e7;stop-opacity:1"
       offset="0"
       id="stop831" /><stop
       style="stop-color:#005379;stop-opacity:1"
       offset="1"
       id="stop833" /></linearGradient><linearGradient
     inkscape:collect="always"
     xlink:href="#linearGradient835"
     id="linearGradient837"
     x1="47.218174"
     y1="45.655468"
     x2="47.722145"
     y2="95.485352"
     gradientUnits="userSpaceOnUse" /></defs><sodipodi:namedview
   pagecolor="#ffffff"
   bordercolor="#666666"
   borderopacity="1"
   objecttolerance="10"
   gridtolerance="10"
   guidetolerance="10"
   inkscape:pageopacity="0"
   inkscape:pageshadow="2"
   inkscape:window-width="1920"
   inkscape:window-height="1017"
   id="namedview37"
   showgrid="false"
   inkscape:zoom="105.00525"
   inkscape:cx="-0.7733886"
   inkscape:cy="1.859764"
   inkscape:window-x="0"
   inkscape:window-y="0"
   inkscape:window-maximized="1"
   inkscape:current-layer="Capa_1" />
<g
   id="start-here-kde"
   transform="matrix(-0.03937008,0,0,-0.03937008,3.7549214,3.7663387)">
	<path
   d="m 59.564,78.158 c -12.783,0 -24.225,-6.518 -31.924,-16.788 5.775,3.958 12.542,6.237 19.778,6.237 21.176,0 38.342,-17.014 38.342,-43.547 0,14.304 -11.596,25.899 -25.898,25.899 -14.303,0 -25.899,-11.595 -25.899,-25.898 0,-10.869 6.698,-20.168 16.188,-24.01 C 49.478,0.023 48.804,0 48.124,0 39.086,0 30.637,2.511 23.429,6.869 23.431,6.866 23.432,6.863 23.434,6.86 9.564,15.235 0.291,30.45 0.291,47.832 c 0,26.418 21.416,47.833 47.833,47.833 23.879,0 43.669,-17.5 47.251,-40.373 -7.381,13.715 -20.657,22.866 -35.811,22.866 z"
   id="path2"
   inkscape:connector-curvature="0"
   style="fill-opacity:1;fill:url(#linearGradient837)" />
</g>
<g
   id="g6"
   transform="translate(-0.01145669,0.03937008)">
</g>
<g
   id="g8"
   transform="translate(-0.01145669,0.03937008)">
</g>
<g
   id="g10"
   transform="translate(-0.01145669,0.03937008)">
</g>
<g
   id="g12"
   transform="translate(-0.01145669,0.03937008)">
</g>
<g
   id="g14"
   transform="translate(-0.01145669,0.03937008)">
</g>
<g
   id="g16"
   transform="translate(-0.01145669,0.03937008)">
</g>
<g
   id="g18"
   transform="translate(-0.01145669,0.03937008)">
</g>
<g
   id="g20"
   transform="translate(-0.01145669,0.03937008)">
</g>
<g
   id="g22"
   transform="translate(-0.01145669,0.03937008)">
</g>
<g
   id="g24"
   transform="translate(-0.01145669,0.03937008)">
</g>
<g
   id="g26"
   transform="translate(-0.01145669,0.03937008)">
</g>
<g
   id="g28"
   transform="translate(-0.01145669,0.03937008)">
</g>
<g
   id="g30"
   transform="translate(-0.01145669,0.03937008)">
</g>
<g
   id="g32"
   transform="translate(-0.01145669,0.03937008)">
</g>
<g
   id="g34"
   transform="translate(-0.01145669,0.03937008)">
</g>
</svg>
