<?xml version="1.0" encoding="UTF-8" standalone="no"?>
<svg
   xmlns:osb="http://www.openswatchbook.org/uri/2009/osb"
   xmlns:dc="http://purl.org/dc/elements/1.1/"
   xmlns:cc="http://creativecommons.org/ns#"
   xmlns:rdf="http://www.w3.org/1999/02/22-rdf-syntax-ns#"
   xmlns:svg="http://www.w3.org/2000/svg"
   xmlns="http://www.w3.org/2000/svg"
   xmlns:xlink="http://www.w3.org/1999/xlink"
   xmlns:sodipodi="http://sodipodi.sourceforge.net/DTD/sodipodi-0.dtd"
   xmlns:inkscape="http://www.inkscape.org/namespaces/inkscape"
   version="1.0"
   height="90"
   width="60"
   id="svg2"
   sodipodi:docname="button.svg"
   inkscape:version="0.92.4 (5da689c313, 2019-01-14)">
  <sodipodi:namedview
     pagecolor="#ffffff"
     bordercolor="#666666"
     borderopacity="1"
     objecttolerance="10"
     gridtolerance="10"
     guidetolerance="10"
     inkscape:pageopacity="0"
     inkscape:pageshadow="2"
     inkscape:window-width="1920"
     inkscape:window-height="1015"
     id="namedview187"
     showgrid="false"
     inkscape:zoom="1.4142136"
     inkscape:cx="202.91309"
     inkscape:cy="51.970841"
     inkscape:window-x="0"
     inkscape:window-y="0"
     inkscape:window-maximized="1"
     inkscape:current-layer="svg2"
     showguides="false"
     inkscape:lockguides="true">
    <sodipodi:guide
       position="90.875,-8.375"
       orientation="1,0"
       id="guide1053"
       inkscape:locked="true" />
  </sodipodi:namedview>
  <metadata
     id="metadata7">
    <rdf:RDF>
      <cc:Work
         rdf:about="">
        <dc:format>image/svg+xml</dc:format>
        <dc:type
           rdf:resource="http://purl.org/dc/dcmitype/StillImage" />
        <dc:title />
      </cc:Work>
      <cc:Work
         rdf:about="">
        <dc:format>image/svg+xml</dc:format>
        <dc:type
           rdf:resource="http://purl.org/dc/dcmitype/StillImage" />
      </cc:Work>
      <cc:Work
         rdf:about="">
        <dc:format>image/svg+xml</dc:format>
        <dc:type
           rdf:resource="http://purl.org/dc/dcmitype/StillImage" />
      </cc:Work>
    </rdf:RDF>
  </metadata>
  <defs
     id="defs5">
    <linearGradient
       id="linearGradient1020"
       inkscape:collect="always">
      <stop
         id="stop1016"
         offset="0"
         style="stop-color:#a1b4ba;stop-opacity:0.012" />
      <stop
         id="stop1018"
         offset="1"
         style="stop-color:#a1b4ba;stop-opacity:0.655" />
    </linearGradient>
    <linearGradient
       inkscape:collect="always"
       id="linearGradient1015">
      <stop
         style="stop-color:#a1b4ba;stop-opacity:0.204"
         offset="0"
         id="stop1011" />
      <stop
         style="stop-color:#a1b4ba;stop-opacity:0.655"
         offset="1"
         id="stop1013" />
    </linearGradient>
    <linearGradient
       inkscape:collect="always"
       id="linearGradient1012">
      <stop
         style="stop-color:#8a496b;stop-opacity:0.204"
         offset="0"
         id="stop1008" />
      <stop
         style="stop-color:#8a496b;stop-opacity:1"
         offset="1"
         id="stop1010" />
    </linearGradient>
    <linearGradient
       inkscape:collect="always"
       id="linearGradient997">
      <stop
         style="stop-color:#00ccff;stop-opacity:1;"
         offset="0"
         id="stop993" />
      <stop
         style="stop-color:#00ccff;stop-opacity:0;"
         offset="1"
         id="stop995" />
    </linearGradient>
    <linearGradient
       id="linearGradient4480">
      <stop
         id="stop4482"
         offset="0"
         style="stop-color:#f3f7f7;stop-opacity:1" />
      <stop
         id="stop4484"
         offset="1"
         style="stop-color:#d3dbdb;stop-opacity:1" />
    </linearGradient>
    <linearGradient
       id="linearGradient4412">
      <stop
         style="stop-color:#f3f7f7;stop-opacity:1"
         offset="0"
         id="stop4414" />
      <stop
         style="stop-color:#e0e8e8;stop-opacity:1"
         offset="1"
         id="stop4416" />
    </linearGradient>
    <linearGradient
       osb:paint="solid"
       id="linearGradient6476">
      <stop
         id="stop6478"
         offset="0"
         style="stop-color:#ffffff;stop-opacity:1;" />
    </linearGradient>
    <linearGradient
       osb:paint="solid"
       id="linearGradient6476-4">
      <stop
         id="stop6478-8"
         offset="0"
         style="stop-color:#ffffff;stop-opacity:1;" />
    </linearGradient>
    <linearGradient
       id="linearGradient4134-0">
      <stop
         id="stop4136-9"
         offset="0"
         style="stop-color:#fafafa;stop-opacity:1;" />
      <stop
         style="stop-color:#fafafa;stop-opacity:1;"
         offset="1"
         id="stop5116" />
      <stop
         id="stop4138-5"
         offset="1"
         style="stop-color:#afb4b9;stop-opacity:0.3137255;" />
    </linearGradient>
    <linearGradient
       y2="-138"
       x2="160"
       y1="-159"
       x1="160"
       gradientTransform="translate(-879.80709,948.58403)"
       gradientUnits="userSpaceOnUse"
       id="linearGradient3424"
       xlink:href="#linearGradient4134-0" />
    <linearGradient
       y2="-138"
       x2="160"
       y1="-159"
       x1="160"
       gradientTransform="translate(-823.80709,948.58403)"
       gradientUnits="userSpaceOnUse"
       id="linearGradient3426"
       xlink:href="#linearGradient4134-0" />
    <linearGradient
       y2="-138"
       x2="160"
       y1="-159"
       x1="160"
       gradientTransform="translate(-879.80709,948.58403)"
       gradientUnits="userSpaceOnUse"
       id="linearGradient3480"
       xlink:href="#linearGradient4134-0" />
    <linearGradient
       y2="-138"
       x2="160"
       y1="-159"
       x1="160"
       gradientTransform="translate(-823.80709,948.58403)"
       gradientUnits="userSpaceOnUse"
       id="linearGradient3482"
       xlink:href="#linearGradient4134-0" />
    <linearGradient
       id="linearGradient5627-9">
      <stop
         id="stop5629-4"
         offset="0"
         style="stop-color:#0c6395;stop-opacity:1;" />
      <stop
         id="stop5631-1"
         offset="1"
         style="stop-color:#3daeef;stop-opacity:1;" />
    </linearGradient>
    <style
       id="current-color-scheme"
       type="text/css">
      .ColorScheme-Text {
        color:#31363b;
      }
      .ColorScheme-Background{
        color:#eff0f1;
      }
      .ColorScheme-ViewText {
        color:#31363b;
      }
      .ColorScheme-ViewBackground{
        color:#fcfcfc;
      }
      .ColorScheme-ViewHover {
        color:#3daee9;
      }
      .ColorScheme-ViewFocus{
        color:#3daee9;
      }
      .ColorScheme-ButtonText {
        color:#31363b;
      }
      .ColorScheme-ButtonBackground{
        color:#eff0f1;
      }
      .ColorScheme-ButtonHover {
        color:#3daee9;
      }
      .ColorScheme-ButtonFocus{
        color:#3daee9;
      }
</style>
    <linearGradient
       gradientUnits="userSpaceOnUse"
       y2="110"
       x2="216"
       y1="107"
       x1="216"
       id="linearGradient4381"
       xlink:href="#linearGradient5627-9" />
    <linearGradient
       gradientUnits="userSpaceOnUse"
       y2="110"
       x2="216"
       y1="107"
       x1="216"
       id="linearGradient4389"
       xlink:href="#linearGradient5627-9" />
    <linearGradient
       gradientUnits="userSpaceOnUse"
       y2="-14"
       x2="162"
       y1="-48"
       x1="162"
       id="linearGradient4356"
       xlink:href="#linearGradient4412" />
    <linearGradient
       gradientUnits="userSpaceOnUse"
       y2="810.58405"
       x2="-719.80719"
       y1="789.58398"
       x1="-719.80719"
       id="linearGradient4364"
       xlink:href="#linearGradient4412" />
    <linearGradient
       gradientUnits="userSpaceOnUse"
       y2="810.58405"
       x2="-664.80713"
       y1="789.58398"
       x1="-664.80713"
       id="linearGradient4372"
       xlink:href="#linearGradient4412" />
    <linearGradient
       gradientUnits="userSpaceOnUse"
       y2="-110"
       x2="146"
       y1="-145"
       x1="146"
       id="linearGradient4443"
       xlink:href="#linearGradient5627-9" />
    <linearGradient
       gradientUnits="userSpaceOnUse"
       y2="-109.99986"
       x2="215"
       y1="-144.17677"
       x1="215.35355"
       id="linearGradient4451"
       xlink:href="#linearGradient997" />
    <linearGradient
       gradientUnits="userSpaceOnUse"
       y2="-145.04597"
       x2="215.24307"
       y1="-110.01468"
       x1="215.24307"
       id="linearGradient4459"
       xlink:href="#linearGradient1012" />
    <linearGradient
       inkscape:collect="always"
       xlink:href="#linearGradient1015"
       id="linearGradient1051"
       gradientUnits="userSpaceOnUse"
       x1="-692.28424"
       y1="812.67627"
       x2="-692.31671"
       y2="807.26404" />
    <linearGradient
       inkscape:collect="always"
       xlink:href="#linearGradient1020"
       id="linearGradient1022"
       gradientUnits="userSpaceOnUse"
       x1="161.11244"
       y1="-116.13146"
       x2="161.125"
       y2="-152.75005" />
    <linearGradient
       inkscape:collect="always"
       xlink:href="#linearGradient1015"
       id="linearGradient1041"
       gradientUnits="userSpaceOnUse"
       x1="215.40625"
       y1="105.25"
       x2="215.3125"
       y2="113.71875" />
    <linearGradient
       inkscape:collect="always"
       xlink:href="#linearGradient1015"
       id="linearGradient1057"
       x1="215.96875"
       y1="104.15625"
       x2="215.78125"
       y2="113.375"
       gradientUnits="userSpaceOnUse" />
  </defs>
  <g
     transform="matrix(-1,0,0,1,325,0)"
     id="pressed-left">
    <rect
       class="ColorScheme-ButtonFocus"
       y="-144.99994"
       x="216"
       height="34.999943"
       width="1"
       id="rect4176"
       style="opacity:0.01;fill:currentColor;fill-opacity:1;stroke:none"
       transform="scale(1,-1)" />
    <rect
       transform="scale(1,-1)"
       style="fill:#a1b4ba;fill-opacity:0.012;stroke:none;opacity:0.6"
       id="rect4178"
       width="1"
       height="34.999943"
       x="215"
       y="-144.9998"
       class="ColorScheme-ButtonFocus" />
    <rect
       class="ColorScheme-ButtonText"
       y="110"
       x="-217"
       height="34.999943"
       width="1"
       id="rect4180"
       style="opacity:1;fill:#004563;fill-opacity:1;stroke:none"
       transform="scale(-1,1)" />
  </g>
  <g
     transform="matrix(-1,0,0,1,325,0)"
     id="pressed-topleft">
    <path
       class="ColorScheme-ButtonFocus"
       id="path4184"
       d="m 215,107 0,1 0,2 1,0 0,-2 c 0,-0.55228 -0.44772,-1 -1,-1 z"
       style="fill:url(#linearGradient1041);opacity:0.01;fill-opacity:1" />
    <g
       id="g4186">
      <path
         class="ColorScheme-ButtonFocus"
         id="path4188"
         d="m 215,106 c 1.10457,0 2,0.89543 2,2 l 0,2 -1,0 0,-2 c 0,-0.55228 -0.44772,-1 -1,-1 z"
         style="opacity:0.01;color:#3daee9;fill:url(#linearGradient4389);fill-opacity:1;stroke:none" />
      <path
         style="opacity:1;fill:#004563;fill-opacity:1;stroke:none"
         d="m 215,106 c 1.10457,0 2,0.89543 2,2 l 0,2 -1,0 0,-2 c 0,-0.55228 -0.44772,-1 -1,-1 z"
         id="path4190"
         class="ColorScheme-ButtonText" />
    </g>
    <path
       style="opacity:0.6;fill:#a1b4ba;fill-opacity:0.01176471;stroke:none"
       d="m 215,107.00002 v 1 2 h 1 v -2 c 0,-0.55228 -0.44772,-1 -1,-1 z"
       id="path4397"
       inkscape:connector-curvature="0" />
  </g>
  <g
     transform="matrix(-1,0,0,1,325,0)"
     id="pressed-bottomleft">
    <path
       class="ColorScheme-ButtonFocus"
       id="path4194"
       d="m 215,147 c 1.10457,0 2,-0.89543 2,-2 l -1,0 c 0,0.55228 -0.44772,1 -1,1 z"
       style="opacity:0.01;fill:currentColor;fill-opacity:1;stroke:none" />
    <path
       class="ColorScheme-ButtonFocus"
       id="path4196"
       d="m 215,145 0,1 c 0.55228,0 1,-0.44772 1,-1 l -1,0 z"
       style="fill:#a1b4ba;fill-opacity:0.01176471;stroke:none;opacity:0.6" />
    <path
       style="opacity:1;fill:#004563;fill-opacity:1;stroke:none"
       d="m 215,147 c 1.10457,0 2,-0.89543 2,-2 l -1,0 c 0,0.55228 -0.44772,1 -1,1 z"
       id="path4198"
       class="ColorScheme-ButtonText" />
  </g>
  <g
     id="pressed-bottom">
    <rect
       class="ColorScheme-ButtonFocus"
       style="fill:#a1b4ba;fill-opacity:0.01176471;stroke:none;opacity:0.6"
       id="rect5410"
       width="105"
       height="1"
       x="110.00005"
       y="-146"
       transform="scale(1,-1)" />
    <rect
       transform="scale(1,-1)"
       y="-147"
       x="110.00005"
       height="1"
       width="105"
       id="rect4086"
       style="opacity:0.01;fill:currentColor;fill-opacity:1;stroke:none"
       class="ColorScheme-ButtonFocus" />
    <rect
       class="ColorScheme-ButtonText"
       style="opacity:1;fill:#004563;fill-opacity:1;stroke:none"
       id="rect4088"
       width="105"
       height="1"
       x="110.00005"
       y="-147"
       transform="scale(1,-1)" />
  </g>
  <g
     id="pressed-right">
    <rect
       transform="scale(1,-1)"
       style="opacity:0.01;fill:currentColor;fill-opacity:1;stroke:none"
       id="rect3144"
       width="1"
       height="35"
       x="216"
       y="-144.99994"
       class="ColorScheme-ButtonFocus" />
    <rect
       class="ColorScheme-ButtonFocus"
       y="-144.9998"
       x="215"
       height="35"
       width="1"
       id="rect5434"
       style="fill:#a1b4ba;fill-opacity:0.01176471;stroke:none;opacity:0.6"
       transform="scale(1,-1)" />
    <rect
       transform="scale(-1,1)"
       style="opacity:1;fill:#004563;fill-opacity:1;stroke:none"
       id="rect3135"
       width="1"
       height="35"
       x="-217"
       y="110"
       class="ColorScheme-ButtonText" />
  </g>
  <g
     id="pressed-top">
    <rect
       class="ColorScheme-ButtonFocus"
       style="opacity:0.01;color:#3daee9;fill:#0c6395;fill-opacity:1"
       id="rect3921"
       width="105"
       height="1"
       x="110"
       y="106" />
    <g
       transform="matrix(1.9090909,0,0,-1.5,1484.1774,1324.376)"
       id="g4202">
      <rect
         class="ColorScheme-ButtonFocus"
         style="fill:url(#linearGradient1051);fill-opacity:1;opacity:0.01"
         id="rect5416"
         width="55"
         height="2"
         x="-719.80719"
         y="809.58398" />
      <rect
         y="809.58398"
         x="-719.80719"
         height="2"
         width="55"
         id="rect4391"
         style="opacity:0.01000001;fill:#a1b4ba;fill-opacity:1;stroke:none" />
    </g>
    <rect
       y="106"
       x="110"
       height="1"
       width="105"
       id="rect3123"
       style="opacity:1;fill:#004563;fill-opacity:1;stroke:none"
       class="ColorScheme-ButtonText" />
  </g>
  <g
     transform="translate(829.80716,-827.58398)"
     id="normal-topleft">
    <path
       class="ColorScheme-ButtonText"
       style="opacity:0.7;fill:#004563;fill-opacity:1;stroke:none"
       d="m -719.80709,777.58403 c -1.10457,0 -2,0.89543 -2,2 l 1,0 c 0,-0.55228 0.44772,-1 1,-1 l 0,-1 z"
       id="path4101" />
    <path
       class="ColorScheme-ButtonBackground"
       style="fill:currentColor;fill-opacity:1;stroke:none"
       id="path4105"
       d="m 162,-159 a 2,2 0 0 1 -2,2 l 0,-2 z"
       transform="matrix(-0.5,0,0,-0.5,-639.80709,700.08403)" />
    <path
       transform="matrix(-0.5,0,0,-0.5,-639.80709,700.08403)"
       d="m 162,-159 a 2,2 0 0 1 -2,2 l 0,-2 z"
       id="path3967"
       style="fill:#001c3c;fill-opacity:1;stroke:none"
       class="ColorScheme-ButtonBackground" />
  </g>
  <g
     id="normal-bottomleft"
     transform="translate(829.80716,-823.58399)">
    <path
       class="ColorScheme-ButtonText"
       id="path4111"
       d="m -719.80709,812.58403 c -1.10457,0 -2,-0.89543 -2,-2 l 1,0 c 0,0.55228 0.44772,1 1,1 l 0,1 z"
       style="opacity:0.7;fill:#004563;fill-opacity:1;stroke:none" />
    <path
       class="ColorScheme-ButtonBackground"
       transform="matrix(-0.5,0,0,0.5,-639.80709,890.08403)"
       d="m 162,-159 a 2,2 0 0 1 -2,2 l 0,-2 z"
       id="path4113"
       style="fill:currentColor;fill-opacity:1;stroke:none" />
    <path
       style="opacity:1;fill:#001c3c;fill-opacity:1;stroke:none"
       id="path3919"
       d="m 162,-159 a 2,2 0 0 1 -2,2 l 0,-2 z"
       transform="matrix(-0.5,0,0,0.5,-639.80709,890.08403)" />
  </g>
  <g
     transform="matrix(1,0,0,1.666664,829.80716,-1363.9712)"
     id="normal-left">
    <rect
       class="ColorScheme-ButtonText"
       style="opacity:0.7;fill:#004563;fill-opacity:1;stroke:none"
       id="rect4108"
       width="1"
       height="21"
       x="-721.80719"
       y="789.58398" />
    <rect
       class="ColorScheme-ButtonBackground"
       y="789.58398"
       x="-720.80719"
       height="21"
       width="1"
       id="rect4115"
       style="fill:currentColor;fill-opacity:1;stroke:none" />
    <rect
       style="fill:#001c3c;fill-opacity:1;stroke:none"
       id="rect3943"
       width="1"
       height="21"
       x="-720.80719"
       y="789.58398"
       class="ColorScheme-ButtonBackground" />
  </g>
  <g
     transform="matrix(1.9090909,0,0,1,1484.1774,-827.58398)"
     id="normal-top">
    <rect
       class="ColorScheme-ButtonText"
       style="opacity:0.7;fill:#004563;fill-opacity:1;stroke:none"
       id="rect3329"
       width="55"
       height="1"
       x="-719.80719"
       y="777.58398" />
    <rect
       class="ColorScheme-ButtonBackground"
       y="778.58398"
       x="-719.80719"
       height="1"
       width="55"
       id="rect4117"
       style="fill:currentColor;fill-opacity:1;stroke:none" />
    <rect
       style="fill:#001c3c;fill-opacity:1;stroke:none"
       id="rect3965"
       width="55"
       height="1"
       x="-719.80719"
       y="778.58398"
       class="ColorScheme-ButtonBackground" />
  </g>
  <g
     transform="matrix(1.9090909,0,0,1,1484.1774,-823.58399)"
     id="normal-bottom">
    <rect
       class="ColorScheme-ButtonText"
       y="811.58398"
       x="-719.80719"
       height="1"
       width="55"
       id="rect4099"
       style="opacity:0.7;fill:#004563;fill-opacity:1;stroke:none" />
    <rect
       class="ColorScheme-ButtonBackground"
       style="fill:currentColor;fill-opacity:1;stroke:none"
       id="rect4119"
       width="55"
       height="1"
       x="-719.80719"
       y="810.58398" />
    <rect
       y="810.58398"
       x="-719.80719"
       height="1"
       width="55"
       id="rect3149"
       style="opacity:1;fill:#001c3c;fill-opacity:1;stroke:none" />
  </g>
  <g
     transform="translate(879.80713,-827.58398)"
     id="normal-topright">
    <path
       class="ColorScheme-ButtonText"
       id="path4121"
       d="m -664.80709,777.58403 c 1.10457,0 2,0.89543 2,2 l -1,0 c 0,-0.55228 -0.44772,-1 -1,-1 l 0,-1 z"
       style="opacity:0.70000001;fill:#004563;fill-opacity:1;stroke:none" />
    <path
       class="ColorScheme-ButtonBackground"
       transform="matrix(0.5,0,0,-0.5,-744.80709,700.08403)"
       d="m 162,-159 a 2,2 0 0 1 -2,2 l 0,-2 z"
       id="path4123"
       style="fill:currentColor;fill-opacity:1;stroke:none" />
    <path
       style="fill:#001c3c;fill-opacity:1;stroke:none"
       id="path3963"
       d="m 162,-159 a 2,2 0 0 1 -2,2 l 0,-2 z"
       transform="matrix(0.5,0,0,-0.5,-744.80709,700.08403)"
       class="ColorScheme-ButtonBackground" />
  </g>
  <g
     transform="translate(879.80713,-823.58399)"
     id="normal-bottomright">
    <path
       class="ColorScheme-ButtonText"
       style="opacity:0.7;fill:#004563;fill-opacity:1;stroke:none"
       d="m -664.80709,812.58403 c 1.10457,0 2,-0.89543 2,-2 l -1,0 c 0,0.55228 -0.44772,1 -1,1 l 0,1 z"
       id="path4127" />
    <path
       class="ColorScheme-ButtonBackground"
       style="fill:currentColor;fill-opacity:1;stroke:none"
       id="path4130"
       d="m 162,-159 a 2,2 0 0 1 -2,2 l 0,-2 z"
       transform="matrix(0.5,0,0,0.5,-744.80709,890.08403)" />
    <path
       transform="matrix(0.5,0,0,0.5,-744.80709,890.08403)"
       d="m 162,-159 a 2,2 0 0 1 -2,2 l 0,-2 z"
       id="path3921"
       style="opacity:1;color:#eff0f1;fill:#001c3c;fill-opacity:1;stroke:none"
       class="ColorScheme-ButtonBackground" />
  </g>
  <g
     transform="matrix(1,0,0,1.666664,879.80713,-1363.9712)"
     id="normal-right">
    <rect
       class="ColorScheme-ButtonText"
       y="789.58398"
       x="662.80713"
       height="21"
       width="1"
       id="rect4125"
       style="opacity:0.7;fill:#004563;fill-opacity:1;stroke:none"
       transform="scale(-1,1)" />
    <rect
       class="ColorScheme-ButtonBackground"
       style="fill:currentColor;fill-opacity:1;stroke:none"
       id="rect4142"
       width="1"
       height="21"
       x="-664.80713"
       y="789.58398" />
    <rect
       y="789.58398"
       x="-664.80713"
       height="21"
       width="1"
       id="rect3953"
       style="fill:#001c3c;fill-opacity:1;stroke:none"
       class="ColorScheme-ButtonBackground" />
  </g>
  <g
     id="normal-center">
    <rect
       style="color:#eff0f1;opacity:0.01000001;fill:#707880;fill-opacity:1;stroke:none"
       id="rect3935"
       width="105"
       height="34.999943"
       x="110.00007"
       y="-47.99995"
       class="ColorScheme-ButtonBackground" />
    <rect
       class="ColorScheme-ButtonBackground"
       y="-48"
       x="109.99997"
       height="34.999943"
       width="105"
       id="rect3933"
       style="color:#eff0f1;opacity:0.01000001;fill:#000914;fill-opacity:1;stroke:none" />
  </g>
  <rect
     class="ColorScheme-ButtonFocus"
     transform="scale(1,-1)"
     style="color:#3daee9;opacity:0.6;fill:url(#linearGradient1022);fill-opacity:1;stroke:none"
     id="pressed-center"
     width="105"
     height="34.999943"
     x="109.99997"
     y="-144.99998"
     ry="0" />
  <g
     id="hover-topleft"
     transform="translate(829.80716,-771.58398)">
    <path
       id="path3376"
       d="m -719.80709,777.58403 c -1.10457,0 -2,0.89543 -2,2 l 1,0 c 0,-0.55228 0.44772,-1 1,-1 l 0,-1 z"
       style="opacity:1;fill:#004563;fill-opacity:1;stroke:none"
       class="ColorScheme-ButtonHover" />
    <path
       transform="matrix(-0.5,0,0,-0.5,-639.80709,700.08403)"
       d="m 162,-159 a 2,2 0 0 1 -2,2 l 0,-2 z"
       id="path3378"
       style="fill:#000914;fill-opacity:1;stroke:none;opacity:0.01" />
  </g>
  <g
     transform="translate(829.80716,-767.58399)"
     id="hover-bottomleft">
    <path
       style="opacity:1;fill:#004563;fill-opacity:1;stroke:none"
       d="m -719.80709,812.58403 c -1.10457,0 -2,-0.89543 -2,-2 l 1,0 c 0,0.55228 0.44772,1 1,1 l 0,1 z"
       id="path3382"
       class="ColorScheme-ButtonHover" />
    <path
       style="fill:#000914;fill-opacity:1;stroke:none;opacity:0.01"
       id="path3384"
       d="m 162,-159 a 2,2 0 0 1 -2,2 l 0,-2 z"
       transform="matrix(-0.5,0,0,0.5,-639.80709,890.08403)" />
  </g>
  <g
     id="hover-left"
     transform="matrix(1,0,0,1.666664,829.80716,-1307.9712)">
    <rect
       y="789.58398"
       x="-721.80719"
       height="21"
       width="1"
       id="rect3388"
       style="opacity:1;fill:#004563;fill-opacity:1;stroke:none"
       class="ColorScheme-ButtonHover" />
    <rect
       style="fill:#000914;fill-opacity:1;stroke:none;opacity:0.01"
       id="rect3390"
       width="1"
       height="21"
       x="-720.80719"
       y="789.58398" />
  </g>
  <g
     id="hover-top"
     transform="matrix(1.9090909,0,0,1,1484.1774,-771.58398)">
    <rect
       y="777.58398"
       x="-719.80719"
       height="1"
       width="55"
       id="rect3394"
       style="opacity:1;fill:#004563;fill-opacity:1;stroke:none"
       class="ColorScheme-ButtonHover" />
    <rect
       style="fill:#000914;fill-opacity:1;stroke:none;opacity:0.01"
       id="rect3396"
       width="55"
       height="1"
       x="-719.80719"
       y="778.58398" />
  </g>
  <g
     id="hover-bottom"
     transform="matrix(1.9090909,0,0,1,1484.1774,-767.58399)">
    <rect
       style="opacity:1;fill:#004563;fill-opacity:1;stroke:none"
       id="rect3400"
       width="55"
       height="1"
       x="-719.80719"
       y="811.58398"
       class="ColorScheme-ButtonHover" />
    <rect
       y="810.58398"
       x="-719.80719"
       height="1"
       width="55"
       id="rect3402"
       style="fill:#000914;fill-opacity:1;stroke:none;opacity:0.01" />
  </g>
  <g
     id="hover-topright"
     transform="translate(879.80713,-771.58398)">
    <path
       style="opacity:1;fill:#004563;fill-opacity:1;stroke:none"
       d="m -664.80709,777.58403 c 1.10457,0 2,0.89543 2,2 l -1,0 c 0,-0.55228 -0.44772,-1 -1,-1 l 0,-1 z"
       id="path3406"
       class="ColorScheme-ButtonHover" />
    <path
       style="fill:#000914;fill-opacity:1;stroke:none;opacity:0.01"
       id="path3408"
       d="m 162,-159 a 2,2 0 0 1 -2,2 l 0,-2 z"
       transform="matrix(0.5,0,0,-0.5,-744.80709,700.08403)" />
  </g>
  <g
     id="hover-bottomright"
     transform="translate(879.80713,-767.58399)">
    <path
       id="path3412"
       d="m -664.80709,812.58403 c 1.10457,0 2,-0.89543 2,-2 l -1,0 c 0,0.55228 -0.44772,1 -1,1 l 0,1 z"
       style="opacity:1;fill:#004563;fill-opacity:1;stroke:none"
       class="ColorScheme-ButtonHover" />
    <path
       transform="matrix(0.5,0,0,0.5,-744.80709,890.08403)"
       d="m 162,-159 a 2,2 0 0 1 -2,2 l 0,-2 z"
       id="path3414"
       style="fill:#000914;fill-opacity:1;stroke:none;opacity:0.01" />
  </g>
  <g
     id="hover-right"
     transform="matrix(1,0,0,1.666664,879.80713,-1307.9712)">
    <rect
       transform="scale(-1,1)"
       style="opacity:1;fill:#004563;fill-opacity:1;stroke:none"
       id="rect3418"
       width="1"
       height="21"
       x="662.80713"
       y="789.58398"
       class="ColorScheme-ButtonHover" />
    <rect
       y="789.58398"
       x="-664.80713"
       height="21"
       width="1"
       id="rect3420"
       style="fill:#000914;fill-opacity:1;stroke:none;opacity:0.01" />
  </g>
  <rect
     style="fill:#000914;fill-opacity:1;stroke:none;opacity:0.01"
     id="hover-center"
     width="105"
     height="34.999943"
     x="109.99997"
     y="8.0000458"
     class="ColorScheme-Background" />
  <g
     transform="translate(829.80716,-723.58398)"
     id="focus-topleft">
    <path
       id="path3936"
       d="m -719.80716,776.58403 c -1.65685,0 -3,1.34314 -3,3 l 1.5,0 c 0,-0.82842 0.67158,-1.5 1.5,-1.5 l 0,-1.5 z"
       style="fill:#004563;fill-opacity:1;stroke:none;opacity:1"
       class="ColorScheme-ButtonHover" />
    <path
       class="ColorScheme-ButtonHover"
       style="fill:#ffffff;fill-opacity:1;stroke:none;opacity:1"
       d="m -719.80709,777.58403 c -1.10457,0 -2,0.89543 -2,2 l 1,0 c 0,-0.55228 0.44772,-1 1,-1 l 0,-1 z"
       id="path3432" />
    <path
       style="fill:#000914;fill-opacity:1;stroke:none;opacity:0.01"
       id="path3434"
       d="m 162,-159 a 2,2 0 0 1 -2,2 l 0,-2 z"
       transform="matrix(-0.5,0,0,-0.5,-639.80709,700.08403)" />
  </g>
  <g
     id="focus-bottomleft"
     transform="translate(829.80716,-719.58399)">
    <path
       style="fill:#004563;fill-opacity:1;stroke:none;opacity:1"
       d="m -719.80716,813.58399 c -1.65685,0 -3,-1.34314 -3,-3 l 1.5,0 c 0,0.82842 0.67158,1.5 1.5,1.5 l 0,1.5 z"
       id="path3940"
       class="ColorScheme-ButtonHover" />
    <path
       class="ColorScheme-ButtonHover"
       id="path3438"
       d="m -719.80709,812.58403 c -1.10457,0 -2,-0.89543 -2,-2 l 1,0 c 0,0.55228 0.44772,1 1,1 l 0,1 z"
       style="fill:#ffffff;fill-opacity:1;stroke:none" />
    <path
       transform="matrix(-0.5,0,0,0.5,-639.80709,890.08403)"
       d="m 162,-159 a 2,2 0 0 1 -2,2 l 0,-2 z"
       id="path3440"
       style="fill:#000914;fill-opacity:1;stroke:none;opacity:0.01" />
  </g>
  <g
     transform="matrix(1,0,0,1.666664,829.80716,-1259.9712)"
     id="focus-left">
    <rect
       class="ColorScheme-ButtonHover"
       style="fill:#000914;fill-opacity:1;stroke:none;opacity:0.01"
       id="rect3444"
       width="1"
       height="21"
       x="-721.80719"
       y="789.58398" />
    <rect
       y="789.58398"
       x="-720.80719"
       height="21"
       width="1"
       id="rect3446"
       style="fill:#000914;fill-opacity:1;stroke:none;opacity:0.01" />
    <rect
       y="789.58398"
       x="-722.80719"
       height="21"
       width="1"
       id="rect3938"
       style="fill:#004563;fill-opacity:1;stroke:none;opacity:1"
       class="ColorScheme-ButtonHover" />
  </g>
  <g
     transform="matrix(1.9090909,0,0,1,1484.1774,-723.58398)"
     id="focus-top">
    <rect
       class="ColorScheme-ButtonHover"
       style="fill:#000914;fill-opacity:1;stroke:none;opacity:0.01"
       id="rect3450"
       width="55"
       height="1"
       x="-719.80719"
       y="777.58398" />
    <rect
       y="778.58398"
       x="-719.80719"
       height="1"
       width="55"
       id="rect3452"
       style="fill:#000914;fill-opacity:1;stroke:none;opacity:0.01" />
    <rect
       y="776.58398"
       x="-719.80719"
       height="1"
       width="55"
       id="rect3934"
       style="fill:#004563;fill-opacity:1;stroke:none;opacity:1"
       class="ColorScheme-ButtonHover" />
  </g>
  <g
     transform="matrix(1.9090909,0,0,1,1484.1774,-719.58399)"
     id="focus-bottom">
    <rect
       class="ColorScheme-ButtonHover"
       y="811.58398"
       x="-719.80719"
       height="1"
       width="55"
       id="rect3456"
       style="fill:#000914;fill-opacity:1;stroke:none;opacity:0.01" />
    <rect
       style="fill:#000914;fill-opacity:1;stroke:none;opacity:0.01"
       id="rect3458"
       width="55"
       height="1"
       x="-719.80719"
       y="810.58398" />
    <rect
       style="fill:#004563;fill-opacity:1;stroke:none;opacity:1"
       id="rect3926"
       width="55"
       height="1"
       x="-719.80719"
       y="812.58398"
       class="ColorScheme-ButtonHover" />
  </g>
  <g
     transform="translate(879.80713,-723.58398)"
     id="focus-topright">
    <path
       style="fill:#004563;fill-opacity:1;stroke:none;opacity:1"
       d="m -664.80709,776.58403 c 1.65685,0 3,1.34314 3,3 l -1.5,0 c 0,-0.82842 -0.67158,-1.5 -1.5,-1.5 l 0,-1.5 z"
       id="path3932"
       class="ColorScheme-ButtonHover" />
    <path
       class="ColorScheme-ButtonHover"
       id="path3462"
       d="m -664.80709,777.58403 c 1.10457,0 2,0.89543 2,2 l -1,0 c 0,-0.55228 -0.44772,-1 -1,-1 l 0,-1 z"
       style="fill:#ffffff;fill-opacity:1;stroke:none;opacity:1" />
    <path
       transform="matrix(0.5,0,0,-0.5,-744.80709,700.08403)"
       d="m 162,-159 a 2,2 0 0 1 -2,2 l 0,-2 z"
       id="path3464"
       style="fill:#000914;fill-opacity:1;stroke:none;opacity:0.01" />
  </g>
  <g
     transform="translate(879.80713,-719.58399)"
     id="focus-bottomright">
    <path
       id="path3928"
       d="m -664.80709,813.58399 c 1.65685,0 3,-1.34314 3,-3 l -1.5,0 c 0,0.82842 -0.67158,1.5 -1.5,1.5 l 0,1.5 z"
       style="fill:#004563;fill-opacity:1;stroke:none;opacity:1"
       class="ColorScheme-ButtonHover" />
    <path
       class="ColorScheme-ButtonHover"
       style="fill:#ffffff;fill-opacity:1;stroke:none"
       d="m -664.80709,812.58403 c 1.10457,0 2,-0.89543 2,-2 l -1,0 c 0,0.55228 -0.44772,1 -1,1 l 0,1 z"
       id="path3468" />
    <path
       style="fill:#000914;fill-opacity:1;stroke:none;opacity:0.01"
       id="path3470"
       d="m 162,-159 a 2,2 0 0 1 -2,2 l 0,-2 z"
       transform="matrix(0.5,0,0,0.5,-744.80709,890.08403)" />
  </g>
  <g
     transform="matrix(1,0,0,1.666664,879.80713,-1259.9712)"
     id="focus-right">
    <rect
       class="ColorScheme-ButtonHover"
       y="789.58398"
       x="662.80713"
       height="21"
       width="1"
       id="rect3474"
       style="fill:#000914;fill-opacity:1;stroke:none;opacity:0.01"
       transform="scale(-1,1)" />
    <rect
       style="fill:#000914;fill-opacity:1;stroke:none;opacity:0.01"
       id="rect3476"
       width="1"
       height="21"
       x="-664.80713"
       y="789.58398" />
    <rect
       transform="scale(-1,1)"
       style="fill:#004563;fill-opacity:1;stroke:none;opacity:1"
       id="rect3930"
       width="1"
       height="21"
       x="661.80713"
       y="789.58398"
       class="ColorScheme-ButtonHover" />
  </g>
  <rect
     class="ColorScheme-Background"
     y="56.000046"
     x="109.99997"
     height="34.999943"
     width="105"
     id="focus-center"
     style="fill:#000914;fill-opacity:1;stroke:none;opacity:0.01" />
  <rect
     y="63.000046"
     x="81"
     height="1"
     width="2"
     id="focus-hint-top-margin"
     style="fill:#005f88;fill-opacity:1;fill-rule:nonzero;stroke:none" />
  <rect
     style="fill:#005f88;fill-opacity:1;fill-rule:nonzero;stroke:none"
     id="focus-hint-bottom-margin"
     width="2"
     height="1"
     x="81"
     y="87.000046" />
  <rect
     style="fill:#005f88;fill-opacity:1;fill-rule:nonzero;stroke:none"
     id="focus-hint-left-margin"
     width="1"
     height="1.9999999"
     x="70"
     y="74.000046" />
  <rect
     y="74.000046"
     x="94"
     height="1.9999999"
     width="1"
     id="focus-hint-right-margin"
     style="fill:#005f88;fill-opacity:1;fill-rule:nonzero;stroke:none" />
  <rect
     style="fill:#4e9a06;fill-opacity:1;fill-rule:nonzero;stroke:none"
     id="hover-hint-top-margin"
     width="2"
     height="0.0099999998"
     x="81"
     y="14.990044" />
  <rect
     y="37.990047"
     x="81"
     height="0.0099999998"
     width="2"
     id="hover-hint-bottom-margin"
     style="fill:#4e9a06;fill-opacity:1;fill-rule:nonzero;stroke:none" />
  <g
     transform="translate(41,52)"
     id="g4066">
    <rect
       y="33"
       x="13"
       height="1.9999999"
       width="8"
       id="rect4260"
       style="opacity:0;fill:#4e9a06;fill-opacity:1;fill-rule:nonzero;stroke:none" />
  </g>
  <rect
     y="25.000046"
     x="70"
     height="1.9999999"
     width="0.0099999998"
     id="hover-hint-left-margin"
     style="fill:#4e9a06;fill-opacity:1;fill-rule:nonzero;stroke:none" />
  <rect
     style="fill:#4e9a06;fill-opacity:1;fill-rule:nonzero;stroke:none"
     id="hover-hint-right-margin"
     width="0.0099999998"
     height="1.9999999"
     x="95"
     y="25.000046" />
  <rect
     y="-16.999954"
     x="158"
     height="6"
     width="2"
     id="normal-hint-bottom-margin"
     style="fill:#005f88;fill-opacity:1;fill-rule:nonzero;stroke:none" />
  <rect
     style="fill:#005f88;fill-opacity:1;fill-rule:nonzero;stroke:none"
     id="normal-hint-top-margin"
     width="2"
     height="6"
     x="156"
     y="-49.999954" />
  <rect
     y="108"
     x="28.999954"
     height="6"
     width="2"
     id="normal-hint-left-margin"
     style="fill:#005f88;fill-opacity:1;fill-rule:nonzero;stroke:none"
     transform="matrix(0,-1,1,0,0,0)" />
  <rect
     y="107.00005"
     x="158"
     height="6"
     width="2"
     id="pressed-hint-top-margin"
     style="fill:#005f88;fill-opacity:1;fill-rule:nonzero;stroke:none" />
  <rect
     y="211"
     x="-129.00005"
     height="6"
     width="2"
     id="pressed-hint-right-margin"
     style="fill:#005f88;fill-opacity:1;fill-rule:nonzero;stroke:none"
     transform="matrix(0,-1,1,0,0,0)" />
  <rect
     style="fill:#005f88;fill-opacity:1;fill-rule:nonzero;stroke:none"
     id="normal-hint-compose-over-border"
     width="3"
     height="2.6611671"
     x="-15"
     y="10"
     ry="0" />
  <rect
     ry="0"
     y="50"
     x="-15"
     height="2.6611671"
     width="3"
     id="pressed-hint-compose-over-border"
     style="fill:#005f88;fill-opacity:1;fill-rule:nonzero;stroke:none" />
  <rect
     transform="matrix(0,-1,1,0,0,0)"
     style="fill:#005f88;fill-opacity:1;fill-rule:nonzero;stroke:none"
     id="normal-hint-right-margin"
     width="2"
     height="6"
     x="28.999954"
     y="211" />
  <rect
     transform="matrix(0,-1,1,0,0,0)"
     style="fill:#005f88;fill-opacity:1;fill-rule:nonzero;stroke:none"
     id="pressed-hint-left-margin"
     width="2"
     height="6"
     x="-129.00005"
     y="108" />
  <rect
     style="fill:#005f88;fill-opacity:1;fill-rule:nonzero;stroke:none"
     id="pressed-hint-bottom-margin"
     width="2"
     height="6"
     x="161"
     y="141.00005" />
  <g
     id="pressed-topright">
    <path
       class="ColorScheme-ButtonFocus"
       style="fill:url(#linearGradient1057);opacity:0.01;fill-opacity:1"
       d="m 215,107 0,1 0,2 1,0 0,-2 c 0,-0.55228 -0.44772,-1 -1,-1 z"
       id="path4204" />
    <g
       id="g4097">
      <path
         style="opacity:0.01;color:#3daee9;fill:url(#linearGradient4381);fill-opacity:1;stroke:none"
         d="m 215,106 c 1.10457,0 2,0.89543 2,2 l 0,2 -1,0 0,-2 c 0,-0.55228 -0.44772,-1 -1,-1 z"
         id="path3917"
         class="ColorScheme-ButtonFocus" />
      <path
         class="ColorScheme-ButtonText"
         id="path3129"
         d="m 215,106 c 1.10457,0 2,0.89543 2,2 l 0,2 -1,0 0,-2 c 0,-0.55228 -0.44772,-1 -1,-1 z"
         style="opacity:1;fill:#004563;fill-opacity:1;stroke:none" />
    </g>
    <path
       id="path4395"
       d="m 215.00004,106.99984 v 1 2 h 1 v -2 c 0,-0.55228 -0.44772,-1 -1,-1 z"
       style="opacity:0.60000005;fill:#a1b4ba;fill-opacity:0.01176471;stroke:none"
       inkscape:connector-curvature="0" />
  </g>
  <g
     id="pressed-bottomright">
    <path
       style="opacity:0.01;fill:currentColor;fill-opacity:1;stroke:none"
       d="m 215,147 c 1.10457,0 2,-0.89543 2,-2 l -1,0 c 0,0.55228 -0.44772,1 -1,1 z"
       id="path4083"
       class="ColorScheme-ButtonFocus" />
    <path
       style="fill:#a1b4ba;fill-opacity:0.01176471;stroke:none;opacity:0.92"
       d="m 215,145 0,1 c 0.55228,0 1,-0.44772 1,-1 l -1,0 z"
       id="path4206"
       class="ColorScheme-ButtonFocus" />
    <path
       class="ColorScheme-ButtonText"
       id="path3925"
       d="m 215,147 c 1.10457,0 2,-0.89543 2,-2 l -1,0 c 0,0.55228 -0.44772,1 -1,1 z"
       style="opacity:1;fill:#004563;fill-opacity:1;stroke:none" />
  </g>
</svg>
