<?xml version="1.0" encoding="UTF-8" standalone="no"?>
<svg
   sodipodi:docname="suspend.svg"
   inkscape:version="1.3.2 (091e20ef0f, 2023-11-25)"
   id="svg1699"
   version="1.1"
   viewBox="0 0 32 32"
   height="32"
   width="32"
   xmlns:inkscape="http://www.inkscape.org/namespaces/inkscape"
   xmlns:sodipodi="http://sodipodi.sourceforge.net/DTD/sodipodi-0.dtd"
   xmlns:xlink="http://www.w3.org/1999/xlink"
   xmlns="http://www.w3.org/2000/svg"
   xmlns:svg="http://www.w3.org/2000/svg"
   xmlns:rdf="http://www.w3.org/1999/02/22-rdf-syntax-ns#"
   xmlns:cc="http://creativecommons.org/ns#"
   xmlns:dc="http://purl.org/dc/elements/1.1/">
  <defs
     id="defs1693">
    <linearGradient
       inkscape:collect="always"
       xlink:href="#linearGradient919"
       id="linearGradient965"
       x1="30.01787"
       y1="-93.553589"
       x2="29.958509"
       y2="-66.227707"
       gradientUnits="userSpaceOnUse"
       gradientTransform="translate(21.999997,96.000001)" />
    <linearGradient
       inkscape:collect="always"
       id="linearGradient919">
      <stop
         style="stop-color:#006a80;stop-opacity:1"
         offset="0"
         id="stop915" />
      <stop
         style="stop-color:#c8e0e7;stop-opacity:1"
         offset="1"
         id="stop917" />
    </linearGradient>
  </defs>
  <sodipodi:namedview
     inkscape:document-rotation="0"
     inkscape:window-maximized="1"
     inkscape:window-y="0"
     inkscape:window-x="0"
     inkscape:window-height="995"
     inkscape:window-width="1920"
     showgrid="false"
     inkscape:current-layer="layer1"
     inkscape:document-units="px"
     inkscape:cy="34.361261"
     inkscape:cx="30.655019"
     inkscape:zoom="7.959545"
     inkscape:pageshadow="2"
     inkscape:pageopacity="0"
     borderopacity="1"
     bordercolor="#ff1919"
     pagecolor="#000000"
     id="base"
     inkscape:pagecheckerboard="true"
     inkscape:showpageshadow="false"
     inkscape:deskcolor="#000000">
    <inkscape:grid
       type="xygrid"
       id="grid844"
       originx="-2"
       originy="-40.000003"
       spacingy="1"
       spacingx="1"
       units="mm"
       visible="false" />
  </sodipodi:namedview>
  <metadata
     id="metadata1696">
    <rdf:RDF>
      <cc:Work
         rdf:about="">
        <dc:format>image/svg+xml</dc:format>
        <dc:type
           rdf:resource="http://purl.org/dc/dcmitype/StillImage" />
      </cc:Work>
    </rdf:RDF>
  </metadata>
  <g
     transform="translate(-100.72914,-121.91899)"
     id="layer1"
     inkscape:groupmode="layer"
     inkscape:label="Layer 1">
    <g
       transform="translate(78.729144,121.91899)"
       id="system-suspend">
      <path
         id="path902-3"
         class="ColorScheme-Text"
         d="M 31.252061,2 C 26.755252,4.7382872 24.007651,9.620843 23.999996,14.886928 23.999996,23.233649 30.764564,30 39.109071,30 44.376882,29.996 49.261479,27.244799 51.99999,22.743551 l -0.922192,-0.922423 c -2.105073,1.226212 -4.496343,1.875232 -6.932365,1.881753 -7.649141,0 -13.849996,-6.202489 -13.849996,-13.853636 0.0033,-2.4378917 0.651405,-4.8315061 1.876345,-6.9391239 z m -1.057446,2.1203511 c -0.755092,1.816044 -1.148545,3.7620673 -1.158258,5.7288939 0,8.346712 6.764567,15.113063 15.109076,15.113063 1.992305,-0.004 3.963847,-0.405113 5.801156,-1.175788 l -0.371334,0.162342 c -2.628569,3.040341 -6.447704,4.788851 -10.466184,4.791707 -7.649138,0 -13.849988,-6.202487 -13.849988,-13.853641 0.005,-4.021509 1.758618,-7.8419663 4.802742,-10.468937 z m 17.333164,2.3276393 h 2.138885 v 1.093773 H 45.38889 L 47.527779,4.260444 H 45.388893 V 3.1666711 h 4.277768 z m -2.55341,7.2915716 h 2.138887 v 1.093774 h -4.27778 l 2.138893,-3.281343 H 42.83548 v -1.093785 h 4.277772 z M 38.97222,9.072883 h 2.138888 v 1.093784 H 36.833329 L 38.97222,6.8853384 H 36.833332 V 5.7915537 h 4.277773 z"
         style="fill:url(#linearGradient965);fill-opacity:1;stroke:none;stroke-width:0.999999" />
      <path
         id="path74"
         d="M 22,0 V 32 H 54 V 0 Z"
         style="opacity:1;fill:none" />
    </g>
  </g>
</svg>
