<?xml version="1.0" encoding="UTF-8" standalone="no"?>
<!-- Created with Inkscape (http://www.inkscape.org/) -->

<svg
   version="1.0"
   width="18"
   height="16"
   id="svg2"
   inkscape:version="1.3.2 (091e20ef0f, 2023-11-25)"
   sodipodi:docname="keepbelow.svg"
   xmlns:inkscape="http://www.inkscape.org/namespaces/inkscape"
   xmlns:sodipodi="http://sodipodi.sourceforge.net/DTD/sodipodi-0.dtd"
   xmlns="http://www.w3.org/2000/svg"
   xmlns:svg="http://www.w3.org/2000/svg"
   xmlns:rdf="http://www.w3.org/1999/02/22-rdf-syntax-ns#"
   xmlns:cc="http://creativecommons.org/ns#"
   xmlns:dc="http://purl.org/dc/elements/1.1/">
  <sodipodi:namedview
     pagecolor="#ffffff"
     bordercolor="#000000"
     borderopacity="1"
     objecttolerance="10"
     gridtolerance="10"
     guidetolerance="10"
     inkscape:pageopacity="0"
     inkscape:pageshadow="2"
     inkscape:window-width="1920"
     inkscape:window-height="994"
     id="namedview32"
     showgrid="false"
     inkscape:zoom="8.8388341"
     inkscape:cx="23.532515"
     inkscape:cy="11.426846"
     inkscape:window-x="0"
     inkscape:window-y="0"
     inkscape:window-maximized="1"
     inkscape:current-layer="svg2"
     inkscape:snap-bbox="true"
     inkscape:snap-global="true"
     inkscape:showpageshadow="2"
     inkscape:pagecheckerboard="0"
     inkscape:deskcolor="#cccccc">
    <inkscape:grid
       type="xygrid"
       id="grid3218"
       empspacing="5"
       visible="false"
       enabled="true"
       snapvisiblegridlinesonly="true"
       originx="-32"
       originy="0"
       spacingy="1"
       spacingx="1"
       units="px" />
  </sodipodi:namedview>
  <metadata
     id="metadata11">
    <rdf:RDF>
      <cc:Work
         rdf:about="">
        <dc:format>image/svg+xml</dc:format>
        <dc:type
           rdf:resource="http://purl.org/dc/dcmitype/StillImage" />
      </cc:Work>
    </rdf:RDF>
  </metadata>
  <defs
     id="defs4">
    <linearGradient
       id="linearGradient3860">
      <stop
         id="stop3862"
         offset="0"
         style="stop-color:#ffdf00;stop-opacity:1;" />
      <stop
         id="stop3864"
         offset="1"
         style="stop-color:#94830b;stop-opacity:1;" />
    </linearGradient>
    <linearGradient
       id="linearGradient3841">
      <stop
         style="stop-color:#eabc1c;stop-opacity:1;"
         offset="0"
         id="stop3843" />
      <stop
         style="stop-color:#896e12;stop-opacity:1;"
         offset="1"
         id="stop3845" />
    </linearGradient>
    <linearGradient
       id="linearGradient3854">
      <stop
         id="stop3856"
         offset="0"
         style="stop-color:#a0a0a0;stop-opacity:1;" />
      <stop
         id="stop3858"
         offset="1"
         style="stop-color:#464646;stop-opacity:1;" />
    </linearGradient>
    <linearGradient
       id="linearGradient3842">
      <stop
         style="stop-color:#c3c3c3;stop-opacity:1;"
         offset="0"
         id="stop3844" />
      <stop
         style="stop-color:#000000;stop-opacity:1;"
         offset="1"
         id="stop3846" />
    </linearGradient>
  </defs>
  <g
     id="inactive-center"
     transform="translate(2,-28)">
    <rect
       y="28"
       x="24"
       height="16"
       width="18"
       id="rect3887"
       style="opacity:0.4;fill:#000000;fill-opacity:0;fill-rule:nonzero;stroke:none" />
    <ellipse
       style="fill:#005f88;fill-opacity:1;fill-rule:nonzero;stroke:none"
       id="path3891"
       transform="matrix(0.47058824,0,0,0.50000002,23.352941,20.5)"
       cx="20.5"
       cy="31"
       rx="8.5"
       ry="8" />
  </g>
  <g
     transform="translate(20,-28)"
     id="active-center">
    <rect
       style="opacity:0.4;fill:#000000;fill-opacity:0;fill-rule:nonzero;stroke:none"
       id="rect3899"
       width="18"
       height="16"
       x="24"
       y="28" />
    <ellipse
       transform="matrix(0.47058824,0,0,0.50000002,23.352941,20.5)"
       id="path3903"
       style="fill:#a1b4ba;fill-opacity:1;fill-rule:nonzero;stroke:none"
       cx="20.5"
       cy="31"
       rx="8.5"
       ry="8" />
  </g>
  <g
     id="hover-center"
     transform="translate(-22)">
    <rect
       y="0"
       x="0"
       height="16"
       width="18"
       id="rect3862"
       style="opacity:0.4;fill:#000000;fill-opacity:0;fill-rule:nonzero;stroke:none" />
    <circle
       style="fill:#0099f0;fill-opacity:1;fill-rule:nonzero;stroke:none;stroke-width:0.485071"
       id="path3850"
       cx="9"
       cy="8.000001"
       r="4" />
    <path
       d="m 9.0038867,10.000056 c 0.0075,-8.37e-5 0.01538,-7.127e-4 0.02298,-0.0015 0.05276,-0.0053 0.101893,-0.02544 0.13943,-0.05744 L 12.229583,7.342403 c 0.04483,-0.03735 0.07013,-0.08843 0.07034,-0.141808 2.1e-4,-0.05331 -0.0247,-0.1045 -0.06916,-0.142208 -0.0445,-0.03767 -0.104837,-0.05865 -0.167715,-0.05837 H 5.9374017 c -0.06291,-7.12e-4 -0.123395,0.02054 -0.167975,0.05816 -0.04455,0.03765 -0.06953,0.0889 -0.06935,0.1423 1.55e-4,0.05334 0.02557,0.104457 0.07031,0.141896 l 3.063828,2.59882 c 0.0449,0.0382 0.106204,0.05928 0.169766,0.05858 z"
       fill-rule="evenodd"
       id="path2-3-6-6"
       style="fill:#eff0f1;fill-opacity:1;stroke-width:0.0123995;enable-background:new" />
  </g>
  <g
     id="pressed-center">
    <rect
       style="opacity:0.4;fill:#000000;fill-opacity:0;fill-rule:nonzero;stroke:none"
       id="rect3875"
       width="18"
       height="16"
       x="0"
       y="0" />
    <circle
       id="path3879"
       style="fill:#aa0000;fill-opacity:1;fill-rule:nonzero;stroke:none;stroke-width:0.485071"
       cx="9"
       cy="8.000001"
       r="4" />
    <path
       d="m 9.003811,10.000056 c 0.0075,-8.37e-5 0.01538,-7.127e-4 0.02298,-0.0015 0.05276,-0.0053 0.101893,-0.02544 0.13943,-0.05744 l 3.063286,-2.598713 c 0.04483,-0.03735 0.07013,-0.08843 0.07034,-0.141808 2.1e-4,-0.05331 -0.0247,-0.1045 -0.06916,-0.142208 -0.0445,-0.03767 -0.104837,-0.05865 -0.167715,-0.05837 H 5.937326 c -0.06291,-7.12e-4 -0.123395,0.02054 -0.167975,0.05816 -0.04455,0.03765 -0.06953,0.0889 -0.06935,0.1423 1.55e-4,0.05334 0.02557,0.104457 0.07031,0.141896 l 3.063828,2.59882 c 0.0449,0.0382 0.106204,0.05928 0.169766,0.05858 z"
       fill-rule="evenodd"
       id="path2-3-6-6-6"
       style="fill:#eff0f1;fill-opacity:1;stroke-width:0.0123995;enable-background:new" />
  </g>
</svg>
